<svg width="500" height="350" viewBox="0 0 500 350" fill="none" xmlns="http://www.w3.org/2000/svg">
<path d="M147.59 310.35H126.307V347.162H71.6102V310.35H0V288.523L89.6541 170.867H126.307V290.465H147.59V310.35ZM24.9516 290.46H72.4581V223.042L24.9516 290.46Z" fill="#121212"/>
<path d="M252.467 168.155C306.126 168.155 332.958 198.465 332.958 259.078C332.958 319.696 306.126 350 252.467 350C198.711 350 171.835 319.696 171.835 259.078C171.835 198.465 198.711 168.155 252.467 168.155ZM252.467 182.232C237.809 182.232 230.478 207.849 230.478 259.078C230.478 310.306 237.809 335.924 252.467 335.924C267.033 335.924 274.315 310.306 274.315 259.078C274.315 207.849 267.033 182.232 252.467 182.232Z" fill="#121212"/>
<path d="M499.994 310.35H478.711V347.162H424.02V310.35H352.41V288.523L442.064 170.867H478.717V290.465H500V310.35H499.994ZM377.361 290.46H424.868V223.042L377.361 290.46Z" fill="#121212"/>
<path d="M290.539 264.215L293.8 271.366L300.322 272.467L304.67 268.616L303.039 260.915L290.539 264.215Z" fill="#EDCFC8"/>
<path d="M291.637 266.504C295.773 267.125 300.121 266.091 303.583 263.665" stroke="#DBA205" stroke-miterlimit="10"/>
<path d="M296.164 194.24L299.778 193.805L302.496 200.406L300.865 208.107L293.659 200.956L296.164 194.24Z" fill="#EDCFC8"/>
<path d="M217.95 153.199C216.869 154.739 206.38 170.35 203.037 178.953C201.602 182.644 202.624 186.874 203.037 187.755C203.037 187.755 205.206 191.16 208.472 192.705C213.526 195.098 246.527 200.852 294.713 207.915L296.197 193.926C284.311 188.954 270.185 183.436 253.038 180.053C242.206 177.914 231.608 177.309 222.603 176.753L236.875 178.233L255.587 156.455L277.414 217.607L289.43 266.003C291.066 266.41 294.289 266.982 298.142 266.003C301.034 265.272 303.137 263.951 304.387 263.027L296.186 188.118L292.697 151.169L292.066 142.489L225.32 141.548L217.95 153.199Z" fill="#F3B405"/>
<path d="M301.996 214.23C304.784 224.423 305.577 230.49 308.474 231.761C311.192 232.954 312.898 228.796 313.273 228.411C316.898 224.681 317.121 219.72 317.17 218.13C317.42 210.126 312.295 208.344 313.029 201.248C313.545 196.297 314.637 195.61 313.366 193.811C312.023 191.919 309.382 191.094 305.713 192.161C303.556 192.595 301.393 193.024 299.235 193.459C299.762 194.988 300.387 197.403 300.322 200.412C300.267 202.986 299.724 205.082 299.235 206.501C299.947 208.102 301.05 210.786 301.996 214.23Z" fill="#E6E6E6"/>
<path d="M292.713 269.716C295.974 277.967 296.517 282.368 301.409 297.22C301.952 298.87 303.496 301.104 304.67 302.171C305.528 302.336 308.806 303.089 312.279 300.521C315.828 297.897 316.311 293.689 316.463 292.363C316.768 289.717 316.289 287.016 311.192 277.417C309.648 274.513 307.447 270.53 304.588 265.866C304.344 266.625 303.67 268.352 301.952 269.716C301.126 270.371 299.148 271.669 296.517 271.366C294.582 271.146 293.256 270.167 292.713 269.716Z" fill="#E6E6E6"/>
<path d="M254.668 60.1363L255.293 47.446L264.712 47.5066L264.995 60.1363H254.668Z" fill="#EDCFC8"/>
<path d="M236.918 177.881L231.826 176.846L229.125 176.753L236.918 177.881Z" stroke="#DBA205" stroke-miterlimit="10"/>
<path d="M253.038 57.386C254.359 58.0131 257.163 58.8822 260.103 59.0362C262.979 59.1847 265.277 58.5852 266.642 58.1121L266.082 61.2365L260.386 63.6514L254.125 60.6204C253.946 59.5423 253.217 58.4641 253.038 57.386Z" fill="#E6E6E6"/>
<path d="M230.211 111.844C230.211 120.645 229.124 125.046 229.124 132.197L289.012 131.393C288.881 123.775 287.832 108.543 286.191 96.9916L290.071 105.793C291.218 108.021 294.452 116.794 294.452 118.445C290.62 123.945 288.436 129.408 287.332 131.096C286.653 132.142 287.881 129.996 284.468 135.833C281.512 140.882 278.446 142.357 269.81 153.1L276.93 161.351C287.908 147.01 297.74 139.348 305.409 128.896C307.262 126.366 309.518 120.661 309.789 119.545C310.251 117.642 312.007 112.542 297.74 78.839C292.207 65.7692 287.908 57.9361 267.071 57.9361C265.538 57.9361 267.62 59.0362 260.125 61.0935C253.375 59.0362 254.049 58.1231 253.668 57.7215C252.929 56.9459 250.908 57.3145 250.092 57.386C238.043 58.4861 233.114 62.8868 232.021 63.9869C224.19 71.8585 215.222 90.1871 210.988 109.187C210.026 113.516 209.548 116.921 209.021 120.095C206.831 133.297 227.092 152.549 225.407 166.934L235.282 158.204C221.733 141.542 230.923 131.096 224.902 123.945C223.19 121.91 227.641 110.193 230.923 98.6418L230.211 111.844Z" fill="#E4D6CE"/>
<path d="M259.875 53.5354C265.913 53.5354 275.408 46.0544 275.408 36.8295L275.952 26.0315C275.952 16.8067 268.452 9.52917 259.875 9.52917C251.299 9.52917 244.342 17.0102 244.342 26.235V36.8351C244.342 46.0544 253.636 53.5354 259.875 53.5354Z" fill="#EDCFC8"/>
<path d="M264.984 2.63126C264.082 2.55425 263.088 2.63677 262.359 3.18684C262.082 3.39037 261.734 3.45088 261.446 3.26935C259.06 1.76214 256.734 0.150414 253.707 0.00739349C250.446 -0.141128 245.522 1.94366 244.141 6.65233C243.832 7.70298 243.538 8.74812 242.886 9.58974C242.266 10.3819 241.5 10.0683 240.696 10.6239C238.81 11.9331 236.413 15.107 236.027 17.4944C235.435 21.1524 237.728 26.0426 241.239 27.2638C245.266 28.6609 250.038 25.5035 252.223 21.7355C252.489 21.2734 253.038 21.1414 253.457 21.4384C255.223 22.6981 257.897 22.115 259.837 20.8939C262.74 19.0676 265.169 16.0862 268.974 16.6968C270.571 16.9498 272.044 17.8409 273.082 19.1721C274.946 21.5539 274.832 24.3318 274.903 27.1922C274.93 28.3144 276.43 28.4409 276.626 27.3353C277.251 23.8423 277.707 20.6463 277.957 16.5977C278.093 14.4029 277.273 11.7461 275.615 9.8813C273.74 7.78 271.571 7.69197 269.593 5.72269C268.175 4.30899 267.343 2.82379 264.984 2.63126Z" fill="#2D2D2D"/>
<path d="M265.049 182.809C267.691 190.043 270.332 197.276 272.973 204.51" stroke="#DBA205" stroke-miterlimit="10"/>
<path d="M257.718 142.703C255.995 143.028 254.391 144.051 253.473 145.558C252.554 147.065 252.381 149.046 253.131 150.641C253.881 152.236 255.587 153.364 257.337 153.298" fill="#939498"/>
<path d="M291.735 174.003H223.581C220.94 174.003 218.798 171.835 218.798 169.162V126.586C218.798 123.912 220.94 121.745 223.581 121.745H291.729C294.371 121.745 296.512 123.912 296.512 126.586V169.156C296.517 171.835 294.376 174.003 291.735 174.003Z" fill="#9C9CA1"/>
<path d="M257.93 163.001C249.826 163.001 243.255 156.351 243.255 148.149C243.255 139.947 249.826 133.297 257.93 133.297C266.033 133.297 272.604 139.947 272.604 148.149C272.604 156.351 266.033 163.001 257.93 163.001Z" fill="#FBFBFB" stroke="#9C9CA1" stroke-width="20" stroke-miterlimit="10"/>
</svg>
