<svg width="501" height="531" viewBox="0 0 501 531" fill="none" xmlns="http://www.w3.org/2000/svg">
<path d="M255.473 467.267V495.646H263.509L261.954 465.182L255.473 467.267Z" fill="#AAABB0"/>
<path d="M134.758 461.542V489.92H142.802L141.246 459.456L134.758 461.542Z" fill="#AAABB0"/>
<path d="M275.179 419.885C275.179 417.007 272.857 414.675 269.994 414.675C267.13 414.675 264.809 417.007 264.809 419.885V459.98C264.809 462.857 267.13 465.19 269.994 465.19C272.857 465.19 275.179 462.857 275.179 459.98V419.885Z" fill="#AAABB0"/>
<path d="M142.148 408.683C142.148 405.806 139.827 403.473 136.963 403.473C134.1 403.473 131.778 405.806 131.778 408.683V459.972C131.778 462.849 134.1 465.182 136.963 465.182C139.827 465.182 142.148 462.849 142.148 459.972V408.683Z" fill="#AAABB0"/>
<path d="M288.412 112.382C288.412 112.382 298.782 107.953 300.338 112.382C301.894 116.811 302.672 155.085 302.672 155.085H292.815L288.412 112.382Z" fill="#AAABB0"/>
<path d="M174.83 112.382C174.83 112.382 164.452 107.953 162.896 112.382C161.34 116.811 160.562 155.085 160.562 155.085H170.419L174.83 112.382Z" fill="#AAABB0"/>
<path d="M176.378 74.3645L174.822 106.133H181.824V73.5834L176.378 74.3645Z" fill="#AAABB0"/>
<path d="M170.419 155.085L172.497 109.257C172.497 109.257 171.719 99.1025 196.349 102.227C220.979 105.351 293.08 111.6 293.08 111.6V155.085H170.419Z" fill="#33323D"/>
<path d="M268.963 396.451L265.073 466.486C265.073 466.486 208.018 498.254 138.78 468.049L145.003 394.366L268.963 396.451Z" fill="#33323D"/>
<path d="M214.763 120.708L216.054 166.013H296.448L291.78 106.133L214.763 120.708Z" fill="#444053"/>
<path d="M222.931 366.503H147.205V462.838H222.931V366.503Z" fill="black"/>
<path d="M195.057 405.825C195.057 405.825 205.949 397.232 207.761 399.833C209.574 402.435 201.289 413.636 197.912 412.331C194.536 411.027 195.057 405.825 195.057 405.825Z" fill="#FFB9B9"/>
<path d="M477.34 152.476H20.2495C9.20382 152.476 0.249512 161.431 0.249512 172.476V382.435C0.249512 393.48 9.20382 402.435 20.2495 402.435H477.34C488.385 402.435 497.34 393.48 497.34 382.435V172.476C497.34 161.431 488.385 152.476 477.34 152.476Z" fill="#F5F5F5"/>
<path d="M170.676 72.5446C170.676 72.5446 166.786 36.0898 170.676 31.6687C174.566 27.2475 239.914 -14.6829 300.338 34.5276C300.338 34.5276 306.04 34.7931 305.006 47.8066C304.396 56.0429 304.437 64.3149 305.13 72.5446C305.13 72.5446 175.087 81.9181 170.676 72.5446Z" fill="#33323D"/>
<path opacity="0.1" d="M170.676 72.5446C170.676 72.5446 166.786 36.0898 170.676 31.6687C174.566 27.2475 239.914 -14.6829 300.338 34.5276C300.338 34.5276 306.04 34.7931 305.006 47.8066C304.396 56.0429 304.437 64.3149 305.13 72.5446C305.13 72.5446 175.087 81.9181 170.676 72.5446Z" fill="black"/>
<path d="M170.676 77.2313C170.676 77.2313 166.786 40.7764 170.676 36.3553C174.566 31.9342 239.914 -9.99628 300.338 39.2142C300.338 39.2142 306.04 39.4798 305.006 52.4932C304.396 60.7296 304.437 69.0015 305.13 77.2313C305.13 77.2313 175.087 86.6047 170.676 77.2313Z" fill="#33323D"/>
<path d="M307.339 60.5699C307.339 60.5699 311.486 76.1923 310.194 78.7935C308.903 81.3946 309.136 88.6902 309.136 88.6902C309.136 88.6902 309.416 93.377 307.339 93.8925C305.262 94.408 303.45 94.6736 305.13 96.2358C306.81 97.7981 305.13 100.141 305.13 100.141C305.13 100.141 304.22 103.789 305.13 106.133C306.04 108.476 299.809 109.452 300.338 112.382C300.867 115.311 302.609 123.575 300.338 123.841C298.066 124.106 301.116 134.253 299.07 134.253C297.024 134.253 295.569 152.476 295.569 152.476C295.569 152.476 281.177 140.244 271.584 143.626C271.584 143.626 272.362 133.472 275.474 129.824C278.586 126.176 277.645 116.811 277.645 116.811L293.079 70.2011L307.339 60.5699Z" fill="#F2B306"/>
<path d="M230.322 275.987C226.954 279.728 223.321 259.747 223.321 259.747C223.321 259.747 213.728 273.026 207.505 264.176C203.195 258.045 206.594 240.673 209.061 230.588C210.165 226.105 211.099 223.058 211.099 223.058L225.102 220.715C225.102 220.715 225.149 223.777 225.46 227.495C225.88 232.518 226.79 238.751 228.727 240.243C232.143 242.828 233.698 272.214 230.322 275.987Z" fill="#EDCFC8"/>
<path opacity="0.1" d="M223.064 42.0809C223.064 42.0809 198.682 41.8232 192.723 54.8366C186.764 67.8501 186.5 72.2868 184.166 74.3646C181.832 76.4424 209.574 87.3858 209.574 87.3858L210.873 132.167C210.873 132.167 216.319 126.629 225.133 129.137C233.947 131.644 245.103 129.137 245.103 129.137C245.103 129.137 244.582 128.191 251.848 129.137C259.114 130.082 282.188 117.849 282.188 117.849C282.188 117.849 282.569 98.259 282.056 94.0878C281.542 89.9167 298.517 59.2656 298.517 59.2656C298.517 59.2656 311.743 46.5099 298.004 42.0809C298.004 42.0809 293.142 34.7228 280.632 34.7931C268.123 34.8634 223.064 42.0809 223.064 42.0809Z" fill="black"/>
<path d="M223.064 41.2998C223.064 41.2998 198.682 41.0421 192.723 54.0555C186.764 67.0689 186.5 71.5057 184.166 73.5835C181.832 75.6613 209.574 86.6047 209.574 86.6047L210.873 131.386C210.873 131.386 216.319 125.848 225.133 128.356C233.947 130.863 245.103 128.356 245.103 128.356C245.103 128.356 244.582 127.41 251.848 128.356C259.114 129.301 282.188 117.068 282.188 117.068C282.188 117.068 291.259 102.227 290.746 98.0637C290.232 93.9004 308.895 62.39 308.895 62.39C308.895 62.39 311.75 45.7288 298.004 41.2998C298.004 41.2998 293.142 33.9417 280.632 34.012C268.123 34.0823 223.064 41.2998 223.064 41.2998Z" fill="#F2B306"/>
<path opacity="0.1" d="M225.522 227.472C220.177 225.8 211.791 229.487 209.123 230.596C210.227 226.113 211.161 223.066 211.161 223.066L225.164 220.723C225.164 220.723 225.187 223.785 225.522 227.472Z" fill="black"/>
<path d="M191.681 73.5834H184.166C184.166 73.5834 182.61 89.4713 184.166 94.158C185.722 98.8448 186.499 98.1652 185.978 101.633C185.457 105.102 189.611 110.413 189.611 110.413C189.611 110.413 190.125 123.505 192.723 128.379C195.322 133.253 189.868 155.109 189.868 155.109C191.355 158.882 193.556 162.33 196.348 165.263C200.759 169.684 203.093 186.088 201.794 192.337C200.495 198.586 205.427 200.929 205.427 200.929C205.427 200.929 207.504 230.096 208.282 230.096C209.06 230.096 224.098 222.285 228.766 229.049L225.133 202.234L225.397 150.422C225.397 150.422 220.465 143.908 223.063 138.182C225.662 132.456 220.986 118.912 220.986 118.912L214.241 88.7136L191.681 73.5834Z" fill="#F2B306"/>
<path d="M145.003 485.233C145.003 485.233 134.112 482.89 133.855 485.233C133.599 487.577 120.887 511.533 136.71 518.563C152.534 525.594 194.793 540.693 263.517 521.165C263.517 521.165 267.92 522.727 266.886 513.096C265.851 503.464 265.851 492.787 265.851 492.787C265.851 492.787 255.473 489.92 247.694 490.967C239.914 492.013 172.232 505.808 145.003 485.233Z" fill="#33323D"/>
<path opacity="0.1" d="M145.003 485.233C145.003 485.233 134.112 482.89 133.855 485.233C133.599 487.577 120.887 511.533 136.71 518.563C152.534 525.594 194.793 540.693 263.517 521.165C263.517 521.165 267.92 522.727 266.886 513.096C265.851 503.464 265.851 492.787 265.851 492.787C265.851 492.787 255.473 489.92 247.694 490.967C239.914 492.013 172.232 505.808 145.003 485.233Z" fill="black"/>
<path d="M145.003 482.109C145.003 482.109 134.112 479.765 133.855 482.109C133.599 484.452 120.887 508.409 136.71 515.439C152.534 522.469 194.793 537.568 263.517 518.04C263.517 518.04 267.92 519.602 266.886 509.971C265.851 500.34 265.851 489.662 265.851 489.662C265.851 489.662 255.473 486.795 247.694 487.842C239.914 488.889 172.232 502.683 145.003 482.109Z" fill="#33323D"/>
<path d="M208.516 82.9411C207.847 86.7608 206.33 90.4321 206.096 94.2986C205.863 98.1652 207.349 102.563 210.904 104.078C211.896 104.376 212.857 104.768 213.775 105.25C215.144 106.179 215.704 107.929 215.992 109.569C216.374 111.687 216.466 113.848 216.264 115.99C216.07 118.146 215.611 120.466 216.669 122.349C218.528 125.684 223.375 125.192 227.062 124.255L225.794 134.12C225.693 134.901 225.631 135.784 226.199 136.315C226.467 136.505 226.771 136.639 227.091 136.708C227.412 136.778 227.743 136.782 228.066 136.721C231.271 136.518 234.57 136.073 237.316 134.378C240.062 132.683 242.108 129.527 241.587 126.348C240.98 122.661 237.184 119.732 237.697 116.029C238.094 113.163 240.887 111.343 242.723 109.14C246.044 105.109 246.223 98.9853 243.617 94.4236C241.011 89.8619 235.978 87.0342 230.796 86.5187C227.926 86.2297 224.938 86.5812 222.239 85.5813C221.3 85.2354 220.453 84.6761 219.765 83.9471C219.076 83.2181 218.565 82.3391 218.271 81.3789" fill="#FFF4E4"/>
<path d="M118.039 430.297L120.754 424.361C120.754 424.361 135.411 410.652 138.779 409.691C142.148 408.73 155.894 404.544 157.971 404.544C160.049 404.544 197.912 402.458 197.912 402.458L202.315 412.878L154.797 423.353L138.779 435.07L118.039 430.297Z" fill="#E4D6CE"/>
<path d="M232.204 270.425L229.723 289.602L228.766 296.983L217.618 298.546C217.618 298.546 216.412 295.952 214.708 291.969C209.535 279.877 199.795 254.944 205.443 250.64C212.95 244.906 214.778 263.919 214.778 263.919L223.336 259.747L232.204 270.425Z" fill="#FFB9B9"/>
<path d="M230.346 306.099H174.045V391.499H230.346V306.099Z" fill="white"/>
<path opacity="0.1" d="M230.346 306.099H174.045V391.499H230.346V306.099Z" fill="black"/>
<path d="M255.649 310.723L199.954 302.455L187.514 386.937L243.21 395.204L255.649 310.723Z" fill="white"/>
<path d="M228.919 314.034L210.143 311.247C207.412 310.841 204.871 312.727 204.469 315.459L199.523 349.047C199.121 351.779 201.009 354.322 203.741 354.727L222.516 357.515C225.248 357.92 227.788 356.034 228.19 353.302L233.136 319.715C233.538 316.983 231.65 314.439 228.919 314.034Z" fill="black"/>
<path d="M225.732 370.822L200.442 367.068C197.835 366.681 195.41 368.481 195.026 371.088C194.642 373.696 196.444 376.123 199.051 376.51L224.342 380.265C226.949 380.652 229.374 378.852 229.758 376.244C230.142 373.637 228.339 371.209 225.732 370.822Z" fill="black"/>
<path d="M245.103 89.854C263.075 89.854 277.645 75.2253 277.645 57.1798C277.645 39.1344 263.075 24.5056 245.103 24.5056C227.131 24.5056 212.561 39.1344 212.561 57.1798C212.561 75.2253 227.131 89.854 245.103 89.854Z" fill="#EDCFC8"/>
<path d="M218.272 81.3947C218.05 80.5531 218.13 79.6602 218.497 78.8716C219.734 76.2861 223.258 76.0596 226.113 76.1924C232.827 76.5048 240.194 76.5439 245.446 72.2868C247.624 70.5371 250.059 66.1394 253.225 66.9752C256.041 67.7173 257.216 71.5525 260.149 72.404C262.273 73.021 264.474 72.0368 266.637 71.6228C269.749 71.0058 272.938 71.5213 276.097 71.5447C279.255 71.5682 282.686 70.9667 284.841 68.6468C287.751 65.5223 287.276 60.6403 287.019 56.3598C286.7 50.8304 287.074 45.2827 288.132 39.8469C289.19 34.4416 290.816 28.3957 287.844 23.7637C285.012 19.3504 279.147 18.1396 275.14 14.7574C271.39 11.6329 269.407 6.62593 265.447 3.72797C260.46 0.0801474 253.684 0.603495 247.554 1.2362L234.251 2.65784C230.82 3.02497 227.249 3.43896 224.425 5.4933C219.33 9.19581 218.629 16.8898 213.806 20.9438C211.659 22.7404 208.913 23.6309 206.462 24.9744C204.012 26.3179 201.647 28.4426 201.367 31.2234C201.133 33.5667 202.393 35.7304 203.008 37.9879C204.463 43.3776 202.191 48.9235 200.736 54.3523C199.282 59.7811 199.002 66.3737 203.226 69.9747C204.082 70.7089 205.077 71.2713 205.91 72.0368C208.765 74.6536 209.154 79.0669 208.493 82.8788" fill="#FFF4E4"/>
<path d="M247.756 97.9935C248.186 97.9935 248.534 97.1192 248.534 96.0407C248.534 94.9622 248.186 94.0879 247.756 94.0879C247.326 94.0879 246.978 94.9622 246.978 96.0407C246.978 97.1192 247.326 97.9935 247.756 97.9935Z" fill="#444053"/>
<path d="M247.756 106.133C248.186 106.133 248.534 105.258 248.534 104.18C248.534 103.101 248.186 102.227 247.756 102.227C247.326 102.227 246.978 103.101 246.978 104.18C246.978 105.258 247.326 106.133 247.756 106.133Z" fill="#444053"/>
<path d="M230.501 275.932C231.333 274.972 231.885 272.503 232.204 269.246L222.931 257.638C222.931 257.638 226.86 280.143 230.501 275.932Z" fill="#AE6E79"/>
<path opacity="0.1" d="M240.956 467.791C240.956 467.791 225.74 491.412 178.199 488.881C133.412 486.538 111.551 464.408 112.594 456.597C113.636 448.786 109.739 429.774 119.331 424.306C124.893 421.142 132.214 423.017 137.379 425.157C139.164 425.885 141.118 426.09 143.014 425.749C144.91 425.407 146.67 424.533 148.092 423.228C152.814 418.955 161.62 414.143 175.522 417.932C177.311 418.411 179.198 418.376 180.968 417.83C186.756 416.057 200.534 412.98 210.53 419.814C212.11 420.908 213.968 421.527 215.885 421.601C217.803 421.674 219.701 421.198 221.36 420.228L221.5 420.142C226.167 417.276 247.95 444.357 247.95 444.357C247.95 444.357 248.993 465.19 240.956 467.791Z" fill="black"/>
<path d="M240.956 468.572C240.956 468.572 225.74 492.193 178.199 489.662C133.412 487.319 111.551 465.19 112.594 457.378C113.636 449.567 109.739 430.555 119.331 425.087C124.893 421.923 132.214 423.798 137.379 425.938C139.164 426.666 141.118 426.871 143.014 426.53C144.91 426.188 146.67 425.314 148.092 424.009C152.814 419.736 161.62 414.925 175.522 418.713C177.311 419.192 179.198 419.157 180.968 418.611C186.756 416.838 200.534 413.761 210.53 420.596C212.11 421.689 213.968 422.309 215.885 422.382C217.803 422.455 219.701 421.979 221.36 421.01L221.5 420.924C226.167 418.057 247.95 445.138 247.95 445.138C247.95 445.138 248.993 465.971 240.956 468.572Z" fill="#E4D6CE"/>
<path opacity="0.1" d="M178.199 477.82C195.316 477.82 209.193 463.888 209.193 446.701C209.193 429.514 195.316 415.581 178.199 415.581C161.081 415.581 147.205 429.514 147.205 446.701C147.205 463.888 161.081 477.82 178.199 477.82Z" fill="black"/>
<path d="M178.199 478.601C195.316 478.601 209.193 464.669 209.193 447.482C209.193 430.295 195.316 416.362 178.199 416.362C161.081 416.362 147.205 430.295 147.205 447.482C147.205 464.669 161.081 478.601 178.199 478.601Z" fill="#FFB9B9"/>
<path d="M169.315 420.58C166.063 421.463 162.858 423.15 161.271 425.923C160.314 427.594 159.979 429.602 158.594 430.992C156.634 432.969 153.328 433.008 150.675 434.117C148.022 435.226 146.272 439.132 148.87 440.366C146.163 440.506 144.156 443.014 143.821 445.505C143.487 447.997 144.428 450.481 145.338 452.856C148.31 460.542 151.507 468.564 158.058 474.032C168.731 482.952 184.819 482.538 199.157 481.593C200.328 481.632 201.49 481.363 202.526 480.812C204.081 479.781 204.276 477.805 204.533 476.071C205.614 468.666 209.613 461.94 212.227 454.871C214.841 447.802 215.914 439.499 211.511 433.242C205.031 423.962 180.222 417.612 169.315 420.58Z" fill="#2D2D2D"/>
<path opacity="0.1" d="M229.723 289.602L228.766 296.983L217.618 298.546C217.618 298.546 216.412 295.952 214.708 291.969L229.544 289.172L229.723 289.602Z" fill="black"/>
<path d="M241.47 452.692L247.958 445.138L246.659 403.481C247.298 400.476 247.732 397.43 247.958 394.366C248.215 389.937 244.714 380.048 244.714 380.048C245.257 378.068 245.995 376.148 246.916 374.314C248.472 371.19 244.722 364.16 244.722 364.16C244.722 364.16 239.136 345.936 241.47 336.821C243.804 327.705 240.902 322.503 240.902 322.503C240.902 322.503 238.623 312.348 238.88 308.185C239.136 304.021 233.691 300.108 233.691 300.108L229.544 289.953L212.95 293.078V328.228C212.95 328.228 213.985 361.816 212.95 368.331C211.916 374.845 215.02 381.087 215.02 381.087C215.02 381.087 213.207 390.718 214.763 394.366C216.319 398.013 219.431 406.864 219.431 406.864C218.853 410.026 219.032 413.282 219.952 416.362C221.508 420.924 219.952 423.525 219.952 423.525L241.47 452.692Z" fill="#E4D6CE"/>
<g opacity="0.1">
<path opacity="0.1" d="M288.155 37.277C287.278 41.8494 286.884 46.5021 286.98 51.1575C287.047 47.2865 287.45 43.4287 288.186 39.6282C288.87 36.1601 289.742 32.4263 289.555 28.9659C289.268 31.7639 288.801 34.5401 288.155 37.277Z" fill="black"/>
<path opacity="0.1" d="M205.933 69.5217C205.1 68.7405 204.105 68.1938 203.249 67.4517C200.977 65.5067 200.02 62.6869 199.834 59.6405C199.608 63.5461 200.401 67.3267 203.249 69.795C204.105 70.5371 205.1 71.0995 205.933 71.865C207.673 73.594 208.682 75.9303 208.749 78.3874C208.975 75.1067 208.313 71.6932 205.933 69.5217Z" fill="black"/>
<path opacity="0.1" d="M203.451 40.3547C203.587 38.7048 203.445 37.0438 203.031 35.4414C202.58 33.7698 201.771 32.1373 201.475 30.4579C201.475 30.6375 201.413 30.825 201.39 31.0203C201.164 33.3636 202.424 35.5274 203.031 37.7848C203.255 38.6255 203.395 39.4863 203.451 40.3547Z" fill="black"/>
<path opacity="0.1" d="M284.864 66.0769C282.709 68.4202 279.278 68.9982 276.12 68.9748C272.961 68.9514 269.764 68.4358 266.66 69.0607C264.497 69.4981 262.295 70.4745 260.171 69.8418C257.239 68.9904 256.064 65.1551 253.256 64.4131C250.058 63.5695 247.623 67.9672 245.476 69.7169C240.225 73.9349 232.857 73.8958 226.144 73.6225C223.289 73.4897 219.765 73.7162 218.535 76.3095C218.16 77.0959 218.08 77.9916 218.31 78.8325L208.803 80.3323C208.767 81.1181 208.681 81.9008 208.546 82.6756L218.31 81.1134C218.08 80.2725 218.16 79.3768 218.535 78.5904C219.765 75.9971 223.289 75.7705 226.144 75.9033C232.857 76.2158 240.225 76.2548 245.476 71.9977C247.654 70.248 250.089 65.8503 253.256 66.6939C256.064 67.4282 257.239 71.2713 260.171 72.1227C262.295 72.732 264.497 71.7556 266.66 71.3416C269.771 70.7167 272.961 71.2322 276.12 71.2557C279.278 71.2791 282.709 70.6776 284.864 68.3577C287.019 66.0378 287.33 62.5774 287.198 59.203C287.104 61.8198 286.568 64.2412 284.864 66.0769Z" fill="black"/>
</g>
<g opacity="0.1">
<path opacity="0.1" d="M212.849 103.594C211.933 103.11 210.971 102.717 209.978 102.422C208.29 101.652 206.95 100.276 206.221 98.5636C206.804 101.258 208.282 103.711 210.756 104.766C211.749 105.06 212.711 105.453 213.627 105.937C214.213 106.353 214.686 106.909 215.004 107.554C214.693 106.023 214.125 104.461 212.849 103.594Z" fill="black"/>
<path opacity="0.1" d="M226.136 122.599C222.55 123.513 217.867 123.989 215.898 120.935C215.96 121.671 216.172 122.386 216.521 123.036C218.201 126.043 222.309 125.942 225.802 125.2L226.136 122.599Z" fill="black"/>
<path opacity="0.1" d="M240.668 124.739C241.166 127.91 239.113 131.074 236.39 132.738C233.667 134.401 230.345 134.862 227.14 135.081C226.63 135.147 226.112 135.088 225.631 134.909C225.485 135.239 225.437 135.605 225.495 135.962C225.553 136.318 225.713 136.65 225.955 136.917C226.198 137.184 226.513 137.374 226.861 137.464C227.21 137.554 227.577 137.54 227.918 137.424C231.123 137.221 234.422 136.776 237.168 135.081C239.914 133.386 241.968 130.23 241.439 127.051C241.289 126.248 241.03 125.47 240.668 124.739Z" fill="black"/>
<path opacity="0.1" d="M244.123 96.4624C244.598 98.3615 244.634 100.345 244.23 102.26C243.825 104.176 242.99 105.973 241.789 107.515C239.953 109.749 237.16 111.538 236.763 114.405C236.631 115.723 236.902 117.05 237.541 118.209C237.471 117.724 237.471 117.232 237.541 116.748C237.938 113.881 240.731 112.061 242.567 109.859C245.585 106.195 246.005 100.798 244.123 96.4624Z" fill="black"/>
</g>
<g opacity="0.1">
<path opacity="0.1" d="M150.682 435.32C153.327 434.218 156.633 434.179 158.601 432.195C159.986 430.805 160.32 428.797 161.277 427.134C162.833 424.353 166.062 422.673 169.314 421.791C180.205 418.822 205.037 425.165 211.51 434.359C213.407 437.14 214.441 440.424 214.482 443.795C214.731 439.903 213.689 436.038 211.518 432.804C205.045 423.611 180.236 417.268 169.321 420.236C166.07 421.119 162.864 422.798 161.285 425.579C160.328 427.243 159.994 429.25 158.609 430.641C156.641 432.617 153.334 432.656 150.689 433.765C148.674 434.601 147.181 437.069 147.725 438.725C147.942 437.976 148.319 437.284 148.83 436.695C149.34 436.107 149.972 435.638 150.682 435.32Z" fill="black"/>
<path opacity="0.1" d="M143.836 446.669C144.163 444.17 146.17 441.67 148.885 441.53C148.6 441.41 148.345 441.228 148.139 440.997C147.933 440.766 147.781 440.492 147.695 440.194C146.662 440.579 145.754 441.24 145.068 442.106C144.383 442.972 143.946 444.01 143.805 445.107C143.731 445.743 143.731 446.385 143.805 447.021C143.836 446.904 143.836 446.786 143.836 446.669Z" fill="black"/>
</g>
<path d="M308.631 163.6H237.837V256.295H308.631V163.6Z" fill="white"/>
<path opacity="0.1" d="M308.631 163.6H237.837V256.295H308.631V163.6Z" fill="black"/>
<path d="M335.679 169.038L265.91 181.088L281.56 272.442L351.329 260.392L335.679 169.038Z" fill="white"/>
<path d="M294.284 241.383L287.746 242.513C285.025 242.983 283.197 245.57 283.664 248.292L285.652 259.898C286.118 262.619 288.702 264.445 291.423 263.975L297.961 262.846C300.682 262.376 302.51 259.788 302.044 257.067L300.056 245.461C299.589 242.739 297.005 240.913 294.284 241.383Z" fill="black"/>
<path d="M316.967 237.462L310.429 238.591C307.708 239.061 305.88 241.648 306.347 244.37L308.335 255.976C308.801 258.698 311.385 260.523 314.106 260.053L320.644 258.924C323.365 258.454 325.193 255.867 324.727 253.145L322.739 241.539C322.272 238.817 319.688 236.992 316.967 237.462Z" fill="black"/>
<path d="M332.996 206.016L285.364 214.228C282.643 214.698 280.814 217.284 281.28 220.006L283.281 231.709C283.747 234.431 286.33 236.257 289.052 235.788L336.683 227.576C339.404 227.107 341.233 224.52 340.767 221.798L338.766 210.095C338.3 207.373 335.717 205.547 332.996 206.016Z" fill="black"/>
<path d="M330.728 179.849L278.05 188.932C276.722 189.16 275.83 190.423 276.057 191.751C276.284 193.079 277.545 193.97 278.873 193.741L331.55 184.659C332.878 184.43 333.77 183.168 333.543 181.84C333.316 180.511 332.055 179.62 330.728 179.849Z" fill="black"/>
<path d="M332.613 188.697L279.936 197.78C278.608 198.009 277.715 199.271 277.943 200.599C278.17 201.928 279.43 202.819 280.758 202.59L333.435 193.507C334.763 193.278 335.656 192.016 335.428 190.688C335.201 189.36 333.941 188.468 332.613 188.697Z" fill="black"/>
<path d="M277.645 138.416C277.645 138.416 245.103 171.223 261.44 179.558C277.777 187.892 288.412 151.828 288.412 151.828L290.995 143.626L277.645 138.416Z" fill="#EDCFC8"/>
<path opacity="0.1" d="M274.797 135.518L270.775 144.439C270.775 144.439 290.613 147.235 294.76 153.258L292.302 137.518L289.384 130.8L274.797 135.518Z" fill="black"/>
<path d="M275.575 134.737L271.553 143.658C271.553 143.658 291.391 146.454 295.538 152.476L293.079 136.737L290.162 130.019L275.575 134.737Z" fill="#F2B306"/>
<path d="M395.661 298.749L395.233 299.046L395.824 299.311L396.462 299.256L396.54 298.811L395.661 298.749Z" fill="#464A5F"/>
<path opacity="0.1" d="M395.661 298.749L395.233 299.046L395.824 299.311L396.462 299.256L396.54 298.811L395.661 298.749Z" fill="black"/>
<path d="M395.661 298.749L395.225 299.03L394.883 298.608L395.093 298.265L395.287 298.202L395.661 298.749Z" fill="#9C9CA1"/>
<path opacity="0.1" d="M395.661 298.749L395.225 299.03L394.883 298.608L395.093 298.265L395.287 298.202L395.661 298.749Z" fill="black"/>
<path d="M472.235 244.766L440.386 198.578C440.104 198.166 439.743 197.813 439.325 197.541C438.907 197.269 438.44 197.082 437.95 196.991C437.46 196.901 436.957 196.908 436.47 197.013C435.983 197.117 435.521 197.317 435.111 197.602L364.115 246.531C363.284 247.103 362.714 247.983 362.529 248.978C362.344 249.972 362.559 250.999 363.127 251.835L394.891 298.608L472.235 244.766Z" fill="#9C9CA1"/>
<path opacity="0.1" d="M472.235 244.766L440.386 198.578C440.104 198.166 439.743 197.813 439.325 197.541C438.907 197.269 438.44 197.082 437.95 196.991C437.46 196.901 436.957 196.908 436.47 197.013C435.983 197.117 435.521 197.317 435.111 197.602L364.115 246.531C363.284 247.103 362.714 247.983 362.529 248.978C362.344 249.972 362.559 250.999 363.127 251.835L394.891 298.608L472.235 244.766Z" fill="black"/>
<path d="M473.012 244.875L441.163 198.687C440.88 198.275 440.519 197.922 440.1 197.65C439.682 197.378 439.214 197.191 438.723 197.1C438.233 197.009 437.729 197.017 437.241 197.122C436.754 197.226 436.291 197.427 435.881 197.711L364.892 246.671C364.062 247.244 363.491 248.123 363.305 249.117C363.118 250.111 363.331 251.138 363.896 251.975L395.66 298.772L473.012 244.875Z" fill="#9C9CA1"/>
<path d="M499.635 254.006L473.184 245.476L395.824 299.319L422.695 308.146C423.296 308.342 423.935 308.394 424.56 308.3C425.185 308.205 425.78 307.965 426.297 307.599L499.852 255.451C499.99 255.374 500.101 255.256 500.171 255.113C500.24 254.971 500.265 254.81 500.241 254.653C500.217 254.496 500.147 254.35 500.038 254.235C499.93 254.119 499.789 254.039 499.635 254.006Z" fill="#464A5F"/>
<path opacity="0.1" d="M499.635 254.006L473.184 245.476L395.824 299.319L422.695 308.146C423.296 308.342 423.935 308.394 424.56 308.3C425.185 308.205 425.78 307.965 426.297 307.599L499.852 255.451C499.99 255.374 500.101 255.256 500.171 255.113C500.24 254.971 500.265 254.81 500.241 254.653C500.217 254.496 500.147 254.35 500.038 254.235C499.93 254.119 499.789 254.039 499.635 254.006Z" fill="black"/>
<path d="M499.471 253.467L473.02 244.93L395.661 298.772L422.531 307.583C423.132 307.783 423.77 307.838 424.396 307.745C425.022 307.651 425.617 307.411 426.133 307.044L499.689 254.897C499.821 254.817 499.927 254.699 499.993 254.559C500.059 254.419 500.081 254.262 500.058 254.109C500.034 253.955 499.966 253.812 499.862 253.698C499.757 253.584 499.621 253.504 499.471 253.467Z" fill="#464A5F"/>
<g opacity="0.1">
<path opacity="0.1" d="M460.519 242.813L458.566 240.001C458.449 239.838 458.273 239.727 458.076 239.69C457.879 239.654 457.676 239.695 457.508 239.806L454.606 241.751C454.444 241.866 454.331 242.04 454.292 242.236C454.253 242.432 454.29 242.636 454.396 242.805L456.194 245.578C456.306 245.744 456.478 245.86 456.673 245.903C456.869 245.945 457.073 245.91 457.244 245.805L460.301 243.875C460.467 243.761 460.583 243.586 460.624 243.388C460.664 243.19 460.627 242.984 460.519 242.813Z" fill="black"/>
<path opacity="0.1" d="M455.307 246.437L453.346 243.633C453.229 243.47 453.053 243.359 452.856 243.322C452.659 243.286 452.456 243.327 452.288 243.438L449.394 245.398C449.23 245.513 449.116 245.686 449.075 245.882C449.035 246.078 449.071 246.283 449.176 246.453L450.973 249.226C451.085 249.393 451.256 249.511 451.452 249.555C451.647 249.598 451.852 249.565 452.024 249.46L455.089 247.531C455.175 247.474 455.25 247.401 455.308 247.315C455.366 247.229 455.406 247.132 455.426 247.03C455.447 246.928 455.447 246.823 455.426 246.722C455.405 246.62 455.365 246.523 455.307 246.437Z" fill="black"/>
<path opacity="0.1" d="M449.83 250.241L447.87 247.437C447.752 247.274 447.577 247.163 447.38 247.126C447.182 247.09 446.979 247.131 446.812 247.242L443.91 249.202C443.745 249.318 443.631 249.493 443.592 249.691C443.552 249.889 443.591 250.095 443.7 250.265L445.497 253.038C445.609 253.204 445.781 253.32 445.977 253.362C446.172 253.404 446.376 253.369 446.547 253.264L449.604 251.335C449.692 251.279 449.767 251.206 449.825 251.12C449.884 251.034 449.925 250.938 449.946 250.836C449.967 250.734 449.968 250.629 449.948 250.527C449.928 250.425 449.888 250.328 449.83 250.241Z" fill="black"/>
<path opacity="0.1" d="M444.283 254.1L442.323 251.288C442.206 251.127 442.031 251.017 441.836 250.981C441.641 250.944 441.439 250.984 441.272 251.093L438.371 253.061C438.208 253.176 438.095 253.35 438.056 253.546C438.017 253.742 438.054 253.946 438.161 254.116L439.958 256.889C440.069 257.054 440.239 257.17 440.433 257.214C440.626 257.257 440.829 257.225 441 257.123L444.065 255.186C444.151 255.129 444.224 255.056 444.282 254.97C444.339 254.885 444.379 254.789 444.399 254.688C444.419 254.587 444.419 254.483 444.4 254.383C444.38 254.282 444.34 254.186 444.283 254.1Z" fill="black"/>
<path opacity="0.1" d="M438.744 257.951L436.784 255.147C436.666 254.984 436.491 254.872 436.294 254.836C436.097 254.8 435.893 254.841 435.726 254.951L432.832 256.912C432.667 257.026 432.553 257.199 432.513 257.396C432.472 257.592 432.508 257.796 432.614 257.967L434.411 260.74C434.522 260.907 434.694 261.025 434.889 261.068C435.085 261.112 435.29 261.078 435.461 260.974L438.526 259.037C438.612 258.98 438.685 258.907 438.743 258.821C438.8 258.736 438.84 258.64 438.86 258.539C438.88 258.438 438.88 258.335 438.861 258.234C438.841 258.133 438.801 258.037 438.744 257.951Z" fill="black"/>
<path opacity="0.1" d="M433.446 262.153L431.011 258.67C430.985 258.631 430.952 258.598 430.913 258.572C430.874 258.546 430.831 258.528 430.785 258.52C430.74 258.511 430.693 258.512 430.647 258.521C430.602 258.531 430.559 258.549 430.521 258.576L426.958 260.99C426.919 261.015 426.885 261.048 426.858 261.086C426.832 261.125 426.813 261.168 426.804 261.214C426.795 261.26 426.794 261.307 426.804 261.353C426.813 261.399 426.831 261.443 426.857 261.482L429.089 264.926C429.14 265.006 429.22 265.061 429.312 265.082C429.404 265.102 429.5 265.086 429.579 265.036L433.345 262.692C433.39 262.667 433.429 262.631 433.459 262.589C433.49 262.546 433.51 262.498 433.52 262.446C433.529 262.395 433.528 262.342 433.515 262.292C433.502 262.241 433.479 262.194 433.446 262.153Z" fill="black"/>
<path opacity="0.1" d="M427.907 266.004L425.457 262.52C425.43 262.481 425.396 262.448 425.357 262.422C425.317 262.396 425.273 262.379 425.227 262.37C425.181 262.361 425.133 262.362 425.087 262.371C425.041 262.381 424.997 262.4 424.959 262.427L421.396 264.84C421.319 264.894 421.267 264.976 421.249 265.067C421.232 265.159 421.251 265.254 421.302 265.333L423.535 268.777C423.559 268.818 423.591 268.854 423.629 268.882C423.667 268.909 423.71 268.929 423.756 268.939C423.802 268.95 423.85 268.95 423.896 268.941C423.942 268.932 423.986 268.914 424.025 268.887L427.783 266.543C427.831 266.521 427.873 266.487 427.907 266.446C427.94 266.405 427.964 266.356 427.976 266.304C427.988 266.252 427.988 266.198 427.976 266.146C427.964 266.094 427.94 266.046 427.907 266.004Z" fill="black"/>
<path opacity="0.1" d="M422.998 269.418L420.563 265.965C420.509 265.89 420.427 265.839 420.335 265.823C420.244 265.807 420.15 265.827 420.073 265.879L416.51 268.285C416.432 268.339 416.378 268.421 416.359 268.515C416.34 268.608 416.358 268.705 416.409 268.785L418.642 272.23C418.694 272.307 418.774 272.362 418.865 272.382C418.956 272.403 419.052 272.387 419.132 272.339L422.897 269.996C422.949 269.971 422.994 269.935 423.029 269.889C423.063 269.843 423.087 269.79 423.097 269.733C423.107 269.676 423.103 269.618 423.086 269.563C423.068 269.509 423.038 269.459 422.998 269.418Z" fill="black"/>
<path opacity="0.1" d="M417.506 273.23L415.071 269.746C415.016 269.671 414.935 269.62 414.843 269.604C414.752 269.587 414.658 269.608 414.581 269.66L411.018 272.066C410.978 272.092 410.944 272.126 410.918 272.165C410.891 272.204 410.873 272.248 410.864 272.295C410.854 272.341 410.854 272.389 410.863 272.436C410.872 272.482 410.891 272.526 410.917 272.566L413.149 276.011C413.202 276.088 413.282 276.143 413.373 276.163C413.464 276.183 413.559 276.168 413.64 276.12L417.405 273.777C417.45 273.75 417.489 273.714 417.52 273.671C417.55 273.627 417.571 273.578 417.58 273.526C417.59 273.474 417.588 273.421 417.575 273.37C417.562 273.319 417.539 273.271 417.506 273.23Z" fill="black"/>
<path opacity="0.1" d="M412.185 276.901L409.75 273.417C409.724 273.378 409.691 273.345 409.652 273.32C409.613 273.294 409.57 273.276 409.524 273.267C409.479 273.259 409.432 273.259 409.386 273.269C409.341 273.278 409.298 273.297 409.26 273.323L405.696 275.737C405.657 275.762 405.623 275.795 405.597 275.834C405.571 275.873 405.552 275.916 405.543 275.962C405.533 276.008 405.533 276.055 405.542 276.101C405.551 276.147 405.569 276.19 405.595 276.229L407.828 279.674C407.879 279.753 407.959 279.809 408.051 279.829C408.143 279.85 408.239 279.833 408.318 279.783L412.084 277.44C412.129 277.414 412.168 277.379 412.198 277.336C412.228 277.294 412.249 277.245 412.259 277.194C412.268 277.143 412.267 277.09 412.254 277.039C412.241 276.989 412.217 276.942 412.185 276.901Z" fill="black"/>
<path opacity="0.1" d="M406.864 280.635L404.452 277.143C404.397 277.068 404.316 277.017 404.224 277.001C404.133 276.985 404.039 277.005 403.962 277.057L400.399 279.463C400.359 279.489 400.325 279.523 400.299 279.562C400.272 279.601 400.254 279.645 400.244 279.692C400.235 279.738 400.235 279.786 400.244 279.833C400.253 279.879 400.271 279.924 400.298 279.963L402.53 283.408C402.583 283.485 402.663 283.54 402.754 283.56C402.845 283.581 402.94 283.565 403.02 283.517L406.786 281.174C406.829 281.146 406.866 281.109 406.894 281.066C406.922 281.022 406.94 280.973 406.948 280.922C406.955 280.871 406.951 280.819 406.937 280.769C406.922 280.72 406.897 280.674 406.864 280.635Z" fill="black"/>
<path opacity="0.1" d="M401.543 284.329L399.108 280.846C399.082 280.807 399.049 280.774 399.01 280.748C398.971 280.722 398.928 280.704 398.882 280.696C398.837 280.687 398.79 280.687 398.744 280.697C398.699 280.707 398.656 280.725 398.618 280.752L395.054 283.15C395.015 283.175 394.981 283.208 394.955 283.247C394.929 283.285 394.91 283.329 394.901 283.375C394.891 283.42 394.891 283.468 394.9 283.514C394.909 283.56 394.927 283.603 394.953 283.642L397.186 287.087C397.237 287.166 397.317 287.222 397.409 287.242C397.501 287.263 397.596 287.246 397.676 287.196L401.442 284.853C401.484 284.827 401.521 284.792 401.55 284.751C401.579 284.71 401.598 284.663 401.608 284.614C401.617 284.564 401.616 284.514 401.605 284.465C401.594 284.416 401.573 284.37 401.543 284.329Z" fill="black"/>
<path opacity="0.1" d="M457.018 237.728L455.058 234.916C454.94 234.753 454.765 234.641 454.568 234.605C454.371 234.569 454.167 234.61 454 234.721L451.129 236.689C450.965 236.803 450.851 236.976 450.81 237.173C450.77 237.369 450.806 237.573 450.911 237.744L452.708 240.517C452.821 240.683 452.993 240.799 453.188 240.841C453.384 240.883 453.588 240.848 453.758 240.743L456.824 238.814C456.993 238.695 457.108 238.515 457.144 238.311C457.181 238.108 457.135 237.898 457.018 237.728Z" fill="black"/>
<path opacity="0.1" d="M449.355 226.613L447.395 223.785C447.278 223.624 447.104 223.514 446.909 223.478C446.713 223.441 446.512 223.481 446.345 223.59L443.443 225.55C443.279 225.664 443.165 225.837 443.124 226.034C443.084 226.23 443.12 226.434 443.225 226.605L445.022 229.378C445.134 229.545 445.305 229.663 445.5 229.707C445.696 229.75 445.901 229.716 446.072 229.612L449.138 227.683C449.306 227.568 449.423 227.392 449.464 227.192C449.505 226.992 449.466 226.784 449.355 226.613Z" fill="black"/>
<path opacity="0.1" d="M451.798 241.352L449.838 238.548C449.721 238.387 449.547 238.277 449.351 238.241C449.156 238.204 448.954 238.244 448.788 238.353L445.886 240.313C445.723 240.429 445.61 240.602 445.571 240.798C445.532 240.995 445.57 241.198 445.676 241.368L447.465 244.141C447.576 244.308 447.748 244.426 447.943 244.47C448.139 244.513 448.344 244.479 448.515 244.375L451.58 242.446C451.667 242.389 451.741 242.315 451.799 242.229C451.857 242.143 451.898 242.047 451.918 241.945C451.938 241.843 451.938 241.738 451.918 241.636C451.897 241.535 451.856 241.438 451.798 241.352Z" fill="black"/>
<path opacity="0.1" d="M446.321 245.156L444.361 242.352C444.243 242.189 444.068 242.078 443.871 242.041C443.674 242.005 443.47 242.046 443.303 242.157L440.409 244.094C440.243 244.208 440.127 244.383 440.086 244.581C440.046 244.779 440.083 244.985 440.191 245.156L441.988 247.929C442.1 248.095 442.272 248.212 442.468 248.254C442.664 248.296 442.868 248.261 443.038 248.156L446.103 246.226C446.272 246.112 446.389 245.936 446.429 245.736C446.47 245.536 446.431 245.328 446.321 245.156Z" fill="black"/>
<path opacity="0.1" d="M440.774 249.015L438.822 246.203C438.704 246.04 438.529 245.928 438.332 245.892C438.135 245.856 437.931 245.897 437.764 246.008L434.862 247.999C434.699 248.115 434.586 248.288 434.547 248.485C434.508 248.681 434.546 248.885 434.652 249.054L436.449 251.827C436.561 251.993 436.733 252.109 436.929 252.151C437.124 252.194 437.329 252.159 437.499 252.053L440.557 250.124C440.645 250.067 440.722 249.993 440.781 249.906C440.84 249.818 440.882 249.72 440.902 249.616C440.922 249.513 440.922 249.406 440.9 249.302C440.878 249.199 440.835 249.101 440.774 249.015Z" fill="black"/>
<path opacity="0.1" d="M444.26 230.416L442.299 227.612C442.182 227.451 442.008 227.341 441.813 227.305C441.618 227.269 441.416 227.309 441.249 227.417L438.347 229.378C438.183 229.492 438.069 229.665 438.028 229.861C437.988 230.057 438.024 230.262 438.129 230.432L439.927 233.205C440.038 233.372 440.209 233.49 440.405 233.534C440.601 233.578 440.805 233.544 440.977 233.439L444.042 231.51C444.129 231.453 444.203 231.38 444.261 231.294C444.319 231.208 444.359 231.111 444.38 231.009C444.4 230.907 444.4 230.802 444.379 230.701C444.359 230.599 444.318 230.502 444.26 230.416Z" fill="black"/>
<path opacity="0.1" d="M438.783 234.228L436.823 231.416C436.705 231.253 436.53 231.142 436.333 231.106C436.136 231.069 435.932 231.111 435.765 231.221L432.871 233.158C432.707 233.272 432.592 233.446 432.552 233.642C432.511 233.838 432.547 234.043 432.653 234.213L434.45 236.986C434.562 237.152 434.734 237.268 434.93 237.31C435.125 237.352 435.33 237.317 435.5 237.212L438.565 235.283C438.729 235.169 438.844 234.996 438.884 234.799C438.925 234.603 438.889 234.399 438.783 234.228Z" fill="black"/>
<path opacity="0.1" d="M433.236 238.079L431.276 235.275C431.16 235.113 430.986 235.001 430.791 234.964C430.596 234.926 430.393 234.965 430.226 235.072L427.324 237.064C427.161 237.179 427.048 237.353 427.009 237.549C426.97 237.745 427.008 237.949 427.114 238.118L428.911 240.891C429.022 241.059 429.194 241.177 429.389 241.22C429.585 241.264 429.79 241.23 429.961 241.126L433.019 239.189C433.107 239.132 433.184 239.058 433.243 238.97C433.303 238.883 433.344 238.785 433.364 238.681C433.384 238.577 433.384 238.47 433.362 238.367C433.34 238.264 433.297 238.166 433.236 238.079Z" fill="black"/>
<path opacity="0.1" d="M435.235 252.866L433.275 250.062C433.159 249.899 432.985 249.788 432.79 249.75C432.595 249.712 432.392 249.751 432.225 249.859L429.346 251.827C429.183 251.942 429.071 252.116 429.032 252.312C428.993 252.508 429.03 252.712 429.136 252.882L430.902 255.654C431.013 255.82 431.183 255.936 431.377 255.98C431.571 256.023 431.774 255.991 431.945 255.889L435.01 253.952C435.096 253.896 435.17 253.823 435.228 253.738C435.286 253.653 435.327 253.557 435.348 253.456C435.369 253.355 435.37 253.251 435.35 253.15C435.331 253.048 435.292 252.952 435.235 252.866Z" fill="black"/>
<path opacity="0.1" d="M429.696 256.717L427.736 253.913C427.618 253.749 427.443 253.638 427.246 253.602C427.049 253.565 426.845 253.607 426.678 253.717L423.784 255.678C423.62 255.792 423.505 255.965 423.465 256.161C423.424 256.358 423.461 256.562 423.566 256.732L425.363 259.505C425.474 259.673 425.646 259.791 425.841 259.834C426.037 259.878 426.242 259.844 426.413 259.74L429.478 257.81C429.565 257.754 429.639 257.68 429.697 257.594C429.755 257.508 429.796 257.411 429.816 257.31C429.836 257.208 429.836 257.103 429.816 257.001C429.795 256.899 429.754 256.803 429.696 256.717Z" fill="black"/>
<path opacity="0.1" d="M424.398 260.919L421.963 257.435C421.937 257.397 421.904 257.364 421.865 257.338C421.827 257.312 421.783 257.294 421.738 257.286C421.692 257.277 421.645 257.277 421.6 257.287C421.554 257.297 421.511 257.315 421.473 257.342L417.91 259.755C417.871 259.781 417.837 259.814 417.81 259.852C417.784 259.891 417.766 259.934 417.756 259.98C417.747 260.026 417.747 260.073 417.756 260.119C417.765 260.165 417.783 260.209 417.809 260.247L420.041 263.692C420.066 263.732 420.098 263.767 420.136 263.794C420.175 263.821 420.218 263.841 420.264 263.851C420.309 263.861 420.356 263.862 420.403 263.853C420.449 263.845 420.492 263.827 420.532 263.802L424.297 261.458C424.342 261.432 424.381 261.397 424.411 261.355C424.442 261.312 424.462 261.264 424.472 261.212C424.482 261.161 424.48 261.108 424.467 261.058C424.454 261.007 424.431 260.96 424.398 260.919Z" fill="black"/>
<path opacity="0.1" d="M419.489 264.333L417.054 260.841C417 260.766 416.918 260.715 416.827 260.699C416.735 260.683 416.641 260.703 416.564 260.755L413.009 263.161C412.931 263.215 412.877 263.297 412.858 263.39C412.839 263.484 412.857 263.581 412.908 263.661L415.141 267.106C415.193 267.183 415.273 267.238 415.364 267.258C415.455 267.279 415.551 267.263 415.631 267.215L419.396 264.872C419.443 264.847 419.483 264.812 419.515 264.77C419.546 264.727 419.567 264.678 419.576 264.625C419.585 264.573 419.582 264.52 419.567 264.469C419.552 264.418 419.525 264.372 419.489 264.333Z" fill="black"/>
<path opacity="0.1" d="M413.998 268.145L411.563 264.661C411.508 264.585 411.426 264.534 411.335 264.518C411.243 264.502 411.149 264.523 411.073 264.575L407.509 266.981C407.47 267.006 407.436 267.039 407.41 267.077C407.384 267.116 407.365 267.16 407.356 267.205C407.346 267.251 407.346 267.298 407.355 267.344C407.364 267.39 407.382 267.434 407.408 267.473L409.641 270.925C409.693 271.003 409.773 271.058 409.864 271.078C409.956 271.098 410.051 271.083 410.131 271.035L413.897 268.691C413.942 268.665 413.981 268.629 414.011 268.585C414.042 268.542 414.062 268.493 414.072 268.441C414.081 268.389 414.08 268.336 414.067 268.285C414.054 268.234 414.031 268.186 413.998 268.145Z" fill="black"/>
<path opacity="0.1" d="M408.676 271.847L406.241 268.363C406.215 268.325 406.182 268.291 406.143 268.266C406.104 268.24 406.061 268.222 406.015 268.213C405.97 268.205 405.923 268.205 405.877 268.215C405.832 268.224 405.789 268.243 405.751 268.27L402.188 270.652C402.149 270.677 402.115 270.71 402.088 270.749C402.062 270.787 402.044 270.831 402.034 270.877C402.025 270.923 402.024 270.97 402.033 271.016C402.042 271.062 402.061 271.105 402.087 271.144L404.319 274.589C404.37 274.668 404.45 274.724 404.542 274.744C404.634 274.765 404.73 274.748 404.809 274.698L408.575 272.355C408.615 272.329 408.65 272.295 408.677 272.255C408.705 272.215 408.723 272.17 408.733 272.123C408.742 272.075 408.742 272.026 408.732 271.979C408.722 271.932 408.703 271.887 408.676 271.847Z" fill="black"/>
<path opacity="0.1" d="M442.673 239.868L440.712 237.064C440.595 236.903 440.421 236.793 440.226 236.757C440.031 236.72 439.829 236.76 439.662 236.869L436.76 238.837C436.597 238.952 436.485 239.126 436.446 239.322C436.407 239.518 436.444 239.722 436.55 239.892L438.347 242.665C438.46 242.829 438.63 242.943 438.824 242.985C439.018 243.027 439.22 242.994 439.39 242.891L442.455 240.962C442.542 240.905 442.616 240.831 442.674 240.745C442.732 240.659 442.772 240.563 442.792 240.461C442.813 240.359 442.813 240.254 442.792 240.152C442.772 240.051 442.731 239.954 442.673 239.868Z" fill="black"/>
<path opacity="0.1" d="M437.126 243.727L435.165 240.915C435.048 240.752 434.873 240.64 434.676 240.604C434.478 240.568 434.275 240.609 434.107 240.72L431.213 242.688C431.049 242.802 430.935 242.975 430.895 243.171C430.854 243.368 430.89 243.572 430.996 243.742L432.793 246.515C432.904 246.683 433.075 246.801 433.271 246.844C433.467 246.888 433.672 246.854 433.843 246.75L436.908 244.813C436.994 244.756 437.067 244.683 437.124 244.597C437.182 244.512 437.222 244.416 437.242 244.315C437.262 244.214 437.262 244.11 437.242 244.009C437.223 243.908 437.183 243.812 437.126 243.727Z" fill="black"/>
<path opacity="0.1" d="M431.595 247.578L429.634 244.774C429.517 244.61 429.341 244.499 429.144 244.463C428.947 244.426 428.744 244.468 428.576 244.578L425.674 246.539C425.512 246.654 425.399 246.828 425.36 247.024C425.321 247.22 425.358 247.424 425.464 247.593L427.261 250.366C427.373 250.534 427.544 250.652 427.74 250.695C427.935 250.739 428.14 250.705 428.312 250.601L431.369 248.664C431.455 248.607 431.529 248.535 431.587 248.45C431.646 248.365 431.686 248.269 431.707 248.168C431.728 248.067 431.729 247.963 431.71 247.862C431.69 247.76 431.651 247.664 431.595 247.578Z" fill="black"/>
<path opacity="0.1" d="M426.048 251.429L424.087 248.624C423.97 248.463 423.796 248.353 423.601 248.317C423.406 248.281 423.204 248.321 423.037 248.429L420.135 250.39C419.972 250.505 419.86 250.679 419.821 250.875C419.782 251.071 419.819 251.275 419.925 251.444L421.722 254.248C421.833 254.414 422.003 254.53 422.197 254.574C422.391 254.617 422.594 254.585 422.765 254.483L425.83 252.553C425.921 252.497 425.999 252.422 426.06 252.333C426.121 252.245 426.163 252.144 426.183 252.039C426.204 251.933 426.202 251.824 426.179 251.719C426.156 251.614 426.111 251.515 426.048 251.429Z" fill="black"/>
<path opacity="0.1" d="M420.789 255.631L418.354 252.147C418.328 252.109 418.295 252.075 418.256 252.05C418.217 252.024 418.174 252.006 418.128 251.997C418.083 251.989 418.036 251.989 417.99 251.999C417.945 252.008 417.902 252.027 417.863 252.054L414.3 254.467C414.223 254.52 414.169 254.601 414.15 254.693C414.131 254.785 414.149 254.88 414.199 254.959L416.432 258.412C416.457 258.451 416.49 258.485 416.528 258.512C416.567 258.538 416.61 258.557 416.656 258.566C416.702 258.576 416.749 258.576 416.794 258.567C416.84 258.558 416.884 258.54 416.922 258.513L420.687 256.17C420.733 256.144 420.772 256.109 420.802 256.067C420.832 256.024 420.853 255.975 420.863 255.924C420.872 255.873 420.871 255.82 420.858 255.769C420.845 255.719 420.821 255.672 420.789 255.631Z" fill="black"/>
<path opacity="0.1" d="M415.849 259.045L413.414 255.553C413.358 255.477 413.275 255.426 413.182 255.41C413.089 255.394 412.994 255.414 412.916 255.467L409.361 257.873C409.283 257.927 409.228 258.009 409.209 258.102C409.191 258.196 409.209 258.293 409.26 258.373L411.492 261.818C411.543 261.897 411.623 261.953 411.715 261.973C411.807 261.993 411.903 261.977 411.982 261.927L415.748 259.584C415.793 259.558 415.832 259.522 415.862 259.48C415.892 259.437 415.913 259.389 415.923 259.338C415.932 259.286 415.931 259.234 415.918 259.183C415.905 259.132 415.882 259.085 415.849 259.045Z" fill="black"/>
<path opacity="0.1" d="M410.356 262.841L407.921 259.349C407.865 259.273 407.782 259.222 407.689 259.206C407.597 259.19 407.501 259.21 407.423 259.263L403.86 261.669C403.784 261.724 403.731 261.806 403.712 261.899C403.693 261.992 403.71 262.088 403.759 262.169L406 265.614C406.051 265.693 406.131 265.749 406.222 265.769C406.314 265.79 406.41 265.773 406.49 265.723L410.247 263.38C410.294 263.356 410.335 263.321 410.367 263.279C410.399 263.237 410.421 263.188 410.431 263.137C410.442 263.085 410.44 263.031 410.427 262.98C410.414 262.929 410.39 262.881 410.356 262.841Z" fill="black"/>
<path opacity="0.1" d="M405.036 266.559L402.601 263.075C402.574 263.036 402.54 263.003 402.501 262.977C402.461 262.951 402.417 262.933 402.371 262.925C402.325 262.916 402.277 262.916 402.231 262.926C402.185 262.936 402.141 262.955 402.103 262.981L398.54 265.395C398.463 265.449 398.411 265.53 398.394 265.622C398.376 265.714 398.395 265.809 398.446 265.887L400.679 269.332C400.703 269.373 400.735 269.408 400.773 269.436C400.811 269.464 400.854 269.484 400.9 269.494C400.946 269.504 400.994 269.505 401.04 269.496C401.086 269.487 401.13 269.468 401.169 269.441L404.927 267.098C404.973 267.074 405.014 267.039 405.046 266.997C405.078 266.955 405.1 266.907 405.11 266.855C405.121 266.803 405.12 266.749 405.107 266.698C405.094 266.647 405.069 266.599 405.036 266.559Z" fill="black"/>
<path opacity="0.1" d="M403.355 275.542L400.92 272.058C400.865 271.983 400.783 271.932 400.692 271.916C400.6 271.9 400.506 271.92 400.43 271.972L396.866 274.378C396.827 274.403 396.793 274.436 396.767 274.475C396.741 274.513 396.722 274.557 396.713 274.603C396.703 274.648 396.703 274.696 396.712 274.742C396.721 274.788 396.739 274.831 396.765 274.87L398.998 278.323C399.05 278.4 399.13 278.455 399.221 278.475C399.313 278.495 399.408 278.48 399.488 278.432L403.254 276.089C403.299 276.062 403.338 276.026 403.368 275.983C403.399 275.94 403.419 275.89 403.429 275.838C403.438 275.787 403.437 275.733 403.424 275.682C403.411 275.631 403.388 275.583 403.355 275.542Z" fill="black"/>
<path opacity="0.1" d="M398.033 279.244L395.598 275.76C395.572 275.722 395.539 275.689 395.501 275.663C395.462 275.637 395.418 275.619 395.373 275.611C395.327 275.602 395.28 275.602 395.235 275.612C395.189 275.622 395.146 275.64 395.108 275.667L391.545 278.08C391.506 278.106 391.472 278.139 391.446 278.177C391.419 278.216 391.401 278.259 391.392 278.305C391.382 278.351 391.382 278.398 391.391 278.444C391.4 278.49 391.418 278.534 391.444 278.573L393.677 282.017C393.728 282.096 393.808 282.152 393.899 282.173C393.991 282.193 394.087 282.177 394.167 282.127L397.932 279.783C397.977 279.757 398.016 279.722 398.047 279.68C398.077 279.637 398.098 279.589 398.107 279.537C398.117 279.486 398.115 279.433 398.102 279.383C398.09 279.332 398.066 279.285 398.033 279.244Z" fill="black"/>
<path opacity="0.1" d="M406.388 257.107L404.055 253.827C403.981 253.725 403.871 253.656 403.748 253.634C403.624 253.612 403.497 253.639 403.393 253.71L400.033 255.983C399.98 256.017 399.935 256.062 399.9 256.114C399.865 256.166 399.841 256.225 399.829 256.287C399.816 256.349 399.816 256.412 399.829 256.474C399.841 256.536 399.865 256.594 399.9 256.647L402.001 259.888C402.033 259.942 402.076 259.988 402.127 260.025C402.178 260.061 402.235 260.087 402.296 260.101C402.357 260.115 402.42 260.116 402.482 260.105C402.543 260.094 402.602 260.071 402.654 260.037L406.21 257.795C406.268 257.763 406.32 257.72 406.361 257.668C406.402 257.615 406.432 257.555 406.448 257.49C406.465 257.426 406.469 257.359 406.458 257.293C406.448 257.227 406.424 257.164 406.388 257.107Z" fill="black"/>
<path opacity="0.1" d="M401.068 260.81L398.773 257.529C398.738 257.477 398.693 257.433 398.64 257.398C398.588 257.364 398.529 257.34 398.468 257.329C398.407 257.317 398.343 257.318 398.282 257.331C398.221 257.344 398.163 257.369 398.111 257.404L394.751 259.716C394.699 259.75 394.654 259.794 394.619 259.846C394.584 259.897 394.56 259.955 394.547 260.016C394.535 260.078 394.535 260.141 394.547 260.202C394.559 260.263 394.584 260.321 394.618 260.372L396.719 263.622C396.787 263.727 396.894 263.801 397.016 263.829C397.138 263.856 397.266 263.835 397.372 263.77L400.928 261.528C400.988 261.494 401.04 261.447 401.08 261.39C401.12 261.334 401.148 261.269 401.161 261.201C401.174 261.133 401.173 261.063 401.157 260.995C401.141 260.928 401.11 260.865 401.068 260.81Z" fill="black"/>
<path opacity="0.1" d="M395.747 264.512L393.452 261.224C393.378 261.122 393.268 261.053 393.145 261.031C393.021 261.009 392.894 261.036 392.79 261.107L389.43 263.38C389.377 263.414 389.332 263.459 389.297 263.511C389.262 263.564 389.238 263.622 389.226 263.684C389.213 263.746 389.213 263.809 389.226 263.871C389.238 263.933 389.262 263.992 389.297 264.044L391.398 267.285C391.43 267.339 391.473 267.385 391.524 267.422C391.575 267.459 391.632 267.484 391.693 267.498C391.754 267.512 391.817 267.514 391.879 267.503C391.94 267.491 391.999 267.468 392.051 267.434L395.606 265.192C395.662 265.158 395.709 265.113 395.746 265.06C395.784 265.007 395.81 264.946 395.823 264.883C395.836 264.819 395.836 264.753 395.823 264.69C395.81 264.626 395.784 264.566 395.747 264.512Z" fill="black"/>
<path opacity="0.1" d="M390.495 268.309L388.06 264.817C388.006 264.742 387.924 264.691 387.833 264.675C387.741 264.659 387.647 264.679 387.57 264.731L384.007 267.137C383.929 267.191 383.875 267.273 383.856 267.366C383.837 267.46 383.855 267.557 383.906 267.637L386.139 271.082C386.191 271.159 386.271 271.214 386.362 271.234C386.453 271.254 386.549 271.239 386.629 271.191L390.394 268.848C390.442 268.824 390.483 268.79 390.515 268.747C390.547 268.705 390.569 268.656 390.578 268.603C390.588 268.551 390.586 268.497 390.571 268.446C390.557 268.395 390.531 268.348 390.495 268.309Z" fill="black"/>
<path opacity="0.1" d="M453.463 232.26L451.354 229.253C451.236 229.091 451.06 228.981 450.863 228.946C450.666 228.911 450.463 228.954 450.296 229.065L442.066 234.853C441.906 234.97 441.796 235.142 441.759 235.337C441.721 235.531 441.759 235.732 441.863 235.9L443.847 238.978C443.904 239.063 443.977 239.136 444.063 239.193C444.148 239.249 444.244 239.289 444.344 239.308C444.445 239.328 444.548 239.327 444.648 239.307C444.748 239.286 444.844 239.246 444.928 239.188L453.284 233.322C453.444 233.202 453.551 233.025 453.585 232.827C453.618 232.629 453.574 232.426 453.463 232.26Z" fill="black"/>
<path opacity="0.1" d="M399.698 270.144L397.116 266.481C397.089 266.442 397.055 266.408 397.015 266.382C396.976 266.357 396.931 266.339 396.885 266.331C396.838 266.323 396.791 266.325 396.745 266.336C396.699 266.347 396.656 266.367 396.618 266.395L387.733 272.644C387.658 272.696 387.605 272.776 387.588 272.867C387.57 272.957 387.589 273.051 387.64 273.128L390.067 276.901C390.093 276.942 390.127 276.977 390.167 277.004C390.207 277.031 390.251 277.05 390.299 277.06C390.346 277.069 390.394 277.069 390.442 277.059C390.489 277.049 390.533 277.03 390.573 277.002L399.605 270.652C399.684 270.597 399.738 270.512 399.756 270.417C399.773 270.322 399.753 270.224 399.698 270.144Z" fill="black"/>
<path opacity="0.1" d="M427.961 242.126L425.58 238.626C425.527 238.55 425.446 238.497 425.354 238.479C425.263 238.462 425.168 238.481 425.09 238.532L405.361 251.905C405.284 251.958 405.23 252.039 405.211 252.131C405.192 252.222 405.21 252.318 405.26 252.397L407.695 256.147C407.721 256.187 407.755 256.222 407.795 256.25C407.835 256.277 407.879 256.296 407.927 256.305C407.974 256.315 408.022 256.315 408.07 256.305C408.117 256.295 408.161 256.276 408.201 256.248L427.868 242.625C427.907 242.599 427.94 242.565 427.966 242.525C427.991 242.486 428.009 242.441 428.018 242.395C428.026 242.349 428.026 242.301 428.016 242.255C428.006 242.208 427.988 242.165 427.961 242.126Z" fill="black"/>
</g>
<path d="M461.04 242.907L459.08 240.095C458.963 239.932 458.787 239.82 458.59 239.784C458.393 239.747 458.189 239.789 458.022 239.899L455.128 241.868C454.964 241.982 454.85 242.155 454.809 242.351C454.769 242.548 454.805 242.752 454.91 242.922L456.707 245.695C456.819 245.863 456.99 245.981 457.186 246.024C457.381 246.068 457.586 246.034 457.758 245.93L460.823 243.992C460.908 243.936 460.982 243.863 461.039 243.777C461.096 243.692 461.136 243.596 461.156 243.495C461.177 243.394 461.177 243.29 461.157 243.189C461.137 243.088 461.097 242.992 461.04 242.907Z" fill="#464A5F"/>
<path d="M455.797 246.531L453.836 243.727C453.719 243.566 453.545 243.456 453.35 243.42C453.155 243.383 452.953 243.423 452.786 243.531L449.884 245.492C449.72 245.606 449.606 245.779 449.566 245.976C449.525 246.172 449.561 246.376 449.667 246.547L451.464 249.32C451.575 249.487 451.746 249.605 451.942 249.648C452.138 249.692 452.342 249.658 452.514 249.554L455.579 247.625C455.665 247.568 455.74 247.494 455.798 247.408C455.856 247.322 455.896 247.225 455.916 247.124C455.937 247.022 455.937 246.917 455.916 246.815C455.896 246.713 455.855 246.617 455.797 246.531Z" fill="#464A5F"/>
<path d="M450.351 250.343L448.391 247.539C448.273 247.375 448.098 247.264 447.901 247.228C447.703 247.191 447.5 247.233 447.333 247.343L444.439 249.312C444.274 249.426 444.16 249.599 444.12 249.795C444.079 249.992 444.115 250.196 444.221 250.366L446.018 253.139C446.13 253.305 446.302 253.421 446.498 253.464C446.693 253.506 446.898 253.471 447.068 253.366L450.133 251.436C450.22 251.38 450.294 251.306 450.352 251.22C450.41 251.134 450.45 251.037 450.471 250.935C450.491 250.834 450.491 250.729 450.47 250.627C450.45 250.525 450.409 250.429 450.351 250.343Z" fill="#464A5F"/>
<path d="M444.796 254.194L442.836 251.382C442.719 251.221 442.545 251.111 442.35 251.074C442.154 251.038 441.953 251.078 441.786 251.186L438.884 253.155C438.799 253.213 438.726 253.287 438.669 253.374C438.613 253.46 438.574 253.557 438.555 253.659C438.536 253.761 438.538 253.865 438.559 253.967C438.581 254.068 438.623 254.163 438.682 254.248L440.479 257.021C440.59 257.189 440.761 257.307 440.957 257.35C441.153 257.394 441.358 257.36 441.529 257.256L444.586 255.319C444.677 255.261 444.754 255.186 444.815 255.097C444.875 255.008 444.916 254.908 444.936 254.802C444.955 254.697 444.953 254.588 444.929 254.483C444.905 254.379 444.86 254.28 444.796 254.194Z" fill="#464A5F"/>
<path d="M439.257 258.045L437.297 255.24C437.18 255.079 437.006 254.97 436.81 254.933C436.615 254.897 436.413 254.937 436.247 255.045L433.345 257.006C433.182 257.121 433.069 257.295 433.03 257.491C432.991 257.687 433.029 257.891 433.135 258.06L434.924 260.833C435.035 261.001 435.207 261.118 435.402 261.162C435.598 261.206 435.803 261.172 435.974 261.068L439.039 259.13C439.125 259.074 439.198 259.001 439.256 258.915C439.313 258.83 439.353 258.734 439.373 258.633C439.393 258.532 439.394 258.428 439.374 258.327C439.354 258.226 439.314 258.13 439.257 258.045Z" fill="#464A5F"/>
<path d="M433.96 262.247L431.525 258.763C431.499 258.725 431.466 258.691 431.427 258.666C431.388 258.64 431.345 258.622 431.299 258.613C431.253 258.605 431.207 258.605 431.161 258.615C431.116 258.624 431.073 258.643 431.034 258.67L427.471 261.083C427.432 261.109 427.398 261.141 427.372 261.18C427.346 261.219 427.327 261.262 427.318 261.308C427.308 261.354 427.308 261.401 427.317 261.447C427.326 261.493 427.344 261.537 427.37 261.575L429.603 265.02C429.654 265.099 429.734 265.155 429.826 265.176C429.917 265.196 430.014 265.179 430.093 265.129L433.858 262.786C433.904 262.76 433.943 262.725 433.973 262.683C434.003 262.64 434.024 262.591 434.034 262.54C434.043 262.489 434.042 262.436 434.029 262.385C434.016 262.335 433.992 262.288 433.96 262.247Z" fill="#464A5F"/>
<path d="M428.421 266.098L425.985 262.614C425.959 262.575 425.925 262.542 425.886 262.516C425.846 262.49 425.802 262.472 425.756 262.464C425.71 262.455 425.662 262.456 425.616 262.465C425.57 262.475 425.526 262.494 425.488 262.52L421.932 264.934C421.893 264.959 421.859 264.992 421.833 265.031C421.807 265.07 421.788 265.113 421.779 265.159C421.769 265.205 421.769 265.252 421.778 265.298C421.787 265.344 421.805 265.387 421.831 265.426L424.064 268.879C424.089 268.918 424.122 268.952 424.16 268.979C424.199 269.005 424.242 269.024 424.288 269.033C424.333 269.043 424.38 269.043 424.426 269.034C424.472 269.025 424.515 269.006 424.554 268.98L428.319 266.637C428.364 266.61 428.402 266.575 428.431 266.532C428.461 266.49 428.481 266.441 428.49 266.39C428.5 266.339 428.499 266.287 428.487 266.237C428.475 266.186 428.452 266.139 428.421 266.098Z" fill="#464A5F"/>
<path d="M423.511 269.512L421.076 266.02C421.022 265.945 420.94 265.893 420.849 265.877C420.757 265.861 420.663 265.882 420.586 265.934L417.023 268.309C416.945 268.363 416.891 268.445 416.872 268.538C416.853 268.631 416.871 268.728 416.922 268.809L419.155 272.253C419.207 272.331 419.287 272.385 419.378 272.406C419.469 272.426 419.565 272.411 419.645 272.363L423.41 270.019C423.451 269.993 423.486 269.959 423.513 269.919C423.54 269.879 423.559 269.834 423.568 269.787C423.578 269.74 423.578 269.691 423.568 269.643C423.558 269.596 423.539 269.551 423.511 269.512Z" fill="#464A5F"/>
<path d="M418.019 273.331L415.584 269.871C415.53 269.796 415.448 269.744 415.356 269.728C415.265 269.712 415.171 269.733 415.094 269.785L411.531 272.191C411.492 272.217 411.458 272.25 411.431 272.29C411.405 272.329 411.386 272.373 411.377 272.42C411.367 272.466 411.367 272.514 411.376 272.56C411.385 272.607 411.404 272.651 411.43 272.691L413.663 276.135C413.715 276.213 413.795 276.268 413.886 276.288C413.977 276.308 414.073 276.293 414.153 276.245L417.918 273.901C417.968 273.877 418.012 273.84 418.046 273.795C418.08 273.75 418.103 273.698 418.112 273.642C418.122 273.586 418.119 273.529 418.103 273.475C418.087 273.421 418.058 273.372 418.019 273.331Z" fill="#464A5F"/>
<path d="M412.698 277.026L410.263 273.542C410.238 273.503 410.204 273.47 410.166 273.444C410.127 273.419 410.083 273.401 410.038 273.392C409.992 273.383 409.945 273.384 409.9 273.394C409.855 273.403 409.811 273.422 409.773 273.448L406.21 275.862C406.171 275.887 406.137 275.92 406.111 275.959C406.084 275.997 406.066 276.041 406.057 276.087C406.047 276.133 406.047 276.18 406.056 276.226C406.065 276.272 406.083 276.315 406.109 276.354L408.342 279.799C408.366 279.839 408.399 279.874 408.437 279.901C408.475 279.928 408.518 279.947 408.564 279.958C408.61 279.968 408.657 279.969 408.703 279.96C408.749 279.952 408.793 279.934 408.832 279.908L412.597 277.565C412.642 277.539 412.682 277.504 412.712 277.461C412.742 277.419 412.763 277.37 412.772 277.319C412.782 277.268 412.78 277.215 412.767 277.164C412.755 277.114 412.731 277.066 412.698 277.026Z" fill="#464A5F"/>
<path d="M407.377 280.728L404.942 277.237C404.887 277.161 404.805 277.11 404.714 277.094C404.622 277.078 404.528 277.099 404.452 277.151L400.888 279.557C400.81 279.611 400.756 279.693 400.737 279.786C400.718 279.879 400.736 279.976 400.787 280.057L403.02 283.501C403.072 283.579 403.152 283.634 403.243 283.654C403.335 283.674 403.43 283.659 403.51 283.611L407.276 281.267C407.321 281.242 407.36 281.206 407.39 281.164C407.42 281.121 407.441 281.073 407.451 281.021C407.46 280.97 407.459 280.917 407.446 280.867C407.433 280.816 407.409 280.769 407.377 280.728Z" fill="#464A5F"/>
<path d="M402.055 284.423L399.62 280.939C399.594 280.901 399.561 280.867 399.523 280.842C399.484 280.816 399.44 280.798 399.395 280.789C399.349 280.781 399.302 280.781 399.257 280.791C399.211 280.8 399.168 280.819 399.13 280.846L395.567 283.259C395.528 283.285 395.494 283.317 395.468 283.356C395.441 283.395 395.423 283.438 395.413 283.484C395.404 283.53 395.404 283.577 395.413 283.623C395.422 283.669 395.44 283.713 395.466 283.751L397.699 287.196C397.723 287.236 397.756 287.271 397.794 287.298C397.832 287.325 397.875 287.345 397.921 287.355C397.966 287.365 398.014 287.366 398.06 287.357C398.106 287.349 398.15 287.331 398.189 287.305L401.954 284.962C401.999 284.936 402.038 284.901 402.069 284.858C402.099 284.816 402.12 284.767 402.129 284.716C402.139 284.665 402.137 284.612 402.124 284.561C402.112 284.511 402.088 284.464 402.055 284.423Z" fill="#464A5F"/>
<path d="M457.531 237.845L455.571 235.033C455.454 234.872 455.28 234.762 455.084 234.726C454.889 234.689 454.687 234.729 454.52 234.838L451.619 236.806C451.456 236.921 451.343 237.095 451.304 237.291C451.265 237.487 451.302 237.691 451.409 237.861L453.198 240.634C453.309 240.801 453.481 240.919 453.676 240.962C453.872 241.006 454.077 240.972 454.248 240.868L457.313 238.931C457.399 238.874 457.472 238.801 457.53 238.715C457.587 238.63 457.627 238.534 457.647 238.433C457.667 238.332 457.668 238.228 457.648 238.127C457.628 238.027 457.588 237.931 457.531 237.845Z" fill="#464A5F"/>
<path d="M449.869 226.706L447.908 223.902C447.791 223.741 447.617 223.631 447.422 223.595C447.226 223.558 447.025 223.598 446.858 223.707L443.956 225.667C443.793 225.783 443.681 225.956 443.642 226.152C443.602 226.349 443.64 226.552 443.746 226.722L445.543 229.495C445.654 229.66 445.824 229.776 446.018 229.82C446.212 229.864 446.415 229.831 446.586 229.729L449.651 227.8C449.737 227.743 449.812 227.669 449.87 227.583C449.928 227.497 449.968 227.401 449.988 227.299C450.009 227.197 450.008 227.092 449.988 226.99C449.967 226.889 449.927 226.792 449.869 226.706Z" fill="#464A5F"/>
<path d="M452.311 241.446L450.351 238.626C450.234 238.465 450.06 238.355 449.865 238.319C449.669 238.283 449.468 238.323 449.301 238.431L446.399 240.391C446.236 240.507 446.124 240.68 446.084 240.877C446.045 241.073 446.083 241.277 446.189 241.446L447.986 244.219C448.097 244.384 448.267 244.501 448.461 244.544C448.655 244.588 448.858 244.555 449.028 244.453L452.094 242.524C452.264 242.409 452.383 242.232 452.423 242.03C452.464 241.828 452.424 241.618 452.311 241.446Z" fill="#464A5F"/>
<path d="M446.834 245.25L444.905 242.446C444.788 242.285 444.614 242.175 444.419 242.139C444.223 242.102 444.022 242.142 443.855 242.25L440.953 244.211C440.788 244.327 440.674 244.502 440.635 244.7C440.596 244.898 440.635 245.103 440.743 245.273L442.532 248.046C442.645 248.212 442.817 248.329 443.012 248.371C443.208 248.413 443.412 248.378 443.583 248.273L446.648 246.344C446.732 246.284 446.804 246.209 446.859 246.122C446.913 246.035 446.951 245.937 446.968 245.836C446.985 245.734 446.983 245.63 446.96 245.529C446.937 245.429 446.894 245.334 446.834 245.25Z" fill="#464A5F"/>
<path d="M441.295 249.109L439.335 246.297C439.218 246.134 439.042 246.022 438.845 245.986C438.648 245.95 438.444 245.991 438.277 246.101L435.383 248.07C435.219 248.184 435.105 248.357 435.064 248.553C435.024 248.75 435.06 248.954 435.165 249.124L436.962 251.897C437.073 252.065 437.245 252.183 437.44 252.226C437.636 252.27 437.841 252.236 438.012 252.132L441.078 250.195C441.163 250.138 441.237 250.065 441.294 249.979C441.351 249.894 441.391 249.798 441.411 249.697C441.432 249.596 441.432 249.492 441.412 249.391C441.392 249.29 441.352 249.194 441.295 249.109Z" fill="#464A5F"/>
<path d="M444.773 230.51L442.813 227.69C442.696 227.53 442.522 227.42 442.326 227.383C442.131 227.347 441.929 227.387 441.763 227.495L438.861 229.456C438.698 229.571 438.585 229.745 438.546 229.941C438.507 230.137 438.545 230.341 438.651 230.51L440.448 233.283C440.559 233.449 440.729 233.565 440.923 233.609C441.117 233.652 441.32 233.62 441.49 233.518L444.555 231.588C444.726 231.474 444.845 231.296 444.885 231.094C444.926 230.892 444.886 230.683 444.773 230.51Z" fill="#464A5F"/>
<path d="M439.296 234.322L437.336 231.51C437.219 231.349 437.045 231.239 436.849 231.203C436.654 231.167 436.452 231.207 436.286 231.315L433.384 233.283C433.22 233.397 433.106 233.57 433.065 233.767C433.024 233.963 433.061 234.167 433.166 234.338L434.963 237.111C435.074 237.278 435.246 237.396 435.441 237.44C435.637 237.483 435.842 237.449 436.013 237.345L439.078 235.408C439.164 235.351 439.237 235.278 439.295 235.193C439.352 235.107 439.392 235.011 439.412 234.91C439.432 234.81 439.433 234.706 439.413 234.605C439.393 234.504 439.353 234.408 439.296 234.322Z" fill="#464A5F"/>
<path d="M433.757 238.173L431.796 235.369C431.679 235.206 431.503 235.094 431.306 235.058C431.109 235.022 430.906 235.063 430.738 235.173L427.844 237.134C427.68 237.248 427.566 237.421 427.525 237.618C427.485 237.814 427.521 238.018 427.626 238.189L429.424 240.969C429.535 241.137 429.706 241.255 429.902 241.298C430.098 241.342 430.302 241.308 430.474 241.204L433.531 239.267C433.618 239.21 433.694 239.137 433.752 239.052C433.811 238.966 433.852 238.869 433.873 238.767C433.894 238.666 433.895 238.561 433.875 238.458C433.855 238.356 433.815 238.259 433.757 238.173Z" fill="#464A5F"/>
<path d="M435.749 252.96L433.788 250.155C433.671 249.994 433.497 249.884 433.302 249.848C433.106 249.812 432.905 249.852 432.738 249.96L429.836 251.905C429.673 252.02 429.561 252.194 429.521 252.39C429.482 252.586 429.52 252.79 429.626 252.96L431.423 255.733C431.534 255.898 431.704 256.014 431.898 256.058C432.092 256.101 432.295 256.069 432.466 255.967L435.531 254.03C435.699 253.915 435.816 253.739 435.857 253.539C435.898 253.339 435.859 253.131 435.749 252.96Z" fill="#464A5F"/>
<path d="M430.209 256.811L428.249 254.006C428.132 253.845 427.958 253.735 427.762 253.699C427.567 253.663 427.366 253.703 427.199 253.811L424.297 255.811C424.133 255.925 424.019 256.098 423.978 256.294C423.938 256.491 423.974 256.695 424.079 256.865L425.876 259.638C425.987 259.806 426.159 259.923 426.354 259.967C426.55 260.011 426.755 259.977 426.926 259.873L429.992 257.943C430.084 257.886 430.163 257.811 430.225 257.722C430.286 257.633 430.329 257.532 430.349 257.425C430.37 257.318 430.368 257.209 430.344 257.103C430.32 256.997 430.274 256.898 430.209 256.811Z" fill="#464A5F"/>
<path d="M424.912 261.013L422.477 257.529C422.451 257.49 422.418 257.457 422.379 257.431C422.34 257.406 422.297 257.388 422.251 257.379C422.206 257.371 422.159 257.371 422.113 257.381C422.068 257.39 422.025 257.409 421.987 257.435L418.455 259.849C418.416 259.874 418.382 259.907 418.355 259.946C418.329 259.984 418.311 260.028 418.301 260.074C418.292 260.12 418.292 260.167 418.301 260.213C418.31 260.259 418.328 260.302 418.354 260.341L420.586 263.786C420.611 263.826 420.643 263.861 420.681 263.888C420.72 263.915 420.763 263.934 420.808 263.945C420.854 263.955 420.901 263.956 420.947 263.947C420.994 263.939 421.037 263.921 421.077 263.895L424.842 261.552C424.884 261.523 424.919 261.485 424.946 261.441C424.972 261.398 424.989 261.349 424.996 261.298C425.002 261.247 424.998 261.196 424.984 261.147C424.969 261.097 424.945 261.052 424.912 261.013Z" fill="#464A5F"/>
<path d="M420.011 264.403L417.576 260.911C417.52 260.836 417.437 260.784 417.344 260.768C417.252 260.752 417.156 260.773 417.078 260.826L413.515 263.231C413.439 263.286 413.386 263.369 413.367 263.461C413.348 263.554 413.365 263.65 413.414 263.731L415.655 267.176C415.706 267.255 415.786 267.311 415.877 267.331C415.969 267.352 416.065 267.335 416.145 267.285L419.902 264.942C419.949 264.918 419.99 264.884 420.022 264.841C420.054 264.799 420.076 264.751 420.086 264.699C420.096 264.647 420.095 264.594 420.082 264.542C420.069 264.491 420.045 264.443 420.011 264.403Z" fill="#464A5F"/>
<path d="M414.51 268.246L412.075 264.755C412.021 264.679 411.939 264.628 411.848 264.612C411.756 264.596 411.662 264.616 411.585 264.669L408.022 267.074C407.944 267.128 407.89 267.211 407.871 267.304C407.852 267.397 407.87 267.494 407.921 267.574L410.154 271.019C410.206 271.097 410.286 271.151 410.377 271.172C410.468 271.192 410.564 271.176 410.644 271.128L414.409 268.785C414.457 268.761 414.498 268.727 414.53 268.685C414.562 268.642 414.584 268.593 414.593 268.541C414.603 268.489 414.601 268.435 414.586 268.384C414.572 268.333 414.546 268.285 414.51 268.246Z" fill="#464A5F"/>
<path d="M409.197 271.941L406.785 268.457C406.759 268.418 406.726 268.385 406.688 268.359C406.649 268.334 406.605 268.316 406.56 268.307C406.514 268.298 406.467 268.299 406.422 268.309C406.376 268.318 406.333 268.337 406.295 268.363L402.732 270.777C402.655 270.829 402.601 270.91 402.582 271.002C402.563 271.094 402.58 271.19 402.631 271.269L404.864 274.714C404.915 274.793 404.995 274.849 405.086 274.869C405.178 274.89 405.274 274.873 405.354 274.823L409.119 272.48C409.164 272.453 409.202 272.417 409.23 272.373C409.259 272.33 409.278 272.28 409.285 272.229C409.293 272.177 409.289 272.125 409.273 272.075C409.258 272.025 409.232 271.979 409.197 271.941Z" fill="#464A5F"/>
<path d="M443.186 239.97L441.233 237.158C441.116 236.994 440.94 236.883 440.743 236.847C440.546 236.81 440.343 236.852 440.175 236.962L437.273 238.931C437.111 239.046 436.998 239.22 436.959 239.416C436.92 239.612 436.957 239.816 437.063 239.985L438.86 242.758C438.973 242.924 439.145 243.041 439.34 243.083C439.536 243.125 439.74 243.09 439.911 242.985L442.968 241.055C443.054 240.999 443.127 240.925 443.184 240.84C443.242 240.755 443.282 240.659 443.302 240.558C443.322 240.457 443.322 240.353 443.302 240.252C443.282 240.151 443.243 240.055 443.186 239.97Z" fill="#464A5F"/>
<path d="M437.647 243.82L435.686 241.016C435.57 240.854 435.397 240.742 435.202 240.705C435.006 240.667 434.804 240.706 434.636 240.813L431.734 242.781C431.572 242.897 431.459 243.07 431.42 243.267C431.381 243.463 431.418 243.667 431.524 243.836L433.321 246.609C433.433 246.774 433.602 246.891 433.796 246.934C433.99 246.978 434.193 246.945 434.364 246.843L437.429 244.906C437.515 244.849 437.588 244.776 437.645 244.691C437.703 244.605 437.743 244.51 437.763 244.409C437.783 244.308 437.783 244.204 437.763 244.103C437.743 244.002 437.704 243.906 437.647 243.82Z" fill="#464A5F"/>
<path d="M432.108 247.671L430.124 244.875C430.007 244.712 429.831 244.601 429.634 244.564C429.437 244.528 429.234 244.569 429.066 244.68L426.234 246.633C426.07 246.747 425.956 246.92 425.916 247.116C425.875 247.312 425.911 247.517 426.017 247.687L427.814 250.46C427.925 250.627 428.096 250.745 428.292 250.789C428.488 250.832 428.693 250.799 428.864 250.694L431.929 248.765C432.013 248.705 432.084 248.629 432.138 248.542C432.192 248.455 432.229 248.357 432.245 248.256C432.262 248.154 432.258 248.05 432.235 247.95C432.211 247.849 432.168 247.755 432.108 247.671Z" fill="#464A5F"/>
<path d="M426.561 251.522L424.6 248.718C424.483 248.557 424.309 248.447 424.114 248.411C423.919 248.375 423.717 248.415 423.55 248.523L420.648 250.483C420.486 250.599 420.373 250.772 420.334 250.969C420.295 251.165 420.332 251.369 420.438 251.538L422.235 254.311C422.347 254.476 422.517 254.593 422.71 254.636C422.904 254.68 423.107 254.647 423.278 254.545L426.343 252.616C426.43 252.559 426.504 252.486 426.562 252.4C426.62 252.314 426.66 252.217 426.681 252.115C426.701 252.013 426.701 251.908 426.68 251.807C426.66 251.705 426.619 251.608 426.561 251.522Z" fill="#464A5F"/>
<path d="M421.272 255.725L418.837 252.241C418.81 252.202 418.776 252.168 418.737 252.143C418.697 252.117 418.653 252.099 418.607 252.09C418.561 252.082 418.513 252.082 418.467 252.092C418.421 252.102 418.377 252.12 418.339 252.147L414.776 254.561C414.698 254.613 414.644 254.694 414.625 254.786C414.606 254.878 414.624 254.974 414.674 255.053L416.907 258.505C416.933 258.545 416.967 258.579 417.006 258.606C417.045 258.632 417.089 258.651 417.135 258.66C417.181 258.67 417.229 258.67 417.275 258.661C417.322 258.652 417.366 258.633 417.405 258.607L421.163 256.264C421.208 256.239 421.248 256.204 421.279 256.162C421.31 256.119 421.332 256.071 421.342 256.02C421.352 255.968 421.351 255.915 421.339 255.864C421.327 255.813 421.304 255.766 421.272 255.725Z" fill="#464A5F"/>
<path d="M416.362 259.138L413.927 255.655C413.901 255.616 413.868 255.583 413.829 255.557C413.791 255.531 413.747 255.513 413.702 255.505C413.656 255.496 413.609 255.496 413.564 255.506C413.518 255.516 413.475 255.534 413.437 255.561L409.897 257.967C409.819 258.021 409.765 258.103 409.746 258.196C409.727 258.289 409.745 258.386 409.796 258.467L412.029 261.911C412.081 261.989 412.161 262.043 412.252 262.064C412.343 262.084 412.439 262.069 412.519 262.021L416.284 259.677C416.328 259.65 416.365 259.613 416.393 259.569C416.421 259.526 416.439 259.477 416.446 259.426C416.454 259.375 416.45 259.322 416.435 259.273C416.421 259.223 416.396 259.177 416.362 259.138Z" fill="#464A5F"/>
<path d="M410.87 262.958L408.435 259.466C408.379 259.39 408.296 259.339 408.203 259.323C408.11 259.307 408.015 259.328 407.937 259.38L404.382 261.786C404.303 261.84 404.249 261.922 404.23 262.016C404.212 262.109 404.23 262.206 404.281 262.286L406.513 265.731C406.564 265.81 406.644 265.866 406.736 265.886C406.828 265.907 406.924 265.89 407.003 265.84L410.769 263.497C410.814 263.471 410.853 263.436 410.883 263.393C410.913 263.351 410.934 263.302 410.944 263.251C410.953 263.2 410.952 263.147 410.939 263.096C410.926 263.046 410.903 262.998 410.87 262.958Z" fill="#464A5F"/>
<path d="M405.548 266.653L403.113 263.169C403.087 263.13 403.053 263.096 403.014 263.071C402.974 263.045 402.93 263.027 402.884 263.018C402.838 263.01 402.79 263.01 402.744 263.02C402.698 263.03 402.654 263.048 402.616 263.075L399.06 265.489C399.021 265.514 398.987 265.547 398.961 265.586C398.935 265.624 398.916 265.668 398.907 265.713C398.897 265.759 398.897 265.807 398.906 265.852C398.915 265.898 398.933 265.942 398.959 265.981L401.192 269.433C401.217 269.473 401.25 269.507 401.288 269.533C401.327 269.56 401.37 269.578 401.416 269.588C401.461 269.597 401.508 269.597 401.554 269.588C401.6 269.579 401.643 269.561 401.682 269.535L405.447 267.192C405.492 267.165 405.53 267.129 405.559 267.087C405.589 267.044 405.609 266.996 405.618 266.945C405.628 266.894 405.627 266.842 405.615 266.791C405.602 266.741 405.58 266.694 405.548 266.653Z" fill="#464A5F"/>
<path d="M403.876 275.643L401.441 272.152C401.385 272.076 401.302 272.024 401.209 272.008C401.117 271.992 401.021 272.013 400.943 272.066L397.38 274.472C397.302 274.526 397.248 274.608 397.229 274.701C397.21 274.794 397.228 274.891 397.279 274.971L399.512 278.416C399.564 278.494 399.644 278.548 399.735 278.569C399.826 278.589 399.922 278.574 400.002 278.526L403.767 276.182C403.814 276.158 403.855 276.124 403.887 276.082C403.919 276.04 403.941 275.991 403.951 275.939C403.961 275.887 403.96 275.834 403.947 275.783C403.934 275.731 403.91 275.684 403.876 275.643Z" fill="#464A5F"/>
<path d="M398.555 279.338L396.12 275.854C396.093 275.815 396.059 275.782 396.02 275.756C395.98 275.73 395.936 275.712 395.89 275.704C395.844 275.695 395.796 275.695 395.75 275.705C395.704 275.715 395.661 275.734 395.622 275.76L392.059 278.174C391.981 278.227 391.927 278.308 391.908 278.399C391.889 278.491 391.907 278.587 391.958 278.666L394.19 282.111C394.216 282.151 394.249 282.186 394.287 282.213C394.326 282.241 394.37 282.26 394.416 282.27C394.463 282.28 394.511 282.281 394.557 282.273C394.604 282.264 394.648 282.246 394.688 282.22L398.446 279.877C398.493 279.853 398.534 279.819 398.565 279.777C398.597 279.734 398.619 279.686 398.63 279.634C398.64 279.582 398.639 279.529 398.626 279.477C398.613 279.426 398.588 279.378 398.555 279.338Z" fill="#464A5F"/>
<path d="M406.902 257.209L404.607 253.92C404.534 253.818 404.424 253.749 404.3 253.727C404.177 253.705 404.05 253.733 403.946 253.803L400.562 256.076C400.458 256.148 400.386 256.257 400.361 256.381C400.336 256.505 400.361 256.634 400.43 256.74L402.53 259.99C402.6 260.095 402.708 260.169 402.832 260.196C402.956 260.222 403.085 260.199 403.191 260.13L406.739 257.888C406.796 257.856 406.846 257.813 406.885 257.761C406.925 257.708 406.953 257.648 406.968 257.585C406.984 257.521 406.986 257.454 406.974 257.39C406.963 257.325 406.938 257.264 406.902 257.209Z" fill="#464A5F"/>
<path d="M401.581 260.904L399.286 257.623C399.251 257.571 399.206 257.526 399.153 257.492C399.101 257.458 399.043 257.434 398.981 257.422C398.92 257.411 398.857 257.411 398.795 257.424C398.734 257.437 398.676 257.462 398.625 257.498L395.264 259.779C395.16 259.849 395.088 259.957 395.064 260.08C395.039 260.202 395.063 260.33 395.132 260.435L397.232 263.684C397.302 263.79 397.41 263.864 397.533 263.892C397.656 263.919 397.785 263.898 397.893 263.833L401.449 261.591C401.503 261.555 401.549 261.508 401.585 261.454C401.621 261.4 401.645 261.339 401.658 261.275C401.67 261.211 401.67 261.145 401.656 261.082C401.643 261.018 401.618 260.957 401.581 260.904Z" fill="#464A5F"/>
<path d="M396.259 264.606L393.926 261.317C393.854 261.216 393.745 261.147 393.623 261.125C393.501 261.103 393.375 261.13 393.272 261.2L389.904 263.473C389.8 263.545 389.727 263.654 389.703 263.778C389.678 263.902 389.703 264.031 389.771 264.137L391.872 267.387C391.942 267.493 392.05 267.567 392.174 267.593C392.298 267.619 392.427 267.596 392.533 267.527L396.088 265.286C396.146 265.254 396.197 265.211 396.237 265.159C396.277 265.107 396.306 265.047 396.322 264.983C396.338 264.92 396.341 264.853 396.33 264.788C396.319 264.723 396.295 264.661 396.259 264.606Z" fill="#464A5F"/>
<path d="M391.017 268.41L388.582 264.919C388.526 264.843 388.443 264.791 388.35 264.775C388.257 264.759 388.162 264.78 388.084 264.833L384.521 267.238C384.444 267.294 384.391 267.376 384.374 267.47C384.357 267.563 384.376 267.659 384.427 267.738L386.66 271.183C386.711 271.262 386.791 271.318 386.883 271.339C386.975 271.359 387.071 271.342 387.15 271.292L390.916 268.949C390.961 268.923 391 268.888 391.03 268.846C391.06 268.803 391.081 268.754 391.091 268.703C391.1 268.652 391.099 268.599 391.086 268.548C391.073 268.498 391.049 268.451 391.017 268.41Z" fill="#464A5F"/>
<path d="M453.984 232.377L451.907 229.362C451.788 229.2 451.612 229.09 451.415 229.055C451.218 229.02 451.015 229.063 450.849 229.174L442.571 234.963C442.412 235.079 442.302 235.252 442.265 235.446C442.227 235.64 442.264 235.842 442.369 236.009L444.361 239.087C444.418 239.172 444.491 239.245 444.576 239.302C444.662 239.359 444.757 239.398 444.858 239.418C444.958 239.437 445.062 239.437 445.162 239.416C445.262 239.396 445.357 239.355 445.442 239.298L453.789 233.432C453.95 233.314 454.059 233.139 454.095 232.943C454.132 232.747 454.092 232.545 453.984 232.377Z" fill="#464A5F"/>
<path d="M400.212 270.238L397.629 266.575C397.602 266.535 397.568 266.502 397.529 266.476C397.489 266.45 397.445 266.433 397.398 266.425C397.352 266.417 397.304 266.418 397.258 266.429C397.212 266.44 397.169 266.46 397.131 266.489L388.247 272.738C388.17 272.791 388.118 272.873 388.101 272.965C388.083 273.056 388.102 273.152 388.153 273.23L390.588 276.995C390.614 277.035 390.648 277.07 390.688 277.098C390.728 277.125 390.772 277.144 390.82 277.153C390.867 277.163 390.916 277.163 390.963 277.153C391.01 277.143 391.055 277.124 391.094 277.096L400.126 270.746C400.204 270.689 400.256 270.604 400.272 270.509C400.288 270.414 400.267 270.317 400.212 270.238Z" fill="#464A5F"/>
<path d="M428.475 242.219L426.141 238.743C426.087 238.665 426.006 238.61 425.913 238.591C425.82 238.573 425.723 238.591 425.643 238.642L405.922 251.999C405.883 252.024 405.849 252.057 405.823 252.096C405.796 252.134 405.778 252.178 405.768 252.223C405.759 252.269 405.759 252.317 405.768 252.363C405.777 252.408 405.795 252.452 405.821 252.491L408.248 256.24C408.274 256.281 408.308 256.316 408.348 256.343C408.387 256.371 408.432 256.39 408.48 256.399C408.527 256.409 408.575 256.408 408.622 256.399C408.67 256.389 408.714 256.369 408.754 256.342L428.421 242.719C428.493 242.66 428.539 242.574 428.549 242.48C428.56 242.387 428.533 242.293 428.475 242.219Z" fill="#464A5F"/>
<path opacity="0.1" d="M428.569 230.284L418.082 214.982C417.792 214.556 417.346 214.263 416.842 214.167C416.337 214.07 415.816 214.178 415.39 214.466L386.504 233.939C386.292 234.084 386.109 234.269 385.968 234.484C385.827 234.699 385.729 234.941 385.681 235.194C385.632 235.447 385.634 235.707 385.686 235.96C385.738 236.212 385.839 236.452 385.983 236.665L396.672 252.405C396.816 252.619 397.001 252.802 397.215 252.944C397.43 253.085 397.67 253.183 397.923 253.231C398.175 253.279 398.435 253.276 398.686 253.223C398.937 253.17 399.176 253.067 399.387 252.92L428.071 232.994C428.281 232.849 428.461 232.664 428.6 232.449C428.739 232.235 428.834 231.995 428.88 231.743C428.927 231.491 428.923 231.232 428.869 230.982C428.816 230.732 428.714 230.494 428.569 230.284Z" fill="black"/>
<path d="M429.051 230.377L418.564 215.075C418.272 214.652 417.827 214.36 417.323 214.264C416.82 214.167 416.298 214.274 415.872 214.56L387.025 234.049C386.811 234.192 386.628 234.376 386.485 234.591C386.342 234.806 386.243 235.047 386.194 235.301C386.145 235.554 386.146 235.815 386.198 236.068C386.25 236.321 386.351 236.561 386.496 236.775L397.154 252.499C397.298 252.713 397.483 252.896 397.697 253.037C397.912 253.179 398.152 253.277 398.405 253.325C398.657 253.373 398.917 253.37 399.168 253.317C399.42 253.263 399.658 253.161 399.869 253.014L428.568 233.088C428.777 232.942 428.956 232.756 429.093 232.541C429.231 232.325 429.325 232.085 429.369 231.833C429.414 231.581 429.409 231.323 429.354 231.073C429.3 230.824 429.196 230.587 429.051 230.377Z" fill="#939498"/>
<path d="M494.08 255.108L471.83 247.656L400.468 297.429L422.554 304.654C423.15 304.849 423.782 304.903 424.402 304.811C425.022 304.718 425.612 304.483 426.125 304.123L494.282 256.537C494.414 256.459 494.521 256.342 494.588 256.203C494.654 256.064 494.678 255.908 494.657 255.755C494.635 255.602 494.569 255.458 494.466 255.343C494.363 255.228 494.229 255.146 494.08 255.108Z" fill="white"/>
</svg>
