<svg width="72" height="72" viewBox="0 0 72 72" fill="none" xmlns="http://www.w3.org/2000/svg">
<g clip-path="url(#clip0)">
<path d="M51.097 19.7418V15.5231C51.097 7.39407 44.85 0.399508 36.73 0.0171476C28.0604 -0.391088 20.9033 6.51699 20.9033 15.0967V19.7418C20.9033 27.5571 19.6046 32.1257 18.9495 33.9333C18.7541 34.472 18.9883 35.0684 19.4942 35.3376C21.8084 36.5686 28.1133 39.7178 33.6776 40.6451H38.3227C43.887 39.7176 50.1919 36.5685 52.506 35.3376C53.012 35.0684 53.246 34.472 53.0508 33.9333C52.3956 32.1257 51.097 27.5571 51.097 19.7418Z" fill="black"/>
<path d="M20.9032 15.0967V19.7418C20.9032 27.5568 19.6047 32.1253 18.9495 33.933C18.7536 34.4734 18.9928 35.0707 19.5004 35.3404C21.6592 36.4876 27.2665 39.2896 32.5161 40.4189V17.4192L30.1935 15.0967C26.3304 11.2336 26.0688 6.35456 26.3242 3.51337C23.0126 6.28256 20.9032 10.442 20.9032 15.0967Z" fill="black"/>
<path d="M41.8062 32.5167H30.1934V47.6142H41.8062V32.5167Z" fill="#EDCFC8"/>
<path d="M52.7667 43.3946L46.5842 40.6452L38.3226 44.1291L36.9662 46.1635C36.5065 46.853 35.4935 46.853 35.0338 46.1635L33.6774 44.1291L25.5422 40.6452L19.3597 43.3946C16.7802 44.5416 15.1476 47.132 15.2258 49.9539L15.836 72H56.2904L56.9006 49.9539C56.9786 47.1318 55.3462 44.5416 52.7667 43.3946Z" fill="#F3B405"/>
<path d="M22.9935 52.258L17.1595 44.9656C15.9035 46.2844 15.1735 48.0612 15.2258 49.9539L15.836 72H22.9935V52.258Z" fill="#F3B405"/>
<path d="M49.1328 52.258L54.9668 44.9656C56.2229 46.2844 56.953 48.0612 56.9005 49.9539L56.2904 72H49.1328V52.258Z" fill="#F3B405"/>
<path d="M30.1934 35.8892C31.9702 36.7051 33.9382 37.1612 35.9998 37.1612C38.0615 37.1612 40.0295 36.7053 41.8062 35.8892V32.5161H30.1934V35.8892Z" fill="#EDCFC8"/>
<path d="M46.9992 26.8878C47.2986 25.9485 47.4675 24.9672 47.4928 23.9815C47.6642 17.2979 38.3037 18.8629 30.6136 13.8031C30.0778 13.4505 29.3637 13.5629 28.9975 14.0895C27.7824 15.8378 26.407 17.22 25.5961 17.966C25.1655 18.3622 24.6068 18.5804 24.0216 18.5804H23.186C23.1853 18.5804 23.1849 18.5808 23.1842 18.5808C23.0568 18.5832 22.9264 18.5966 22.7938 18.6223C21.6636 18.8411 20.9028 19.9225 20.9028 21.0737V21.9138C20.9028 23.0247 21.6141 24.0728 22.6959 24.3251C22.9395 24.3819 23.1765 24.3979 23.4034 24.3799C23.9808 24.3338 24.485 24.754 24.5889 25.3238C25.5762 30.7347 30.3035 34.8387 35.9997 34.8387C40.8405 34.8387 44.9723 31.8698 46.7128 27.6585C46.7967 27.4534 46.9826 26.9378 46.9992 26.8878Z" fill="#EDCFC8"/>
<path d="M29.032 23.2257V14.0466C27.808 15.815 26.4139 17.2138 25.5962 17.9661C25.1656 18.3623 24.6069 18.5805 24.0218 18.5805H23.1862C23.1855 18.5805 23.185 18.581 23.1843 18.581C23.0571 18.5833 22.927 18.5967 22.7947 18.6223C21.6645 18.8407 20.9028 19.9211 20.9028 21.0723V21.9138C20.9028 23.0246 21.614 24.0725 22.6958 24.3251C22.9394 24.3819 23.1765 24.3981 23.4034 24.3799C23.9808 24.3338 24.485 24.754 24.5889 25.3238C25.5762 30.7346 30.3035 34.8386 35.9997 34.8386C36.7893 34.8386 37.5575 34.7524 38.3024 34.6023C33.0118 33.5185 29.032 28.8369 29.032 23.2257Z" fill="#EDCFC8"/>
<path d="M61.5481 72H10.4513C9.80937 72 9.29004 71.48 9.29004 70.8387C9.29004 70.1975 9.80951 69.6774 10.4513 69.6774H61.5482C62.1902 69.6774 62.7095 70.1975 62.7095 70.8387C62.7095 71.48 62.19 72 61.5481 72Z" fill="black"/>
<path d="M27.7877 45.1237L25.5483 40.6451L28.0723 38.4893C28.5889 38.0479 29.3726 38.1426 29.7693 38.6943L33.6775 44.1291L31.2587 45.9431C30.0994 46.8125 28.4358 46.4198 27.7877 45.1237Z" fill="white"/>
<path d="M44.2126 45.1237L46.4519 40.6451L43.9279 38.4893C43.4113 38.0479 42.6276 38.1426 42.2309 38.6943L38.3228 44.1291L40.7415 45.9431C41.9008 46.8125 43.5644 46.4198 44.2126 45.1237Z" fill="white"/>
<path d="M48.9068 69.6774H23.0931C21.8633 69.6774 20.8467 68.7189 20.7745 67.4913L19.8864 52.3945C19.8079 51.0603 20.8687 49.9355 22.205 49.9355H49.7947C51.1311 49.9355 52.1918 51.0603 52.1134 52.3945L51.2253 67.4913C51.1532 68.7188 50.1366 69.6774 48.9068 69.6774Z" fill="#DBD9DC"/>
<path d="M35.9999 63.2904C37.6033 63.2904 38.9031 61.9906 38.9031 60.3872C38.9031 58.7838 37.6033 57.4839 35.9999 57.4839C34.3965 57.4839 33.0967 58.7838 33.0967 60.3872C33.0967 61.9906 34.3965 63.2904 35.9999 63.2904Z" fill="white"/>
</g>
<defs>
<clipPath id="clip0">
<rect width="72" height="72" fill="white"/>
</clipPath>
</defs>
</svg>
