<svg width="76" height="76" viewBox="0 0 76 76" fill="none" xmlns="http://www.w3.org/2000/svg">
<path d="M55.652 50.6933L49.0386 47.8065H26.9613L20.348 50.6933C17.564 51.9085 15.8135 54.7103 15.9422 57.7454L16.6164 73.6522C16.6721 74.9647 17.7522 76 19.0658 76H56.9342C58.2478 76 59.328 74.9647 59.3835 73.6522L60.0577 57.7454C60.1864 54.7103 58.4359 51.9085 55.652 50.6933Z" fill="#E4D6CE"/>
<path d="M44.129 39.226H31.8711V51.484H44.129V39.226Z" fill="#EDCFC8"/>
<path d="M31.8711 42.7863C33.7466 43.6475 35.824 44.1289 38.0001 44.1289C40.1763 44.1289 42.2537 43.6477 44.129 42.7863V39.2257H31.8711V42.7863Z" fill="#EDCFC8"/>
<path d="M37.9997 34.3231C46.1239 34.3231 52.7098 28.0117 52.7098 20.2261C52.7098 12.4404 46.1239 6.12897 37.9997 6.12897C29.8755 6.12897 23.2896 12.4404 23.2896 20.2261C23.2896 28.0117 29.8755 34.3231 37.9997 34.3231Z" fill="black"/>
<path d="M33.0965 22.0644C28.1934 17.1613 27.4604 12.9341 27.5762 10.2812C24.9279 12.8304 23.29 16.3444 23.29 20.2257C23.29 22.8842 24.061 25.367 25.3976 27.4858L33.0965 22.0644Z" fill="black"/>
<path d="M51.9762 24.5672C51.8781 24.5353 51.2733 24.5162 51.2733 24.5162C50.623 24.5162 49.9996 24.2579 49.5397 23.798L48.4818 22.7401C48.0573 22.3156 47.496 22.0603 46.8965 22.0267C44.5105 21.8931 37.8942 21.2995 32.6376 18.7201C32.0765 18.4448 31.3911 18.5949 31.0547 19.1217C29.6776 21.2776 27.974 22.9883 27.0184 23.8675C26.5639 24.2856 25.9741 24.516 25.3565 24.516H24.4745C24.4737 24.516 24.4733 24.5165 24.4726 24.5165C24.3382 24.519 24.2011 24.5331 24.0612 24.5601C22.8682 24.7906 22.0645 25.9311 22.0645 27.1462V28.0344C22.0645 29.2069 22.8152 30.3131 23.957 30.5797C24.2141 30.6396 24.4644 30.6567 24.704 30.6376C25.3134 30.5889 25.8456 31.0324 25.9553 31.6339C26.9975 37.3453 31.9873 41.6773 37.9999 41.6773C44.0125 41.6773 49.0024 37.3454 50.0446 31.6339C50.1543 31.0324 50.6864 30.5889 51.2959 30.6376C51.5355 30.6567 51.7857 30.6396 52.0428 30.5797C53.1846 30.3131 53.9354 29.2069 53.9354 28.0344V26.9174C53.9353 25.7639 53.0733 24.9235 51.9762 24.5672Z" fill="#EDCFC8"/>
<path d="M30.6452 29.4194V19.7303C29.3532 21.5969 27.8817 23.0734 27.0185 23.8675C26.564 24.2857 25.9743 24.516 25.3566 24.516H24.4746C24.4739 24.516 24.4734 24.5165 24.4727 24.5165C24.3384 24.519 24.2011 24.5331 24.0614 24.5601C22.8684 24.7907 22.0645 25.9311 22.0645 27.1462V28.0345C22.0645 29.207 22.8151 30.3131 23.957 30.5797C24.2141 30.6397 24.4644 30.6567 24.704 30.6376C25.3134 30.5889 25.8456 31.0324 25.9553 31.6339C26.9975 37.3453 31.9873 41.6773 37.9999 41.6773C38.8334 41.6773 39.6443 41.5863 40.4306 41.4278C34.8459 40.2839 30.6452 35.3422 30.6452 29.4194Z" fill="#EDCFC8"/>
<path d="M22.5272 57.6778L18.0484 52.3032C16.6559 53.7268 15.8543 55.6751 15.9421 57.7452L16.6163 73.652C16.6719 74.9645 17.7521 75.9998 19.0656 75.9998H24.516V63.171C24.516 61.1637 23.8122 59.2199 22.5272 57.6778Z" fill="#CEBEB4"/>
<path d="M53.4727 57.6778L57.9515 52.3032C59.3439 53.7268 60.1455 55.6751 60.0578 57.7452L59.3836 73.652C59.3279 74.9645 58.2477 75.9998 56.9342 75.9998H51.4839V63.171C51.4837 61.1637 52.1875 59.2199 53.4727 57.6778Z" fill="#CEBEB4"/>
<path d="M46.2216 44.9958C45.7428 44.517 44.9667 44.517 44.4881 44.9958L38.5623 50.9215C38.2518 51.232 37.7483 51.232 37.4376 50.9215L31.5119 44.9958C31.0332 44.517 30.257 44.517 29.7784 44.9958L26.9678 47.8064L31.5034 55.1686C31.898 55.809 32.7706 55.9463 33.3427 55.458L36.0612 53.1383C36.3419 52.8988 36.7743 53.0982 36.7743 53.4672V75.9998H39.2259V53.4671C39.2259 53.098 39.6583 52.8987 39.939 53.1381L42.6574 55.4579C43.2295 55.9461 44.1023 55.8087 44.4967 55.1684L49.0324 47.8063L46.2216 44.9958Z" fill="#CEBEB4"/>
<path d="M28.1936 66.1933H33.0967C33.7738 66.1933 34.3225 65.6445 34.3225 64.9675V63.7417C34.3225 63.0647 33.7738 62.5159 33.0967 62.5159H28.1936C27.5165 62.5159 26.9678 63.0647 26.9678 63.7417V64.9675C26.9678 65.6445 27.5167 66.1933 28.1936 66.1933Z" fill="#CEBEB4"/>
</svg>
