<svg width="225" height="239" viewBox="0 0 225 239" fill="none" xmlns="http://www.w3.org/2000/svg">
<path d="M83.9409 112.075C74.0669 99.284 67.6469 83.1346 67.5428 66.6123C67.4934 58.6267 69.1766 50.5013 72.5812 43.1517C75.6706 36.4819 80.2704 30.7442 84.7961 24.9682C78.7106 28.7979 73.113 33.8091 68.801 40.1307L68.2171 40.986C51.9561 64.8442 57.7429 96.7208 81.1476 112.188C82.8965 113.344 84.6947 114.375 86.5313 115.283C85.6487 114.23 84.7797 113.164 83.9409 112.075Z" fill="#F5F5F5"/>
<path d="M34.0008 214.915L34.2119 220.864L31.5995 222.52L28.9295 220.058L28.2031 213.838L34.0008 214.915Z" fill="#EDCFC8"/>
<path d="M13.1432 214.871L12.3756 219.915L9.67549 221.807L7.80322 218.813L8.28568 212.536L13.1432 214.871Z" fill="#EDCFC8"/>
<path d="M5.64834 167.051C5.68397 167.41 5.61544 167.857 5.23715 167.824C4.91916 167.796 4.67246 167.437 4.51346 167.138C4.23386 166.618 3.95151 166.094 3.6719 165.573C3.0935 166.061 3.34295 167.075 3.64723 167.928C3.95973 168.802 4.30239 169.677 4.69987 170.54C4.9082 170.993 5.13847 171.467 5.11928 171.906C5.10009 172.344 4.72453 172.714 4.24208 172.564C4.01455 172.492 3.81444 172.325 3.6253 172.163C2.7618 171.431 1.88735 170.686 1.22671 169.795C0.396112 168.679 -0.0479671 167.369 0.00411652 166.198C0.0507177 165.148 0.143917 164.106 0.489314 163.18C0.83471 162.253 1.4981 161.499 1.2322 160.4C2.16148 160.337 2.51236 160.408 3.29635 160.474C3.46631 160.488 4.05293 160.565 4.05293 160.565C4.05293 160.565 4.16807 160.976 4.2037 161.094C4.78211 163.051 5.45371 165.113 5.64834 167.051Z" fill="#EDCFC8"/>
<path d="M38.3983 222.467C43.0228 224.373 45.8407 225.118 46.2355 226.492C46.6083 227.778 44.5195 228.263 44.3084 228.405C42.2881 229.771 39.9224 229.548 39.1658 229.466C35.361 229.055 34.8785 226.662 31.4684 226.525C29.089 226.429 28.686 226.873 27.924 226.188C27.1235 225.469 26.9179 224.241 27.6855 222.681C28.0446 221.749 28.401 220.82 28.7601 219.888C29.4454 220.22 30.5473 220.658 31.9728 220.825C33.1954 220.968 33.7299 220.538 34.4372 220.411C35.1471 220.831 36.8358 221.823 38.3983 222.467Z" fill="#E6E6E6"/>
<path d="M12.5238 219.266C12.3566 223.073 11.7507 221.009 8.84503 230.952C8.64492 231.632 7.8993 232.501 7.37572 232.923C6.99743 232.983 5.54732 233.26 4.03416 232.199C2.4881 231.114 2.30443 229.411 2.24686 228.877C2.13173 227.808 2.35925 226.722 4.67012 222.89C5.36914 221.73 6.36421 220.14 7.65808 218.281C7.75951 218.588 8.04459 219.29 8.79295 219.855C9.15205 220.126 9.66467 220.557 10.8242 220.455C11.674 220.381 12.2798 219.444 12.5238 219.266Z" fill="#E6E6E6"/>
<path d="M8.35942 152.955L7.60283 190.503C7.60283 190.657 6.96961 216.061 7.12312 216.064L13.3677 216.201C13.5102 216.203 13.6336 216.099 13.6555 215.959L20.9664 166.919C20.9746 166.873 21.5092 166.883 21.5146 166.93L26.7559 216.231C26.7751 216.371 28.5624 216.606 28.7049 216.609L34.1709 216.661C34.2806 216.664 34.3711 216.576 34.3711 216.469L33.9681 154.89C33.9681 154.885 33.28 154.558 33.2773 154.553C32.6468 153.119 33.4555 153.648 33.3595 153.632L21.3556 152.058C21.331 152.058 21.309 152.055 21.2844 152.055L8.55405 152.409C9.53541 152.447 8.35942 152.804 8.35942 152.955Z" fill="#444053"/>
<path d="M66.8988 128.252C66.4822 127.531 65.8133 127.482 65.4241 126.747C60.8434 128.134 56.6685 128.792 52.0824 130.16C50.8352 130.533 49.5303 130.908 48.2474 130.684C46.7836 130.429 44.3412 128.926 43.2145 127.975C40.3718 125.576 39.6153 125.648 36.7726 123.249C35.3636 122.062 33.6421 120.269 31.2874 119.768C30.0511 119.504 28.3214 119.238 27.0522 119.068C25.6815 118.885 25.3827 119.258 23.9847 119.748C21.4984 120.623 18.6804 120.617 16.216 119.661C15.5801 119.414 14.9468 119.104 14.2615 119.082C13.5077 119.06 12.9403 119.296 12.6853 119.397C7.72915 121.379 8.45832 121.492 7.68255 122.04C5.54987 123.542 4.30534 126.064 3.62003 129.335C1.48186 139.549 0.733502 143.661 0.733502 143.661C0.522427 154.073 -0.735805 160.789 0.714312 160.82C1.36673 160.833 4.52738 161.195 4.63977 160.592C5.73627 154.794 8.53782 139.25 8.58168 137.107C8.59264 136.517 8.89966 136.227 9.0285 137.395C9.0285 137.395 8.20338 145.956 8.12937 149.632C8.12114 150.073 7.77301 154.586 7.77301 154.586C10.7144 154.646 11.4874 154.679 13.2555 154.695C20.5061 154.767 33.6448 156.277 34.0889 154.841C34.2397 154.353 34.0286 145.61 34.0341 145.251C34.1438 138.39 33.9765 136.989 33.9765 133.176C33.9765 132.756 36.4217 134.182 36.7808 134.409C39.5769 136.177 45.4733 139.023 47.9377 138.669C50.6872 138.277 53.2721 137.186 55.8215 136.106C60.1225 134.286 63.6203 132.257 67.9213 130.437C67.4032 129.609 67.3731 129.074 66.8988 128.252Z" fill="#F2B306"/>
<path d="M184.032 217.36L183.673 224.31L186.724 226.152L189.917 223.188L190.89 215.905L184.032 217.36Z" fill="#EDCFC8"/>
<path d="M204.55 216.889L205.364 222.936L208.86 225.239L211.455 221.681L211.069 214.161L204.55 216.889Z" fill="#EDCFC8"/>
<path d="M182.774 153.486L182.821 184.239L182.59 219.825L192.083 219.789L196.461 171.996L199.191 171.294L203.692 219.076L213.174 218.739L213.276 154.501L182.774 153.486Z" fill="#F2B306"/>
<path d="M196.137 115.442L196.639 108.498L201.938 108.64L201.951 115.56L196.137 115.442Z" fill="#EDCFC8"/>
<path d="M199.21 109.709C202.329 109.937 207.527 106.614 207.891 102.072L208.599 96.7729C208.963 92.2305 205.378 88.3624 200.945 88.0389C196.515 87.7154 192.628 91.1339 192.264 95.6764L191.847 100.896C191.482 105.438 195.989 109.474 199.21 109.709Z" fill="#EDCFC8"/>
<path d="M203.648 84.264C203.149 84.1873 202.593 84.19 202.165 84.434C202.004 84.5272 201.806 84.5409 201.653 84.4367C200.383 83.5759 199.155 82.6631 197.475 82.463C195.666 82.2491 192.848 83.099 191.894 85.4236C191.68 85.9418 191.477 86.4571 191.08 86.8574C190.704 87.2329 190.29 87.041 189.819 87.2905C188.717 87.8717 187.258 89.3794 186.951 90.5692C186.477 92.3949 187.56 94.9636 189.468 95.7257C191.653 96.6002 194.432 95.2048 195.795 93.3901C195.962 93.168 196.272 93.1214 196.491 93.2914C197.423 94.0014 198.933 93.8205 200.063 93.2831C201.749 92.4799 203.218 91.0763 205.309 91.5424C206.187 91.7398 206.971 92.2497 207.497 92.9651C208.44 94.2481 208.267 95.6462 208.193 97.0991C208.166 97.6693 208.994 97.7954 209.147 97.2444C209.632 95.5037 210.013 93.9082 210.309 91.8686C210.471 90.7638 210.12 89.3877 209.271 88.3734C208.311 87.2302 207.108 87.0986 206.085 86.0185C205.356 85.2454 204.953 84.4614 203.648 84.264Z" fill="#2D2D2D"/>
<path d="M130.345 127.232L127.976 127.846C95.3802 136.314 61.9837 117.163 53.3817 85.0673C44.7797 52.9713 64.2315 20.0885 96.8276 11.6177L99.1961 11.0036C131.792 2.53554 165.189 21.6868 173.791 53.7827C182.393 85.8787 162.941 118.761 130.345 127.232Z" stroke="#E6E6E6" stroke-width="16.7233" stroke-miterlimit="10"/>
<path d="M195.66 111.324C196.4 111.664 197.974 112.138 199.619 112.218C201.228 112.295 202.382 112.322 203.146 112.062L202.968 113.413L199.78 114.745L196.271 113.095C196.173 112.503 195.764 111.914 195.66 111.324Z" fill="#E6E6E6"/>
<path d="M219.219 124.455C215.425 115.562 213.895 112.884 203.489 111.977C202.629 111.927 203.813 112.815 199.534 113.695C195.808 112.349 196.165 111.653 195.965 111.423C195.575 110.976 192.873 111.522 192.412 111.535C185.603 111.744 184.194 113.525 183.591 114.142C179.493 118.326 173.289 127.92 170.288 138.173C169.72 140.111 169.361 141.712 169.029 143.184C171.688 144.552 174.783 144.813 177.541 145.978C177.82 143.154 182.154 133.647 184.136 128.112L182.752 140.522C182.464 145.336 182.686 153.508 182.45 157.418L212.793 158.152C212.969 153.98 212.599 135.906 212.053 129.535L214.23 138.804C214.8 140.059 216.066 144.772 216.011 145.676C213.676 148.56 212.623 150.962 211.949 151.85C212.061 151.938 210.699 153.528 209.624 155.249C207.889 158.023 209.35 156.162 205.584 162.026L208.446 164.94C215.543 158.056 214.463 160.68 219.115 155.216C220.241 153.895 223.882 149.007 224.071 148.407C224.397 147.376 223.909 135.445 219.219 124.455Z" fill="#E4D6CE"/>
<path d="M223.61 182.139L154.87 105.652C149.802 108.725 145.125 112.401 139.917 115.244L210.296 193.557C212.341 195.832 215.899 196.052 218.24 194.042L223.073 189.9C225.416 187.891 225.655 184.415 223.61 182.139Z" fill="#E6E6E6"/>
<path d="M199.734 167.023C199.433 167.33 199.142 167.816 199.446 168.114C199.707 168.369 200.165 168.246 200.513 168.106C201.121 167.862 201.733 167.615 202.341 167.371C202.399 168.342 201.434 169.079 200.554 169.617C199.649 170.168 198.726 170.691 197.766 171.155C197.264 171.399 196.73 171.642 196.406 172.076C196.086 172.506 196.08 173.189 196.557 173.471C196.779 173.603 197.059 173.622 197.325 173.638C198.528 173.709 199.756 173.778 200.932 173.52C202.407 173.2 203.742 172.355 204.603 171.204C205.373 170.17 206.102 169.107 206.554 167.925C207.007 166.746 207.092 165.447 208.133 164.644C207.489 163.761 207.171 163.52 206.538 162.892C206.401 162.755 205.905 162.311 205.905 162.311C205.905 162.311 205.502 162.599 205.387 162.675C203.449 164.013 201.365 165.365 199.734 167.023Z" fill="#EDCFC8"/>
<path d="M168.05 148.733C168.028 148.119 168.744 147.612 169.352 147.88C169.961 148.149 170.273 148.508 170.739 148.949C171.754 146.866 172.519 145.073 174.076 143.283C174.281 143.047 175.071 142.617 175.4 142.589C175.616 142.573 175.824 142.658 176.005 142.765C176.789 143.223 177.557 143.927 177.686 144.766C177.815 145.605 177.483 146.756 177.346 147.598C177.148 148.804 176.811 149.849 176.614 151.055C176.436 152.138 176.077 153.423 174.928 153.763C173.963 154.048 173.042 153.95 172.222 153.418C171.208 152.76 169.843 151.556 169.01 150.712C168.766 150.463 168.064 149.133 168.05 148.733Z" fill="#EDCFC8"/>
<path d="M179.207 226.064C174.026 228.219 170.882 229.039 170.411 230.67C169.966 232.199 172.277 232.833 172.505 233.008C174.717 234.697 177.349 234.491 178.19 234.414C182.425 234.022 183.015 231.174 186.803 231.1C189.448 231.051 189.887 231.588 190.748 230.79C191.652 229.951 191.907 228.488 191.093 226.601C190.718 225.478 190.342 224.356 189.967 223.232C189.196 223.613 187.965 224.104 186.376 224.269C185.013 224.408 184.429 223.877 183.648 223.709C182.856 224.192 180.956 225.335 179.207 226.064Z" fill="#E6E6E6"/>
<path d="M205.354 222.635C205.518 227.153 206.291 224.713 209.781 236.539C210.019 237.348 210.935 238.389 211.579 238.897C212.048 238.973 213.838 239.321 215.721 238.082C217.645 236.816 217.892 234.801 217.969 234.168C218.122 232.901 217.851 231.613 215.036 227.037C214.183 225.653 212.969 223.756 211.39 221.535C211.261 221.897 210.899 222.728 209.97 223.386C209.523 223.701 208.884 224.206 207.451 224.068C206.392 223.97 205.652 222.851 205.354 222.635Z" fill="#E6E6E6"/>
<path d="M20.6864 116.031C23.7922 115.935 28.5811 112.078 28.4605 107.503L28.5976 102.138C28.477 97.5624 24.5241 94.0727 20.1107 94.207C15.6973 94.3413 12.2159 98.16 12.3365 102.735L12.4763 107.991C12.597 112.566 17.4764 116.13 20.6864 116.031Z" fill="#EDCFC8"/>
<path d="M14.6782 119.321C16.7369 120.365 19.0121 121.114 21.3531 121.177C23.6969 121.24 25.6816 120.571 27.3784 119.079C26.408 118.852 25.8707 118.619 24.9003 118.391C24.5768 118.315 24.2863 118.15 23.9656 118.079C22.5017 117.755 22.8362 117.454 22.8087 116.116C22.795 115.348 22.6278 114.559 22.2276 113.887C22.1454 113.747 18.9847 113.673 18.6667 113.767C17.7566 114.033 17.9266 114.367 17.784 115.209C17.4798 116.985 16.5752 118.602 14.6782 119.321Z" fill="#EDCFC8"/>
<path d="M30.6403 100.304C30.6266 99.7144 30.6102 99.114 30.4073 98.5658C30.2017 98.0093 29.8179 97.546 29.4424 97.0991C28.1595 95.5694 26.3119 92.6581 24.5164 91.8823C23.4829 91.4354 19.5547 91.8001 18.4363 91.7589C12.2932 91.5369 11.5393 94.1878 9.62047 100.328C8.86663 102.744 6.38855 107.215 6.78603 109.718C7.09579 111.68 7.73724 113.723 9.22574 114.948C9.78769 115.409 10.4456 115.735 10.9692 116.245C11.4023 116.667 11.723 117.199 12.0054 117.744C13.6282 120.867 9.76576 124.762 9.05852 128.244C8.25534 132.189 10.3688 135.489 9.28331 139.36C7.99218 143.966 8.48835 149.092 10.6347 153.322C11.6106 153.27 12.1918 152.097 12.2192 151.069C12.2466 150.04 11.9286 149.021 12.0437 148.001C12.359 145.183 15.7362 143.458 15.7965 140.621C15.8075 140.073 15.6868 139.527 15.7307 138.982C15.8349 137.677 16.8217 136.671 17.444 135.536C18.8201 133.022 18.3815 129.894 17.899 127.043C17.6414 125.519 17.37 123.954 16.5969 122.638C16.1583 121.895 15.5662 121.242 15.2674 120.425C15.0262 119.768 16.0679 118.655 15.9911 117.953C15.7389 115.639 14.5163 113.805 13.3294 111.839C12.9895 111.275 12.5481 110.735 12.5399 110.066C12.5344 109.559 12.6304 109.062 12.8442 108.607C13.8612 106.425 14.2696 107.333 15.2894 105.153C15.5991 104.49 17.8086 100.381 18.2773 99.8295C20.2126 97.5569 21.9698 98.5466 24.7439 99.4238C25.2483 99.5828 25.7828 99.7637 26.12 100.191C26.4709 100.638 27.2521 102.859 27.4906 103.382C27.7977 104.062 28.5186 108.75 28.6694 108.454C28.9956 107.785 30.676 101.781 30.6403 100.304Z" fill="#FFF4E4"/>
<path d="M20.9913 125.08L21.0982 125.083C21.1749 125.086 21.2352 125.025 21.238 124.949L21.2462 124.518C21.2489 124.442 21.1886 124.381 21.1119 124.379L21.005 124.376C20.9282 124.373 20.8679 124.433 20.8652 124.51L20.8569 124.94C20.8569 125.017 20.9172 125.078 20.9913 125.08Z" fill="#444053"/>
<path d="M20.942 127.542L21.0489 127.545C21.1256 127.548 21.1859 127.487 21.1887 127.41L21.1969 126.98C21.1996 126.903 21.1393 126.843 21.0626 126.84L20.9557 126.838C20.8789 126.835 20.8186 126.895 20.8158 126.972L20.8076 127.402C20.8076 127.479 20.8679 127.542 20.942 127.542Z" fill="#444053"/>
<path d="M73.5567 125.305C73.8364 125.113 74.1077 124.812 73.8309 124.628C73.5951 124.474 73.1757 124.554 72.855 124.644C72.293 124.801 71.7311 124.96 71.1719 125.116C71.1308 124.518 72.0216 124.052 72.8358 123.712C73.6719 123.364 74.5244 123.03 75.4071 122.734C75.8704 122.577 76.361 122.421 76.6626 122.153C76.9641 121.884 76.9723 121.462 76.542 121.292C76.3391 121.212 76.0842 121.204 75.8402 121.196C74.7382 121.166 73.6143 121.135 72.5343 121.305C71.1801 121.519 69.9465 122.054 69.1433 122.772C68.4251 123.416 67.7453 124.082 67.3177 124.814C66.89 125.546 66.7996 126.766 65.8374 127.273C66.4185 127.811 65.8758 127.778 66.4487 128.159C66.5721 128.241 67.06 128.748 67.06 128.748C67.06 128.748 68.2223 128.088 68.3292 128.038C70.1192 127.199 72.0408 126.344 73.5567 125.305Z" fill="#EDCFC8"/>
</svg>
