<svg width="16" height="16" viewBox="0 0 16 16" fill="none" xmlns="http://www.w3.org/2000/svg">
<g clip-path="url(#clip0)">
<path d="M15.6753 12.0188L10.017 1.60204C9.58989 0.883099 8.83564 0.453724 7.99939 0.453724C7.16314 0.453724 6.40889 0.883099 5.98183 1.60204C5.97861 1.60754 5.97589 1.61304 5.97267 1.61854L0.33317 12.0024C-0.103049 12.7365 -0.111299 13.6181 0.310701 14.3604C0.73367 15.1032 1.49567 15.5463 2.35026 15.5463H13.6173C14.4719 15.5463 15.2652 15.1032 15.6881 14.3604C16.1101 13.6181 16.1019 12.7364 15.6753 12.0188ZM7.06095 5.22338C7.06095 4.70507 7.48111 4.28494 7.99939 4.28494C8.5177 4.28494 8.93783 4.7051 8.93783 5.22338V8.97716C8.93783 9.49541 8.51767 9.9156 7.99939 9.9156C7.48111 9.9156 7.06095 9.49538 7.06095 8.97716V5.22338ZM7.99939 13.6694C7.22317 13.6694 6.5917 13.038 6.5917 12.2617C6.5917 11.4855 7.22314 10.8541 7.99939 10.8541C8.77561 10.8541 9.40705 11.4855 9.40705 12.2617C9.40708 13.0379 8.77564 13.6694 7.99939 13.6694Z" fill="#DC2323"/>
</g>
<defs>
<clipPath id="clip0">
<rect width="16" height="16" fill="white"/>
</clipPath>
</defs>
</svg>
