<svg width="15" height="15" viewBox="0 0 15 15" fill="none" xmlns="http://www.w3.org/2000/svg">
<path fill-rule="evenodd" clip-rule="evenodd" d="M4.5 0C4.08579 0 3.75 0.335786 3.75 0.75V1.42859H1.63715C0.732977 1.42859 0 2.16156 0 3.06574V13.3629C0 14.267 0.732976 15 1.63715 15H13.3629C14.267 15 15 14.267 15 13.3629V3.06574C15 2.16156 14.267 1.42859 13.3629 1.42859H11.25V0.75C11.25 0.335786 10.9142 0 10.5 0C10.0858 0 9.75001 0.335786 9.75001 0.75V1.42859H5.25V0.75C5.25 0.335786 4.91421 0 4.5 0ZM13.5 4.99999H1.5V3H13.5V4.99999Z" fill="#121212"/>
<path fill-rule="evenodd" clip-rule="evenodd" d="M4.61007 9.45104C4.35193 9.70917 4.36705 10.1219 4.64383 10.3729L6.39814 11.9639C6.42506 11.9883 6.45347 12.0103 6.48306 12.0299C6.77949 12.2612 7.21316 12.2432 7.47632 11.9801L10.7759 8.68054C11.0269 8.42947 11.0122 8.02803 10.743 7.78388C10.4738 7.53974 10.0521 7.54535 9.80101 7.79642L6.93195 10.6655L5.57861 9.43815C5.30183 9.18714 4.8682 9.19291 4.61007 9.45104Z" fill="white"/>
</svg>
