<svg width="10" height="10" viewBox="0 0 10 10" fill="none" xmlns="http://www.w3.org/2000/svg">
<g clip-path="url(#clip0)">
<path d="M5 0C2.24289 0 0 2.24289 0 4.99999C0 7.7571 2.24289 9.99999 5 9.99999C7.75711 9.99999 10 7.7571 10 4.99999C10 2.24289 7.75711 0 5 0ZM6.84128 6.25205C7.00417 6.41501 7.00417 6.6783 6.84128 6.84127C6.76003 6.92252 6.65337 6.96334 6.54663 6.96334C6.43997 6.96334 6.33331 6.92252 6.25206 6.84127L5 5.58913L3.74794 6.84127C3.66669 6.92252 3.56003 6.96334 3.45337 6.96334C3.34663 6.96334 3.23997 6.92252 3.15872 6.84127C2.99583 6.6783 2.99583 6.41501 3.15872 6.25205L4.41086 4.99999L3.15872 3.74793C2.99583 3.58497 2.99583 3.32168 3.15872 3.15872C3.32169 2.99583 3.58498 2.99583 3.74794 3.15872L5 4.41085L6.25206 3.15872C6.41502 2.99583 6.67831 2.99583 6.84128 3.15872C7.00417 3.32168 7.00417 3.58497 6.84128 3.74793L5.58914 4.99999L6.84128 6.25205Z" fill="#121212"/>
</g>
<defs>
<clipPath id="clip0">
<rect width="10" height="9.99999" fill="white"/>
</clipPath>
</defs>
</svg>
