<svg width="20" height="20" viewBox="0 0 20 20" fill="none" xmlns="http://www.w3.org/2000/svg">
<circle cx="10" cy="10" r="10" fill="white"/>
<path d="M10 0C4.48578 0 0 4.48578 0 10C0 15.5142 4.48578 20 10 20C15.5142 20 20 15.5142 20 10C20 4.48578 15.5142 0 10 0ZM15.0684 7.88086L9.65164 13.2974C9.48914 13.4599 9.27582 13.5417 9.0625 13.5417C8.84918 13.5417 8.63586 13.4599 8.47336 13.2974L5.76508 10.5891C5.43915 10.2634 5.43915 9.73663 5.76508 9.41086C6.09085 9.08493 6.61743 9.08493 6.94336 9.41086L9.0625 11.53L13.8901 6.70258C14.2159 6.37665 14.7424 6.37665 15.0684 6.70258C15.3941 7.02835 15.3941 7.55493 15.0684 7.88086Z" fill="#F3B405"/>
</svg>
