<svg width="16" height="16" viewBox="0 0 16 16" fill="none" xmlns="http://www.w3.org/2000/svg">
<path d="M4.72139 6.97413C4.33891 6.57572 3.70588 6.5628 3.30747 6.94528C2.90906 7.32775 2.89614 7.96079 3.27861 8.3592L4.72139 6.97413ZM7.2 11L6.47861 11.6925C6.67806 11.9003 6.9574 12.012 7.24511 11.999C7.53282 11.986 7.80096 11.8496 7.98087 11.6247L7.2 11ZM12.7809 5.6247C13.1259 5.19343 13.056 4.56414 12.6247 4.21913C12.1934 3.87412 11.5641 3.94404 11.2191 4.3753L12.7809 5.6247ZM3.27861 8.3592L6.47861 11.6925L7.92139 10.3075L4.72139 6.97413L3.27861 8.3592ZM7.98087 11.6247L12.7809 5.6247L11.2191 4.3753L6.41913 10.3753L7.98087 11.6247Z" fill="#121212"/>
</svg>
