<svg width="15" height="15" viewBox="0 0 15 15" fill="none" xmlns="http://www.w3.org/2000/svg">
<path d="M4.47139 6.49497C4.08891 6.09656 3.45588 6.08364 3.05747 6.46611C2.65906 6.84859 2.64614 7.48162 3.02861 7.88003L4.47139 6.49497ZM6.75 10.3125L6.02861 11.005C6.22806 11.2128 6.5074 11.3245 6.79511 11.3115C7.08282 11.2985 7.35096 11.1621 7.53087 10.9372L6.75 10.3125ZM12.0309 5.3122C12.3759 4.88093 12.306 4.25164 11.8747 3.90663C11.4434 3.56162 10.8141 3.63154 10.4691 4.0628L12.0309 5.3122ZM3.02861 7.88003L6.02861 11.005L7.47139 9.61997L4.47139 6.49497L3.02861 7.88003ZM7.53087 10.9372L12.0309 5.3122L10.4691 4.0628L5.96913 9.68781L7.53087 10.9372Z" fill="#F3B405"/>
</svg>
