<svg width="10" height="10" viewBox="0 0 10 10" fill="none" xmlns="http://www.w3.org/2000/svg">
<g clip-path="url(#clip0)">
<g clip-path="url(#clip1)">
<path d="M5.42917 1.27916L0.85 0.583325C0.6375 0.549992 0.420833 0.608325 0.258333 0.745825C0.0958333 0.887491 0 1.09166 0 1.30416V10.0833C0 10.3125 0.1875 10.5 0.416667 10.5H1.77083V8.31248C1.77083 7.90831 2.09583 7.58331 2.5 7.58331H3.54167C3.94583 7.58331 4.27083 7.90831 4.27083 8.31248V10.5H6.04167V1.99999C6.04167 1.64166 5.78333 1.33749 5.42917 1.27916ZM2.29167 6.64582H1.66667C1.49417 6.64582 1.35417 6.50582 1.35417 6.33332C1.35417 6.16082 1.49417 6.02082 1.66667 6.02082H2.29167C2.46417 6.02082 2.60417 6.16082 2.60417 6.33332C2.60417 6.50582 2.46417 6.64582 2.29167 6.64582ZM2.29167 5.39582H1.66667C1.49417 5.39582 1.35417 5.25582 1.35417 5.08332C1.35417 4.91082 1.49417 4.77082 1.66667 4.77082H2.29167C2.46417 4.77082 2.60417 4.91082 2.60417 5.08332C2.60417 5.25582 2.46417 5.39582 2.29167 5.39582ZM2.29167 4.14582H1.66667C1.49417 4.14582 1.35417 4.00582 1.35417 3.83332C1.35417 3.66082 1.49417 3.52082 1.66667 3.52082H2.29167C2.46417 3.52082 2.60417 3.66082 2.60417 3.83332C2.60417 4.00582 2.46417 4.14582 2.29167 4.14582ZM2.29167 2.89582H1.66667C1.49417 2.89582 1.35417 2.75582 1.35417 2.58332C1.35417 2.41082 1.49417 2.27082 1.66667 2.27082H2.29167C2.46417 2.27082 2.60417 2.41082 2.60417 2.58332C2.60417 2.75582 2.46417 2.89582 2.29167 2.89582ZM4.375 6.64582H3.75C3.5775 6.64582 3.4375 6.50582 3.4375 6.33332C3.4375 6.16082 3.5775 6.02082 3.75 6.02082H4.375C4.5475 6.02082 4.6875 6.16082 4.6875 6.33332C4.6875 6.50582 4.5475 6.64582 4.375 6.64582ZM4.375 5.39582H3.75C3.5775 5.39582 3.4375 5.25582 3.4375 5.08332C3.4375 4.91082 3.5775 4.77082 3.75 4.77082H4.375C4.5475 4.77082 4.6875 4.91082 4.6875 5.08332C4.6875 5.25582 4.5475 5.39582 4.375 5.39582ZM4.375 4.14582H3.75C3.5775 4.14582 3.4375 4.00582 3.4375 3.83332C3.4375 3.66082 3.5775 3.52082 3.75 3.52082H4.375C4.5475 3.52082 4.6875 3.66082 4.6875 3.83332C4.6875 4.00582 4.5475 4.14582 4.375 4.14582ZM4.375 2.89582H3.75C3.5775 2.89582 3.4375 2.75582 3.4375 2.58332C3.4375 2.41082 3.5775 2.27082 3.75 2.27082H4.375C4.5475 2.27082 4.6875 2.41082 4.6875 2.58332C4.6875 2.75582 4.5475 2.89582 4.375 2.89582Z" fill="#121212"/>
<path d="M9.42492 5.01746L6.45825 4.39621V10.5H9.27075C9.67284 10.5 9.99992 10.1729 9.99992 9.77079V5.72996C9.99992 5.38579 9.76534 5.09288 9.42492 5.01746ZM8.43742 9.24996H7.81242C7.63992 9.24996 7.49992 9.10996 7.49992 8.93746C7.49992 8.76496 7.63992 8.62496 7.81242 8.62496H8.43742C8.60992 8.62496 8.74992 8.76496 8.74992 8.93746C8.74992 9.10996 8.60992 9.24996 8.43742 9.24996ZM8.43742 7.99996H7.81242C7.63992 7.99996 7.49992 7.85996 7.49992 7.68746C7.49992 7.51496 7.63992 7.37496 7.81242 7.37496H8.43742C8.60992 7.37496 8.74992 7.51496 8.74992 7.68746C8.74992 7.85996 8.60992 7.99996 8.43742 7.99996ZM8.43742 6.74996H7.81242C7.63992 6.74996 7.49992 6.60996 7.49992 6.43746C7.49992 6.26496 7.63992 6.12496 7.81242 6.12496H8.43742C8.60992 6.12496 8.74992 6.26496 8.74992 6.43746C8.74992 6.60996 8.60992 6.74996 8.43742 6.74996Z" fill="#121212"/>
</g>
</g>
<defs>
<clipPath id="clip0">
<rect width="10" height="10" fill="white"/>
</clipPath>
<clipPath id="clip1">
<rect width="10" height="10" fill="white" transform="translate(0 0.5)"/>
</clipPath>
</defs>
</svg>
