<svg width="10" height="11" viewBox="0 0 10 11" fill="none" xmlns="http://www.w3.org/2000/svg">
<g clip-path="url(#clip0)">
<path d="M0.576901 9.7257C0.258287 9.41983 0.258287 8.92392 0.576901 8.61805L8.26892 1.23372C8.58753 0.927848 9.1041 0.927848 9.42272 1.23372C9.74133 1.53959 9.74133 2.0355 9.42272 2.34137L1.7307 9.7257C1.41209 10.0316 0.895515 10.0316 0.576901 9.7257Z" fill="#F3B405"/>
<path d="M0.577389 2.34142C0.258775 2.03555 0.258776 1.53964 0.577389 1.23377C0.896003 0.927903 1.41258 0.927904 1.73119 1.23377L9.42321 8.61811C9.74182 8.92398 9.74182 9.41989 9.42321 9.72576C9.10459 10.0316 8.58802 10.0316 8.2694 9.72576L0.577389 2.34142Z" fill="#F3B405"/>
</g>
<defs>
<clipPath id="clip0">
<rect width="10" height="9.6" fill="white" transform="translate(0 0.679932)"/>
</clipPath>
</defs>
</svg>
