<svg width="15" height="15" viewBox="0 0 15 15" fill="none" xmlns="http://www.w3.org/2000/svg">
<path d="M2.19229 12.8075C1.80995 12.4252 1.80995 11.8053 2.19229 11.4229L11.4228 2.1924C11.8052 1.81006 12.4251 1.81006 12.8074 2.1924V2.1924C13.1897 2.57474 13.1897 3.19464 12.8074 3.57698L3.57687 12.8075C3.19453 13.1899 2.57463 13.1899 2.19229 12.8075V12.8075Z" fill="#121212"/>
<path d="M2.19269 3.57706C1.81034 3.19471 1.81035 2.57482 2.19269 2.19247V2.19247C2.57503 1.81013 3.19492 1.81013 3.57727 2.19247L12.8078 11.423C13.1901 11.8054 13.1901 12.4253 12.8078 12.8076V12.8076C12.4255 13.1899 11.8056 13.1899 11.4232 12.8076L2.19269 3.57706Z" fill="#121212"/>
</svg>
