<svg width="20" height="20" viewBox="0 0 20 20" fill="none" xmlns="http://www.w3.org/2000/svg">
<path d="M9.99995 0C4.48601 0 0 4.48591 0 9.99995C0 15.514 4.48601 20 9.99995 20C15.5139 20 19.9999 15.514 19.9999 9.99995C19.9999 4.48591 15.514 0 9.99995 0Z" fill="#121212"/>
<path fill-rule="evenodd" clip-rule="evenodd" d="M6.14463 10.0379C5.80046 10.382 5.81347 10.9259 6.17369 11.2526L8.54469 13.4028C8.575 13.4303 8.6068 13.4554 8.63984 13.478C9.00577 13.8075 9.58384 13.7924 9.93257 13.4437L14.3509 9.02535C14.6938 8.6824 14.6809 8.1405 14.3219 7.81497C13.963 7.48945 13.394 7.50357 13.0511 7.84652L9.24048 11.6571L7.42007 10.0062C7.05984 9.67951 6.48881 9.6937 6.14463 10.0379Z" fill="white"/>
</svg>
