<svg width="20" height="20" viewBox="0 0 20 20" fill="none" xmlns="http://www.w3.org/2000/svg">
<path d="M19.375 20H18.4375C18.0923 20 17.8125 19.7202 17.8125 19.375C17.8125 19.0298 18.0923 18.75 18.4375 18.75H19.375C19.7202 18.75 20 19.0298 20 19.375C20 19.7202 19.7202 20 19.375 20Z" fill="#121212"/>
<path d="M1.5625 20H0.625C0.279844 20 0 19.7202 0 19.375C0 19.0298 0.279844 18.75 0.625 18.75H1.5625C1.90766 18.75 2.1875 19.0298 2.1875 19.375C2.1875 19.7202 1.90766 20 1.5625 20Z" fill="#121212"/>
<path d="M16.25 20H3.75C3.40484 20 3.125 19.7202 3.125 19.375C3.125 19.0298 3.40484 18.75 3.75 18.75H16.25C16.5952 18.75 16.875 19.0298 16.875 19.375C16.875 19.7202 16.5952 20 16.25 20Z" fill="#121212"/>
<g clip-path="url(#clip0)">
<path d="M8.73678 1.0819C8.72483 1.15555 8.71931 1.23009 8.72028 1.30466V14.0033L8.59149 13.7264C8.46339 13.4557 8.28904 13.2095 8.07633 12.9987L4.51532 9.43773C4.06761 8.96874 3.3474 8.88993 2.80886 9.25099C2.23499 9.6712 2.11038 10.4771 2.5306 11.051C2.56457 11.0973 2.60159 11.1414 2.64144 11.1828L9.08089 17.6223C9.58357 18.1255 10.399 18.126 10.9022 17.6233C10.9026 17.623 10.9029 17.6226 10.9033 17.6223L17.3427 11.1828C17.8449 10.6792 17.8438 9.86374 17.3402 9.36146C17.3005 9.32194 17.2584 9.28504 17.2139 9.25099C16.6754 8.88993 15.9552 8.96874 15.5075 9.43773L11.94 12.9923C11.7508 13.1813 11.5922 13.3985 11.4699 13.6363L11.2961 14.0226L11.2961 1.37554C11.3205 0.717627 10.8609 0.140409 10.2142 0.0168114C9.51213 -0.0970459 8.85068 0.379797 8.73678 1.0819Z" fill="#121212"/>
</g>
<defs>
<clipPath id="clip0">
<rect width="18" height="18" fill="white" transform="translate(1 18) rotate(-90)"/>
</clipPath>
</defs>
</svg>
