<svg width="60" height="60" fill="none" xmlns="http://www.w3.org/2000/svg"><path d="M48.75 60h-37.5C5.036 60 0 54.964 0 48.75v-37.5C0 5.036 5.036 0 11.25 0h37.5C54.964 0 60 5.036 60 11.25v37.5C60 54.964 54.964 60 48.75 60z" fill="#FDF0CD"/><path d="M21.25 22.5a3.75 3.75 0 100-7.5 3.75 3.75 0 000 7.5zM22.813 23.75h-3.125A4.693 4.693 0 0015 28.439v5.166c0 .834.463 1.584 1.21 1.957l1.117.559a.31.31 0 01.172.28v6.414A2.19 2.19 0 0019.688 45h3.125a2.19 2.19 0 002.188-2.188v-6.414a.31.31 0 01.173-.28l1.117-.559a2.176 2.176 0 001.21-1.957v-5.166a4.692 4.692 0 00-4.688-4.685zM42.812 35H41.25v-.937a2.19 2.19 0 00-2.188-2.188h-3.126c-1.205 0-2.186.98-2.186 2.188v.938h-1.562A2.19 2.19 0 0030 37.189v1.562h6.563v-.313a.938.938 0 011.874 0v.313H45v-1.562A2.19 2.19 0 0042.812 35zm-7.187 0v-.937c0-.172.14-.313.313-.313h3.126c.17 0 .311.14.311.313v.938h-3.75zM38.438 40.626v.313a.938.938 0 01-1.876 0v-.313H30v2.188c0 1.205.98 2.186 2.188 2.186h10.626C44.019 45 45 44.02 45 42.812v-2.188h-6.563v.002z" fill="#F3B405"/></svg>