<svg width="20" height="20" viewBox="0 0 20 20" fill="none" xmlns="http://www.w3.org/2000/svg">
<path d="M9.84546 7.36842L12.7273 10.1958C12.7273 10.1511 12.7273 10.0974 12.7273 10.0526C12.7273 9.34073 12.4399 8.65799 11.9285 8.15461C11.417 7.65122 10.7233 7.36842 10 7.36842C9.94545 7.36842 9.9 7.36842 9.84546 7.36842ZM5.93636 8.08421L7.34545 9.47105C7.3 9.65895 7.27273 9.84684 7.27273 10.0526C7.27273 10.7645 7.56006 11.4473 8.07153 11.9507C8.58299 12.454 9.27668 12.7368 10 12.7368C10.2 12.7368 10.4 12.71 10.5909 12.6653L12 14.0521C11.3909 14.3474 10.7182 14.5263 10 14.5263C8.79447 14.5263 7.63832 14.055 6.78588 13.216C5.93344 12.377 5.45455 11.2391 5.45455 10.0526C5.45455 9.34579 5.63636 8.68368 5.93636 8.08421ZM1.49555 2.55912C1.17318 2.8764 1.17318 3.39623 1.49555 3.71352L2.98182 5.17632L3.39091 5.57895C1.89091 6.74211 0.709091 8.26316 0 10.0526C1.57273 13.9805 5.45455 16.7632 10 16.7632C11.4091 16.7632 12.7545 16.4947 13.9818 16.0116L14.3727 16.3874L16.4592 18.4409C16.7744 18.7511 17.2802 18.7511 17.5954 18.4409C17.9177 18.1236 17.9177 17.6038 17.5954 17.2865L2.63172 2.55912C2.31653 2.2489 1.81075 2.2489 1.49555 2.55912ZM10 5.5C11.2055 5.5 12.3617 6.05028 13.2141 6.88926C14.0666 7.72824 14.5455 8.86614 14.5455 10.0526C14.5455 10.6253 14.4273 11.18 14.2182 11.6811L16.8818 14.3026C18.2455 13.1842 19.3364 11.7168 20 10.0526C18.4273 6.12474 14.5455 3.26316 10 3.26316C8.72727 3.26316 7.50909 3.48684 6.36364 3.88947L8.33636 5.81316C8.85455 5.61632 9.40909 5.5 10 5.5Z" fill="#121212"/>
</svg>
