<svg width="20" height="20" viewBox="0 0 20 20" fill="none" xmlns="http://www.w3.org/2000/svg">
<path d="M9.99923 7.28003C8.49468 7.28003 7.27197 8.49948 7.27197 10C7.27197 11.5006 8.49468 12.72 9.99923 12.72C11.5038 12.72 12.7265 11.5006 12.7265 10C12.7265 8.49948 11.5037 7.28003 9.99923 7.28003Z" fill="#121212"/>
<path d="M10 3.19995C5.45454 3.19995 1.57274 6.01966 0 9.99995C1.57274 13.9802 5.45454 16.7999 10 16.7999C14.55 16.7999 18.4273 13.9802 20 9.99995C18.4273 6.01966 14.55 3.19995 10 3.19995ZM10 14.5333C7.49091 14.5333 5.45454 12.5023 5.45454 9.99991C5.45454 7.49751 7.49091 5.4666 10 5.4666C12.5091 5.4666 14.5455 7.49755 14.5455 9.99995C14.5455 12.5024 12.5091 14.5333 10 14.5333Z" fill="#121212"/>
<path d="M10 7.2C9.27668 7.2 8.58299 7.495 8.07153 8.0201C7.56006 8.5452 7.27273 9.25739 7.27273 10C7.27273 10.7426 7.56006 11.4548 8.07153 11.9799C8.58299 12.505 9.27668 12.8 10 12.8C10.7233 12.8 11.417 12.505 11.9285 11.9799C12.4399 11.4548 12.7273 10.7426 12.7273 10C12.7273 9.25739 12.4399 8.5452 11.9285 8.0201C11.417 7.495 10.7233 7.2 10 7.2ZM10 14.6667C8.79447 14.6667 7.63832 14.175 6.78588 13.2998C5.93344 12.4247 5.45455 11.2377 5.45455 10C5.45455 8.76232 5.93344 7.57534 6.78588 6.70017C7.63832 5.825 8.79447 5.33333 10 5.33333C11.2055 5.33333 12.3617 5.825 13.2141 6.70017C14.0666 7.57534 14.5455 8.76232 14.5455 10C14.5455 11.2377 14.0666 12.4247 13.2141 13.2998C12.3617 14.175 11.2055 14.6667 10 14.6667ZM10 3C5.45455 3 1.57273 5.90267 0 10C1.57273 14.0973 5.45455 17 10 17C14.5455 17 18.4273 14.0973 20 10C18.4273 5.90267 14.5455 3 10 3Z" fill="#121212"/>
</svg>
