<svg width="21" height="20" viewBox="0 0 21 20" fill="none" xmlns="http://www.w3.org/2000/svg">
<g clip-path="url(#clip0)">
<path d="M20.4097 7.50115C20.1695 6.73361 19.5136 6.23766 18.7388 6.23766H13.7427L12.1694 1.25872C11.9276 0.493336 11.2731 0 10.5005 0C10.4981 0 10.4955 -2.23605e-08 10.4931 4.06786e-05C9.71741 0.00321535 9.06317 0.502657 8.82636 1.27243L7.29891 6.23766H2.2612C1.48451 6.23766 0.828118 6.73527 0.58901 7.50534C0.349863 8.2754 0.602094 9.07941 1.23162 9.55357L5.30766 12.6238L3.73874 17.589C3.49592 18.3574 3.74393 19.1625 4.37056 19.6401C4.68529 19.88 5.04653 20 5.408 20C5.76619 20 6.12458 19.8821 6.43774 19.6462L10.5209 16.5707L14.5555 19.641C15.1814 20.1174 15.992 20.1197 16.6205 19.647C17.249 19.1743 17.5022 18.3719 17.2657 17.6027L15.7339 12.6238L19.7753 9.54832C20.401 9.0722 20.6501 8.26864 20.4097 7.50115ZM19.0843 8.56222L14.36 12.1574L16.1498 17.9755C16.2703 18.367 16.0157 18.596 15.9348 18.6569C15.8539 18.7177 15.5651 18.8974 15.2464 18.6548L10.5243 15.0614L5.75131 18.6566C5.43101 18.8979 5.14296 18.7161 5.06227 18.6546C4.98161 18.5931 4.72802 18.3621 4.85167 17.9708L6.68865 12.1574L1.91801 8.56401C1.59751 8.32257 1.67304 7.98036 1.70382 7.88125C1.7346 7.78214 1.86575 7.45869 2.2612 7.45869H8.15376L9.94219 1.64517C10.0628 1.25326 10.3979 1.22148 10.4978 1.22103H10.4998C10.6021 1.22103 10.9338 1.25233 11.0566 1.64061L12.895 7.45869H18.7389C19.1334 7.45869 19.2649 7.78104 19.2959 7.87987C19.3268 7.97869 19.4029 8.31984 19.0843 8.56222Z" fill="#F3B405"/>
</g>
<defs>
<clipPath id="clip0">
<rect width="20" height="20" fill="white" transform="translate(0.5)"/>
</clipPath>
</defs>
</svg>
