<svg width="20" height="20" viewBox="0 0 20 20" fill="none" xmlns="http://www.w3.org/2000/svg">
<path d="M19.9097 7.50115C19.6695 6.73361 19.0136 6.23766 18.2388 6.23766H13.2427L11.6694 1.25872C11.4276 0.493336 10.7731 0 10.0005 0C9.99809 0 9.99555 -2.23605e-08 9.99309 4.06786e-05C9.21741 0.00321535 8.56317 0.502657 8.32636 1.27243L6.79891 6.23766H1.7612C0.984513 6.23766 0.328118 6.73527 0.08901 7.50534C-0.150137 8.2754 0.102094 9.07941 0.731618 9.55357L4.80766 12.6238L3.23874 17.589C2.99592 18.3574 3.24393 19.1625 3.87056 19.6401C4.18529 19.88 4.54653 20 4.908 20C5.26619 20 5.62458 19.8821 5.93774 19.6462L10.0209 16.5707L14.0555 19.641C14.6814 20.1174 15.492 20.1197 16.1205 19.647C16.749 19.1743 17.0022 18.3719 16.7657 17.6027L15.2339 12.6238L19.2753 9.54832C19.901 9.0722 20.1501 8.26864 19.9097 7.50115ZM18.5843 8.56222L13.86 12.1574L15.6498 17.9755C15.7703 18.367 15.5157 18.596 15.4348 18.6569C15.3539 18.7177 15.0651 18.8974 14.7464 18.6548L10.0243 15.0614L5.25131 18.6566C4.93101 18.8979 4.64296 18.7161 4.56227 18.6546C4.48161 18.5931 4.22802 18.3621 4.35167 17.9708L6.18865 12.1574L1.41801 8.56401C1.09751 8.32257 1.17304 7.98036 1.20382 7.88125C1.2346 7.78214 1.36575 7.45869 1.7612 7.45869H7.65376L9.44219 1.64517C9.56276 1.25326 9.89791 1.22148 9.99778 1.22103H9.99981C10.1021 1.22103 10.4338 1.25233 10.5566 1.64061L12.395 7.45869H18.2389C18.6334 7.45869 18.7649 7.78104 18.7959 7.87987C18.8268 7.97869 18.9029 8.31984 18.5843 8.56222Z" fill="#121212"/>
</svg>
