<svg width="15" height="15" viewBox="0 0 15 15" fill="none" xmlns="http://www.w3.org/2000/svg">
<path d="M14.9323 5.62586C14.7521 5.0502 14.2602 4.67825 13.6791 4.67825H9.93203L8.75206 0.944038C8.57067 0.370002 8.07978 0 7.5004 0C7.49856 0 7.49665 -1.67697e-08 7.49481 3.05089e-05C6.91305 0.00241151 6.42237 0.376993 6.24476 0.954325L5.09918 4.67825H1.3209C0.738384 4.67825 0.246088 5.05146 0.0667574 5.629C-0.112603 6.20655 0.0765706 6.80955 0.548712 7.16518L3.60574 9.46786L2.42905 13.1917C2.24694 13.768 2.43295 14.3719 2.90292 14.7301C3.13896 14.91 3.40989 15 3.681 15C3.94964 15 4.21843 14.9116 4.4533 14.7346L7.51563 12.428L10.5416 14.7308C11.011 15.088 11.619 15.0897 12.0904 14.7353C12.5618 14.3808 12.7517 13.7789 12.5742 13.202L11.4254 9.46786L14.4565 7.16124C14.9258 6.80415 15.1125 6.20148 14.9323 5.62586Z" fill="#F3B405"/>
</svg>
