<svg width="20" height="20" viewBox="0 0 20 20" fill="none" xmlns="http://www.w3.org/2000/svg">
<path d="M18.5111 16.9934C18.5111 16.9934 16.2912 13.1783 15.8931 12.494C16.3461 12.3558 16.8287 12.2338 17.0292 11.8875C17.3634 11.3106 16.7685 10.3642 16.9247 9.74586C17.0856 9.10945 18.0355 8.55875 18.0355 7.91185C18.0355 7.28159 17.0535 6.54529 16.8925 5.9126C16.7352 5.29435 17.3283 4.34694 16.993 3.77073C16.6577 3.19447 15.541 3.24181 15.0814 2.79948C14.6084 2.34429 14.6099 1.23057 14.0394 0.925521C13.4666 0.619338 12.5356 1.23814 11.8997 1.09156C11.2709 0.946654 10.7092 0 10.0525 0C9.38598 0 8.32594 1.07383 8.15968 1.11247C7.52402 1.26024 6.59191 0.642957 6.0197 0.950438C5.44976 1.25651 5.45327 2.37034 4.98116 2.82629C4.52224 3.26943 3.40549 3.22414 3.07126 3.80105C2.73708 4.37785 3.33193 5.32402 3.17579 5.94271C3.01921 6.56297 2.03629 7.19144 2.03629 7.90877C2.03629 8.55572 2.98851 9.10469 3.15039 9.74078C3.30772 10.359 2.71465 11.3063 3.04991 11.8828C3.23243 12.1965 3.64655 12.3253 4.06013 12.4491C4.10839 12.4636 4.19968 12.5176 4.13785 12.6077C3.85491 13.096 1.57758 17.0264 1.57758 17.0264C1.39641 17.339 1.54353 17.607 1.90441 17.6221L3.67087 17.6958C4.03175 17.711 4.48446 17.9732 4.67709 18.2788L5.61969 19.7745C5.81232 20.08 6.11796 20.0743 6.29907 19.7618C6.29907 19.7618 8.93646 15.2084 8.93755 15.2071C8.99046 15.1453 9.04364 15.158 9.0691 15.1796C9.35766 15.4253 9.75994 15.6704 10.0957 15.6704C10.425 15.6704 10.7298 15.4397 11.0314 15.1824C11.056 15.1614 11.1157 15.1186 11.1594 15.2075C11.1601 15.2089 13.7945 19.7374 13.7945 19.7374C13.9761 20.0496 14.2818 20.0549 14.4739 19.7489L15.4138 18.2514C15.6059 17.9457 16.0581 17.6824 16.419 17.6667L18.1853 17.5897C18.546 17.5739 18.6927 17.3055 18.5111 16.9934ZM12.9718 12.8976C11.0187 14.0338 8.67433 13.9121 6.88371 12.7826C4.25994 11.102 3.39663 7.62539 4.97392 4.90304C6.56921 2.14928 10.076 1.1776 12.8546 2.6909C12.8692 2.69884 12.8836 2.70706 12.8981 2.71517C12.9187 2.72657 12.9392 2.73814 12.9597 2.74981C13.8169 3.24403 14.5602 3.9613 15.0925 4.87618C16.7192 7.67241 15.7679 11.2708 12.9718 12.8976Z" fill="#121212"/>
<path d="M12.5251 3.57274C12.517 3.56804 12.5088 3.56366 12.5007 3.55902C11.0164 2.69997 9.12462 2.63717 7.53912 3.55961C5.1863 4.92844 4.38568 7.95616 5.75451 10.3089C6.17219 11.0269 6.74456 11.6 7.40492 12.0114C7.46108 12.0469 7.51788 12.0819 7.57593 12.1155C9.93129 13.4801 12.9574 12.674 14.3219 10.3187C15.6863 7.96335 14.8805 4.9373 12.5251 3.57274ZM13.1143 7.42319L12.2896 8.22705C12.0342 8.476 11.8745 8.96741 11.9349 9.31899L12.1296 10.4541C12.1899 10.8056 11.981 10.9575 11.6652 10.7915L10.6458 10.2555C10.3301 10.0896 9.81341 10.0896 9.49766 10.2555L8.47831 10.7915C8.16257 10.9575 7.95356 10.8056 8.01388 10.4541L8.20856 9.31899C8.26888 8.96741 8.10922 8.476 7.85379 8.22705L7.02912 7.42319C6.77364 7.17425 6.85352 6.92855 7.20651 6.8772L8.34617 6.7116C8.69916 6.6603 9.11716 6.35661 9.27504 6.03675L9.78471 5.00405C9.94259 4.68419 10.2009 4.68419 10.3588 5.00405L10.8685 6.03675C11.0264 6.35661 11.4443 6.6603 11.7974 6.7116L12.937 6.8772C13.2899 6.92855 13.3698 7.17425 13.1143 7.42319Z" fill="#121212"/>
</svg>
