<svg width="16" height="16" viewBox="0 0 16 16" fill="none" xmlns="http://www.w3.org/2000/svg">
<path d="M8.02821 14.4891H15.3754C15.7203 14.4891 16 13.851 16 13.5172C16 13.1835 15.7203 12.984 15.3754 12.984H8.02814C7.75913 12.1115 6.92294 11.4731 5.93306 11.4731C4.94487 11.4731 4.10716 12.1103 3.83791 12.984L0.624534 12.984C0.279613 12.984 0 13.4327 0 13.7665C0 14.1003 0.279613 14.4891 0.624534 14.4891L3.83798 14.4891C4.10699 15.3617 4.94318 16 5.93306 16C6.92125 16 7.75896 15.3628 8.02821 14.4891ZM14.9724 8.74148H15.3754C15.7203 8.74148 16 8.3338 16 8.00002C16 7.66624 15.7204 7.25235 15.3755 7.25235H14.9724C14.7034 6.37978 13.8672 5.74145 12.8773 5.74145C11.8891 5.74145 11.0514 6.3786 10.7822 7.25235L0.624603 7.25235C0.279684 7.25235 7.05719e-05 7.66624 7.05719e-05 8.00002C7.05719e-05 8.3338 0.279613 8.74148 0.624534 8.74148L10.7822 8.74148C11.0512 9.61406 11.8874 10.2524 12.8773 10.2524C13.8655 10.2524 14.7032 9.61524 14.9724 8.74148ZM5.21781 2.99511L15.3754 2.99511C15.7203 2.99511 15.9999 2.61953 15.9999 2.28575C15.9999 1.95197 15.7204 1.51091 15.3755 1.51091L5.21781 1.51091C4.94881 0.638331 4.11261 0 3.12273 0C2.13455 0 1.29683 0.637153 1.02759 1.51091H0.624603C0.279684 1.51091 7.05719e-05 1.95197 7.05719e-05 2.28575C7.05719e-05 2.61953 0.279613 2.99511 0.624534 2.99511H1.02758C1.29659 3.86768 2.13279 4.50601 3.12266 4.50601C4.11085 4.50601 4.94856 3.86886 5.21781 2.99511Z" fill="#121212"/>
</svg>
