<svg width="20" height="20" viewBox="0 0 20 20" fill="none" xmlns="http://www.w3.org/2000/svg">
<path d="M10.7862 10.9661C10.3712 10.9661 10.0337 10.6286 10.0337 10.2137V5.0452C10.0337 4.63026 10.3712 4.29272 10.7862 4.29272C11.2011 4.29272 11.5386 4.63026 11.5386 5.0452V9.46075H13.8232C14.2381 9.46075 14.5757 9.79829 14.5757 10.2132C14.5757 10.6282 14.2381 10.9657 13.8232 10.9657H10.7862V10.9661Z" fill="#121212"/>
<path d="M10.7952 19.4224C6.97823 19.4224 3.51124 17.0265 2.16796 13.458C2.02177 13.071 2.2187 12.635 2.60698 12.4888C2.69298 12.4562 2.78198 12.4411 2.87185 12.4411C3.18402 12.4411 3.46739 12.6376 3.57703 12.9291C4.70059 15.9124 7.60086 17.9187 10.7944 17.9179C11.7184 17.9179 12.6291 17.7515 13.5007 17.4242C15.4266 16.6993 16.9539 15.2674 17.8032 13.3931C18.6524 11.5196 18.7203 9.42647 17.9954 7.50012C17.2704 5.57421 15.8394 4.04603 13.9651 3.19724C12.9529 2.73887 11.8853 2.50668 10.7905 2.50668C9.8656 2.50668 8.95102 2.67437 8.07255 3.00503C5.89466 3.82502 4.20524 5.6314 3.47856 7.81573L3.73699 7.52893C3.87931 7.37113 4.08313 7.2804 4.29597 7.2804C4.48216 7.2804 4.66103 7.34877 4.79949 7.47346C4.94955 7.60805 5.03684 7.79209 5.04759 7.99332C5.05791 8.19369 4.98997 8.38676 4.85538 8.53639L2.84648 10.7672L2.82154 10.7822C2.78628 10.8123 2.75318 10.8342 2.72308 10.8519L2.699 10.8704L2.6345 10.903C2.53388 10.9469 2.43283 10.9667 2.3305 10.9667L2.27288 10.9637C2.21999 10.9594 2.17828 10.9486 2.14689 10.9366C2.10131 10.9258 2.04198 10.9073 1.98092 10.8742L1.95168 10.8592L1.89019 10.8162C1.84418 10.7818 1.80634 10.7474 1.7728 10.7104L1.74571 10.6872L1.69627 10.618L0.118211 8.1408C0.010284 7.97096 -0.025405 7.76973 0.0180238 7.57322C0.0623125 7.37715 0.179269 7.20945 0.349544 7.10152C0.469941 7.02456 0.609257 6.98457 0.752873 6.98457C1.01259 6.98457 1.24908 7.11485 1.38839 7.33286L1.84633 8.05223C2.56441 5.1296 4.70876 2.66233 7.54195 1.59553C8.59112 1.2008 9.68458 1 10.7914 1C12.1011 1 13.3782 1.27777 14.586 1.82558C16.8267 2.83992 18.5376 4.6665 19.4049 6.96866C20.2713 9.27081 20.1892 11.7725 19.1748 14.0131C18.1601 16.2538 16.3335 17.9643 14.0309 18.8312C12.9886 19.2233 11.9003 19.4224 10.7952 19.4224Z" fill="#121212"/>
</svg>
