<svg width="21" height="20" viewBox="0 0 21 20" fill="none" xmlns="http://www.w3.org/2000/svg">
<path d="M19.7552 12H11.3861C11.2081 12 11.0642 12.1434 11.0642 12.32V19.68C11.0642 19.8566 11.2081 20 11.3861 20C16.6657 20 20.0771 16.9856 20.0771 12.32C20.0771 12.1434 19.9332 12 19.7552 12Z" fill="#121212"/>
<path d="M9.39527 18.6667C9.56518 18.6667 9.59088 18.6597 9.63494 18.6517C9.65431 18.648 9.68001 18.644 9.75345 18.6387C9.92803 18.6257 10.0629 18.4807 10.0629 18.306V11H18.3514C18.5216 11 18.6645 10.8723 18.6832 10.7033C18.7213 10.3587 18.742 9.68633 18.742 9.33333C18.742 4.187 14.549 0 9.39527 0C4.24157 0 0.048584 4.187 0.048584 9.33333C0.048584 14.4797 4.24157 18.6667 9.39527 18.6667Z" fill="#121212"/>
<path d="M9.29735 10.719C9.42099 10.719 9.54505 10.6716 9.63935 10.5775L14.4102 5.81348C14.5993 5.6246 14.5993 5.31807 14.4102 5.12919C14.2214 4.94069 13.9156 4.94069 13.7268 5.12919L9.29735 9.55235L7.20453 7.46252C7.01576 7.27402 6.70999 7.27402 6.52122 7.46252C6.33207 7.6514 6.33207 7.95793 6.52122 8.14681L8.95536 10.5775C9.04966 10.6716 9.17372 10.719 9.29735 10.719Z" fill="white" stroke="white" stroke-width="0.3"/>
</svg>
