<svg width="21" height="20" viewBox="0 0 21 20" fill="none" xmlns="http://www.w3.org/2000/svg">
<g clip-path="url(#clip0)">
<path d="M18.0008 2.60224H16.7435V1.6124C16.7435 1.32587 16.5087 1.09143 16.2218 1.09143C15.9348 1.09143 15.7 1.32587 15.7 1.6124V2.60224H10.5872V1.6124C10.5872 1.32587 10.3525 1.09143 10.0655 1.09143C9.77857 1.09143 9.5438 1.32587 9.5438 1.6124V2.60224H4.37882V1.6124C4.37882 1.32587 4.14405 1.09143 3.8571 1.09143C3.57016 1.09143 3.33539 1.32587 3.33539 1.6124V2.60224H2.13023C0.982454 2.60224 0.048584 3.56603 0.048584 4.71217V16.8247C0.048584 17.976 0.977237 18.9086 2.13023 18.9086H17.9956C19.1486 18.9086 20.0772 17.976 20.0772 16.8299V4.71217C20.0824 3.56603 19.1486 2.60224 18.0008 2.60224ZM5.03096 15.2097H4.11796C3.83102 15.2097 3.59625 14.9753 3.59625 14.6887C3.59625 14.4022 3.83102 14.1678 4.11796 14.1678H5.03618C5.32312 14.1678 5.55268 14.4022 5.55268 14.6887C5.55268 14.9753 5.31791 15.2097 5.03096 15.2097ZM5.03096 11.6671H4.11796C3.83102 11.6671 3.59625 11.4327 3.59625 11.1461C3.59625 10.8596 3.83102 10.6252 4.11796 10.6252H5.03618C5.32312 10.6252 5.55268 10.8596 5.55268 11.1461C5.55268 11.4327 5.31791 11.6671 5.03096 11.6671ZM8.6934 15.2097H7.7804C7.49346 15.2097 7.25869 14.9753 7.25869 14.6887C7.25869 14.4022 7.49346 14.1678 7.7804 14.1678H8.6934C8.98034 14.1678 9.21512 14.4022 9.21512 14.6887C9.21512 14.9753 8.98034 15.2097 8.6934 15.2097ZM8.6934 11.6671H7.7804C7.49346 11.6671 7.25869 11.4327 7.25869 11.1461C7.25869 10.8596 7.49346 10.6252 7.7804 10.6252H8.6934C8.98034 10.6252 9.21512 10.8596 9.21512 11.1461C9.21512 11.4327 8.98034 11.6671 8.6934 11.6671ZM8.6934 8.07242H7.7804C7.49346 8.07242 7.25869 7.83798 7.25869 7.55145C7.25869 7.26491 7.49346 7.03048 7.7804 7.03048H8.6934C8.98034 7.03048 9.21512 7.26491 9.21512 7.55145C9.21512 7.83798 8.98034 8.07242 8.6934 8.07242ZM12.3245 15.2097H11.4115C11.1246 15.2097 10.8898 14.9753 10.8898 14.6887C10.8898 14.4022 11.1246 14.1678 11.4115 14.1678H12.3245C12.6167 14.1678 12.8463 14.4022 12.8463 14.6887C12.8463 14.9753 12.6115 15.2097 12.3245 15.2097ZM12.3245 11.6671H11.4115C11.1246 11.6671 10.8898 11.4327 10.8898 11.1461C10.8898 10.8596 11.1246 10.6252 11.4115 10.6252H12.3245C12.6167 10.6252 12.8463 10.8596 12.8463 11.1461C12.8463 11.4327 12.6115 11.6671 12.3245 11.6671ZM12.3245 8.07242H11.4115C11.1246 8.07242 10.8898 7.83798 10.8898 7.55145C10.8898 7.26491 11.1246 7.03048 11.4115 7.03048H12.3245C12.6167 7.03048 12.8463 7.26491 12.8463 7.55145C12.8463 7.83798 12.6115 8.07242 12.3245 8.07242ZM15.987 11.6671H15.074C14.787 11.6671 14.5523 11.4327 14.5523 11.1461C14.5523 10.8596 14.787 10.6252 15.074 10.6252H15.987C16.2739 10.6252 16.5087 10.8596 16.5087 11.1461C16.5087 11.4327 16.2739 11.6671 15.987 11.6671ZM15.987 8.07242H15.074C14.787 8.07242 14.5523 7.83798 14.5523 7.55145C14.5523 7.26491 14.787 7.03048 15.074 7.03048H15.987C16.2739 7.03048 16.5087 7.26491 16.5087 7.55145C16.5087 7.83798 16.2739 8.07242 15.987 8.07242Z" fill="#121212"/>
</g>
<defs>
<clipPath id="clip0">
<rect width="20.0286" height="20" fill="white" transform="translate(0.048584)"/>
</clipPath>
</defs>
</svg>
