<svg width="15" height="15" viewBox="0 0 15 15" fill="none" xmlns="http://www.w3.org/2000/svg">
<path d="M9.37502 4.06275C9.03001 4.06275 8.75001 3.78275 8.75001 3.43775V2.50025H6.25V3.43775C6.25 3.78275 5.97 4.06275 5.625 4.06275C5.28 4.06275 5 3.78275 5 3.43775V2.50025C5 1.81087 5.56063 1.25024 6.25 1.25024H8.75001C9.43939 1.25024 10 1.81087 10 2.50025V3.43775C10 3.78275 9.72002 4.06275 9.37502 4.06275Z" fill="#121212"/>
<path d="M11.25 7.81275V8.38775C11.25 8.644 11.0375 8.8565 10.7813 8.8565C10.525 8.8565 10.3125 8.644 10.3125 8.38775V7.81275H4.68751V8.38775C4.68751 8.644 4.47501 8.8565 4.21876 8.8565C3.96251 8.8565 3.75001 8.644 3.75001 8.38775V7.81275H0V12.0315C0 12.9815 0.768751 13.7503 1.71875 13.7503H13.2813C14.2313 13.7503 15 12.9815 15 12.0315V7.81275H11.25ZM13.2813 3.12524H1.71875C0.768751 3.12524 0 3.894 0 4.844V6.87525H3.75001V6.094C3.75001 5.83775 3.96251 5.62525 4.21876 5.62525C4.47501 5.62525 4.68751 5.83775 4.68751 6.094V6.87525H10.3125V6.094C10.3125 5.83775 10.525 5.62525 10.7813 5.62525C11.0375 5.62525 11.25 5.83775 11.25 6.094V6.87525H15V4.844C15 3.894 14.2313 3.12524 13.2813 3.12524Z" fill="#121212"/>
</svg>
