<svg width="60" height="60" fill="none" xmlns="http://www.w3.org/2000/svg"><path d="M48.75 60h-37.5C5.036 60 0 54.964 0 48.75v-37.5C0 5.036 5.036 0 11.25 0h37.5C54.964 0 60 5.036 60 11.25v37.5C60 54.964 54.964 60 48.75 60z" fill="#FDF0CD"/><path d="M29.376 25.313h.787a.464.464 0 00.463-.464.465.465 0 00-.463-.474h-.787v.938zM24.062 24.375h-.625a.314.314 0 00-.313.313v3.126c0 .172.141.313.314.313h.624a.317.317 0 00.313-.315v-3.126c0-.17-.14-.311-.313-.311zM30.163 27.188h-.787v.937h.787a.464.464 0 00.463-.463.468.468 0 00-.463-.474zM37.813 24.375h-1.822c-.2 0-.366.216-.366.469s.167.468.364.468h.521c1.148 0 2.085.912 2.214 2.076.008-.17.027-.34.027-.514 0-.943-.122-1.858-.33-2.737a.928.928 0 01-.608.238z" fill="#F3B405"/><path d="M44.634 42.866l-8.533-8.533a11.821 11.821 0 002.56-6.054C38.398 29.267 37.538 30 36.51 30h-1.822a.938.938 0 010-1.875h1.822c.197 0 .364-.216.364-.469s-.167-.468-.364-.468h-.521c-1.234 0-2.239-1.052-2.239-2.344 0-1.292 1.005-2.344 2.239-2.344h1.822c.036 0 .068.017.103.02-1.738-4.402-6.02-7.52-11.04-7.52C20.318 15 15 20.317 15 26.874c0 .587.056 1.161.139 1.725a.927.927 0 01.799-.474h1.874c.173 0 .314-.14.314-.313v-4.375a.938.938 0 011.875 0v4.375A2.19 2.19 0 0117.812 30h-1.875a.914.914 0 01-.56-.206c1.303 5.145 5.95 8.957 11.5 8.957 2.829 0 5.418-1 7.456-2.652l8.535 8.535a1.25 1.25 0 101.766-1.768zM26.25 27.812A2.19 2.19 0 0124.062 30h-.625a2.19 2.19 0 01-2.188-2.188v-3.126a2.19 2.19 0 012.189-2.188h.624a2.192 2.192 0 012.188 2.19v3.124zm6.25-.161A2.342 2.342 0 0130.16 30h-1.725a.938.938 0 01-.937-.938v-5.625c0-.517.42-.937.937-.937h1.725a2.34 2.34 0 012.338 2.338c0 .533-.181 1.018-.478 1.412.297.39.478.872.478 1.4z" fill="#F3B405"/></svg>