<svg width="24" height="24" viewBox="0 0 24 24" fill="none" xmlns="http://www.w3.org/2000/svg">
<path d="M4.20799 15.4917C4.37363 15.8603 4.2091 16.2933 3.8405 16.459C3.4719 16.6246 3.03881 16.4601 2.87316 16.0915C2.30025 14.8166 2 13.4285 2 12C2 6.47726 6.47726 2 12 2C17.5227 2 22 6.47726 22 12C22 17.5227 17.5227 22 12 22C9.65339 22 7.42972 21.1881 5.65267 19.7281C5.34042 19.4715 5.29526 19.0105 5.55179 18.6982C5.80833 18.386 6.26941 18.3408 6.58166 18.5973C8.09934 19.8442 9.9955 20.5366 12 20.5366C16.7145 20.5366 20.5366 16.7145 20.5366 12C20.5366 7.28549 16.7145 3.46341 12 3.46341C7.28549 3.46341 3.46341 7.28549 3.46341 12C3.46341 13.2208 3.71947 14.4046 4.20799 15.4917Z" fill="#F3B405"/>
</svg>
