<svg width="10" height="10" viewBox="0 0 10 10" fill="none" xmlns="http://www.w3.org/2000/svg">
<path d="M5 0C2.93213 0 1.25 1.68232 1.25 3.75C1.25 6.51652 4.70988 9.80469 4.85719 9.94344C4.89746 9.98107 4.94873 10 5 10C5.05127 10 5.10254 9.98107 5.14283 9.94344C5.29012 9.80469 8.75 6.51652 8.75 3.75C8.75 1.68232 7.06787 0 5 0ZM5 5.83334C3.85131 5.83334 2.91666 4.89869 2.91666 3.75C2.91666 2.60131 3.85133 1.66666 5 1.66666C6.14867 1.66666 7.08334 2.60133 7.08334 3.75C7.08334 4.89867 6.14869 5.83334 5 5.83334Z" fill="#121212"/>
</svg>
