<svg width="20" height="20" viewBox="0 0 20 20" fill="none" xmlns="http://www.w3.org/2000/svg">
<path d="M15.3333 7.5V8H15.8333H17V18.3333C17 18.9764 16.4764 19.5 15.8334 19.5H4.16668C3.5236 19.5 3 18.9764 3 18.3334V8H4.16668H4.66668V7.5V5.83332C4.66668 2.89294 7.05958 0.5 10 0.5C12.9404 0.5 15.3333 2.89294 15.3333 5.83332V7.5ZM11.7445 16.149L11.7445 16.1488L11.5111 14.0497C11.9254 13.6493 12.1667 13.0962 12.1667 12.5C12.1667 11.3046 11.1954 10.3333 10 10.3333C8.80467 10.3333 7.83336 11.3047 7.83336 12.5C7.83336 13.0962 8.07466 13.6493 8.48895 14.0497L8.25552 16.1488L8.25551 16.1489C8.22675 16.4081 8.31007 16.6673 8.4835 16.8612C8.65753 17.0558 8.90633 17.1667 9.16668 17.1667H10.8334C11.0937 17.1667 11.3425 17.0558 11.5165 16.8612L11.5166 16.8611C11.69 16.6672 11.7732 16.4081 11.7445 16.149ZM13.3333 8H13.8333V7.5V5.83332C13.8333 3.71921 12.1141 2 10 2C7.88589 2 6.16668 3.71921 6.16668 5.83332V7.5V8H6.66668H13.3333Z" fill="#121212" stroke="#121212"/>
</svg>
