<svg width="58" height="16" viewBox="0 0 58 16" fill="none" xmlns="http://www.w3.org/2000/svg">
<path d="M0.58 0.84H3.1V12.72H9.12V15H0.58V0.84ZM10.1911 7.98C10.1911 6.84667 10.3778 5.82 10.7511 4.9C11.1244 3.96667 11.6378 3.17333 12.2911 2.52C12.9578 1.86667 13.7444 1.36667 14.6511 1.02C15.5711 0.659999 16.5778 0.48 17.6711 0.48C18.7778 0.466666 19.7911 0.633332 20.7111 0.979999C21.6311 1.31333 22.4244 1.80667 23.0911 2.46C23.7578 3.11333 24.2778 3.9 24.6511 4.82C25.0244 5.74 25.2111 6.76667 25.2111 7.9C25.2111 9.00667 25.0244 10.0133 24.6511 10.92C24.2778 11.8267 23.7578 12.6067 23.0911 13.26C22.4244 13.9133 21.6311 14.4267 20.7111 14.8C19.7911 15.16 18.7778 15.3467 17.6711 15.36C16.5778 15.36 15.5711 15.1867 14.6511 14.84C13.7444 14.48 12.9578 13.98 12.2911 13.34C11.6378 12.6867 11.1244 11.9067 10.7511 11C10.3778 10.0933 10.1911 9.08667 10.1911 7.98ZM12.8311 7.82C12.8311 8.58 12.9444 9.28 13.1711 9.92C13.4111 10.56 13.7444 11.1133 14.1711 11.58C14.5978 12.0467 15.1044 12.4133 15.6911 12.68C16.2911 12.9467 16.9578 13.08 17.6911 13.08C18.4244 13.08 19.0911 12.9467 19.6911 12.68C20.2911 12.4133 20.8044 12.0467 21.2311 11.58C21.6578 11.1133 21.9844 10.56 22.2111 9.92C22.4511 9.28 22.5711 8.58 22.5711 7.82C22.5711 7.11333 22.4511 6.45333 22.2111 5.84C21.9844 5.22667 21.6578 4.69333 21.2311 4.24C20.8044 3.77333 20.2911 3.41333 19.6911 3.16C19.0911 2.89333 18.4244 2.76 17.6911 2.76C16.9578 2.76 16.2911 2.89333 15.6911 3.16C15.1044 3.41333 14.5978 3.77333 14.1711 4.24C13.7444 4.69333 13.4111 5.22667 13.1711 5.84C12.9444 6.45333 12.8311 7.11333 12.8311 7.82ZM40.1913 13.96C38.4446 14.8933 36.4913 15.36 34.3313 15.36C33.2379 15.36 32.2313 15.1867 31.3112 14.84C30.4046 14.48 29.6179 13.98 28.9513 13.34C28.2979 12.6867 27.7846 11.9067 27.4113 11C27.0379 10.0933 26.8513 9.08667 26.8513 7.98C26.8513 6.84667 27.0379 5.82 27.4113 4.9C27.7846 3.96667 28.2979 3.17333 28.9513 2.52C29.6179 1.86667 30.4046 1.36667 31.3112 1.02C32.2313 0.659999 33.2379 0.48 34.3313 0.48C35.4113 0.48 36.4246 0.613333 37.3713 0.879999C38.3179 1.13333 39.1646 1.59333 39.9113 2.26L38.0513 4.14C37.5979 3.7 37.0446 3.36 36.3913 3.12C35.7513 2.88 35.0713 2.76 34.3513 2.76C33.6179 2.76 32.9513 2.89333 32.3513 3.16C31.7646 3.41333 31.2579 3.77333 30.8313 4.24C30.4046 4.69333 30.0713 5.22667 29.8313 5.84C29.6046 6.45333 29.4913 7.11333 29.4913 7.82C29.4913 8.58 29.6046 9.28 29.8313 9.92C30.0713 10.56 30.4046 11.1133 30.8313 11.58C31.2579 12.0467 31.7646 12.4133 32.3513 12.68C32.9513 12.9467 33.6179 13.08 34.3513 13.08C34.9913 13.08 35.5913 13.02 36.1513 12.9C36.7246 12.78 37.2313 12.5933 37.6713 12.34V9H34.7713V6.72H40.1913V13.96ZM42.4177 7.98C42.4177 6.84667 42.6043 5.82 42.9777 4.9C43.351 3.96667 43.8643 3.17333 44.5177 2.52C45.1843 1.86667 45.971 1.36667 46.8777 1.02C47.7977 0.659999 48.8043 0.48 49.8977 0.48C51.0043 0.466666 52.0177 0.633332 52.9377 0.979999C53.8577 1.31333 54.651 1.80667 55.3177 2.46C55.9843 3.11333 56.5043 3.9 56.8777 4.82C57.251 5.74 57.4377 6.76667 57.4377 7.9C57.4377 9.00667 57.251 10.0133 56.8777 10.92C56.5043 11.8267 55.9843 12.6067 55.3177 13.26C54.651 13.9133 53.8577 14.4267 52.9377 14.8C52.0177 15.16 51.0043 15.3467 49.8977 15.36C48.8043 15.36 47.7977 15.1867 46.8777 14.84C45.971 14.48 45.1843 13.98 44.5177 13.34C43.8643 12.6867 43.351 11.9067 42.9777 11C42.6043 10.0933 42.4177 9.08667 42.4177 7.98ZM45.0577 7.82C45.0577 8.58 45.171 9.28 45.3977 9.92C45.6377 10.56 45.971 11.1133 46.3977 11.58C46.8243 12.0467 47.331 12.4133 47.9177 12.68C48.5177 12.9467 49.1843 13.08 49.9177 13.08C50.651 13.08 51.3177 12.9467 51.9177 12.68C52.5177 12.4133 53.031 12.0467 53.4577 11.58C53.8843 11.1133 54.211 10.56 54.4377 9.92C54.6777 9.28 54.7977 8.58 54.7977 7.82C54.7977 7.11333 54.6777 6.45333 54.4377 5.84C54.211 5.22667 53.8843 4.69333 53.4577 4.24C53.031 3.77333 52.5177 3.41333 51.9177 3.16C51.3177 2.89333 50.651 2.76 49.9177 2.76C49.1843 2.76 48.5177 2.89333 47.9177 3.16C47.331 3.41333 46.8243 3.77333 46.3977 4.24C45.971 4.69333 45.6377 5.22667 45.3977 5.84C45.171 6.45333 45.0577 7.11333 45.0577 7.82Z" fill="#121212"/>
</svg>
