<svg width="20" height="21" viewBox="0 0 20 21" fill="none" xmlns="http://www.w3.org/2000/svg">
<path fill-rule="evenodd" clip-rule="evenodd" d="M0 3.48779C0 2.65937 0.671573 1.98779 1.5 1.98779H18.5C19.3284 1.98779 20 2.65937 20 3.48779C20 4.31622 19.3284 4.98779 18.5 4.98779H1.5C0.671573 4.98779 0 4.31622 0 3.48779ZM0 10.4878C0 9.65937 0.671573 8.98779 1.5 8.98779H10.3182C11.1466 8.98779 11.8182 9.65937 11.8182 10.4878C11.8182 11.3162 11.1466 11.9878 10.3182 11.9878H1.5C0.671574 11.9878 0 11.3162 0 10.4878ZM1.5 15.9878C0.671573 15.9878 0 16.6594 0 17.4878C0 18.3162 0.671571 18.9878 1.5 18.9878H13.9545C14.783 18.9878 15.4545 18.3162 15.4545 17.4878C15.4545 16.6594 14.783 15.9878 13.9545 15.9878H1.5Z" fill="#121212"/>
</svg>
