<svg width="20" height="20" viewBox="0 0 20 20" fill="none" xmlns="http://www.w3.org/2000/svg">
<path d="M2.92305 17.0769C2.41327 16.5671 2.41327 15.7405 2.92305 15.2308L15.2304 2.92336C15.7402 2.41357 16.5668 2.41357 17.0766 2.92336C17.5863 3.43315 17.5863 4.25968 17.0766 4.76947L4.76916 17.0769C4.25938 17.5867 3.43284 17.5867 2.92305 17.0769Z" fill="#121212"/>
<path d="M2.92357 4.769C2.41379 4.25921 2.41378 3.43268 2.92357 2.92289C3.43336 2.4131 4.25989 2.4131 4.76968 2.92289L17.0771 15.2303C17.5869 15.7401 17.5869 16.5666 17.0771 17.0764C16.5673 17.5862 15.7408 17.5862 15.231 17.0764L2.92357 4.769Z" fill="#121212"/>
</svg>
