<svg width="20" height="20" viewBox="0 0 20 20" fill="none" xmlns="http://www.w3.org/2000/svg">
<g clip-path="url(#clip0)">
<path d="M5.91456 5.051C5.56869 5.051 5.28833 4.77064 5.28833 4.42477V0.626233C5.28833 0.280357 5.56869 0 5.91456 0C6.26044 0 6.5408 0.280357 6.5408 0.626233V4.42477C6.5408 4.77064 6.26044 5.051 5.91456 5.051Z" fill="black"/>
<path d="M14.0852 5.051C13.7393 5.051 13.459 4.77064 13.459 4.42477V0.626233C13.459 0.280357 13.7393 0 14.0852 0C14.4311 0 14.7115 0.280357 14.7115 0.626233V4.42477C14.7115 4.77064 14.4311 5.051 14.0852 5.051Z" fill="black"/>
<path d="M0.949463 8.68799V17.3287C0.949463 18.8017 2.1478 20 3.62078 20H16.3789C17.8519 20 19.0502 18.8017 19.0502 17.3287V8.68799H0.949463Z" fill="black"/>
<path d="M19.0502 7.43571V4.57077C19.0502 3.09779 17.8518 1.89945 16.3789 1.89945H15.9637V4.42493C15.9637 5.46088 15.121 6.30363 14.0851 6.30363C13.0491 6.30363 12.2064 5.46088 12.2064 4.42493V1.89941H7.79333V4.42489C7.79333 5.46084 6.95057 6.30359 5.91463 6.30359C4.87868 6.30359 4.03593 5.46084 4.03593 4.42489V1.89941H3.62078C2.1478 1.89941 0.949463 3.09775 0.949463 4.57073V7.43567H19.0502V7.43571Z" fill="black"/>
</g>
<defs>
<clipPath id="clip0">
<rect width="20" height="20" fill="white"/>
</clipPath>
</defs>
</svg>
