<svg width="20" height="20" viewBox="0 0 20 20" fill="none" xmlns="http://www.w3.org/2000/svg">
<path fill-rule="evenodd" clip-rule="evenodd" d="M18.9017 18.2642L13.6632 13.1213C14.9994 11.8563 15.8272 10.1124 15.8272 8.18913C15.8272 4.33523 12.5061 1.2002 8.42359 1.2002C4.34105 1.2002 1.02002 4.33523 1.02002 8.18913C1.02002 12.043 4.34105 15.1781 8.42359 15.1781C10.2156 15.1781 11.8603 14.5734 13.1421 13.5699L18.3934 18.7255C18.4625 18.7937 18.5548 18.8276 18.6476 18.8276C18.7357 18.8276 18.8235 18.7967 18.8919 18.7348C19.0322 18.6073 19.0364 18.3966 18.9017 18.2642ZM8.42284 14.5125C4.72916 14.5125 1.72437 11.676 1.72437 8.18914C1.72437 4.70233 4.72916 1.86581 8.42284 1.86581C12.1165 1.86581 15.1213 4.70233 15.1213 8.18914C15.1213 11.676 12.1162 14.5125 8.42284 14.5125Z" fill="#121212"/>
<path d="M18.9017 18.2642L19.603 17.5512L19.6023 17.5506L18.9017 18.2642ZM13.6632 13.1213L12.9757 12.3951L12.2225 13.1083L12.9626 13.8349L13.6632 13.1213ZM13.1421 13.5699L13.8427 12.8564L13.2166 12.2417L12.5257 12.7825L13.1421 13.5699ZM18.3934 18.7255L19.096 18.0139L19.0939 18.0119L18.3934 18.7255ZM18.8919 18.7348L19.5629 19.4762L19.5643 19.475L18.8919 18.7348ZM19.6023 17.5506L14.3638 12.4077L12.9626 13.8349L18.2012 18.9778L19.6023 17.5506ZM14.3507 13.8475C15.8704 12.4088 16.8272 10.4084 16.8272 8.18913H14.8272C14.8272 9.81643 14.1284 11.3039 12.9757 12.3951L14.3507 13.8475ZM16.8272 8.18913C16.8272 3.72943 13.0033 0.200195 8.42359 0.200195V2.2002C12.0089 2.2002 14.8272 4.94104 14.8272 8.18913H16.8272ZM8.42359 0.200195C3.84384 0.200195 0.0200195 3.72943 0.0200195 8.18913H2.02002C2.02002 4.94104 4.83825 2.2002 8.42359 2.2002V0.200195ZM0.0200195 8.18913C0.0200195 12.6488 3.84384 16.1781 8.42359 16.1781V14.1781C4.83825 14.1781 2.02002 11.4372 2.02002 8.18913H0.0200195ZM8.42359 16.1781C10.4427 16.1781 12.3036 15.4963 13.7585 14.3574L12.5257 12.7825C11.4169 13.6505 9.98851 14.1781 8.42359 14.1781V16.1781ZM12.4416 14.2835L17.6928 19.439L19.0939 18.0119L13.8427 12.8564L12.4416 14.2835ZM17.6908 19.4371C17.9624 19.7052 18.3142 19.8276 18.6476 19.8276V17.8276C18.7955 17.8276 18.9625 17.8821 19.096 18.0139L17.6908 19.4371ZM18.6476 19.8276C18.9678 19.8276 19.2992 19.7149 19.5629 19.4762L18.2208 17.9934C18.3478 17.8785 18.5036 17.8276 18.6476 17.8276V19.8276ZM19.5643 19.475C20.1285 18.9624 20.1483 18.0876 19.603 17.5512L18.2005 18.9771C17.9245 18.7056 17.9359 18.2522 18.2195 17.9946L19.5643 19.475ZM8.42284 13.5125C5.22636 13.5125 2.72437 11.0702 2.72437 8.18914H0.724371C0.724371 12.2818 4.23196 15.5125 8.42284 15.5125V13.5125ZM2.72437 8.18914C2.72437 5.30813 5.22636 2.86581 8.42284 2.86581V0.865814C4.23196 0.865814 0.724371 4.09652 0.724371 8.18914H2.72437ZM8.42284 2.86581C11.6193 2.86581 14.1213 5.30813 14.1213 8.18914H16.1213C16.1213 4.09652 12.6137 0.865814 8.42284 0.865814V2.86581ZM14.1213 8.18914C14.1213 11.0701 11.619 13.5125 8.42284 13.5125V15.5125C12.6133 15.5125 16.1213 12.2818 16.1213 8.18914H14.1213Z" fill="#121212"/>
</svg>
