<svg width="15" height="15" viewBox="0 0 15 15" fill="none" xmlns="http://www.w3.org/2000/svg">
<path d="M7.49996 0C3.36451 0 0 3.36443 0 7.49996C0 11.6355 3.36451 15 7.49996 15C11.6354 15 14.9999 11.6355 14.9999 7.49996C14.9999 3.36443 11.6355 0 7.49996 0Z" fill="#FDF0CD"/>
<path fill-rule="evenodd" clip-rule="evenodd" d="M4.60848 7.52843C4.35035 7.78657 4.36546 8.19931 4.64225 8.45032L6.39655 10.0413C6.42348 10.0657 6.45189 10.0877 6.48148 10.1073C6.7779 10.3386 7.21158 10.3206 7.47473 10.0575L10.7743 6.75793C11.0253 6.50686 11.0107 6.10542 10.7415 5.86127C10.4723 5.61713 10.0505 5.62274 9.79942 5.87381L6.93036 8.74287L5.57703 7.51554C5.30025 7.26453 4.86661 7.2703 4.60848 7.52843Z" fill="#F3B405"/>
</svg>
