<svg width="40" height="40" viewBox="0 0 40 40" fill="none" xmlns="http://www.w3.org/2000/svg">
<g clip-path="url(#clip0)">
<path d="M25.2786 0H8.88281C6.41577 0 4.375 2.03027 4.375 4.49731V35.5027C4.375 37.9697 6.41577 40 8.88281 40H31.1365C33.6035 40 35.6438 37.9697 35.6438 35.5027V10.873L25.2786 0Z" fill="#E0E0E0"/>
<path d="M28.1227 17.9544C28.5415 17.9544 28.7465 17.5894 28.7465 17.2357C28.7465 16.8694 28.5327 16.5156 28.1227 16.5156H25.7377C25.2714 16.5156 25.0115 16.9018 25.0115 17.3281V23.1893C25.0115 23.7119 25.3089 24.0018 25.7114 24.0018C26.1115 24.0018 26.4102 23.7119 26.4102 23.1893V21.5806H27.8528C28.3003 21.5806 28.524 21.2143 28.524 20.8507C28.524 20.4945 28.3003 20.1406 27.8528 20.1406H26.4102V17.9544H28.1227ZM20.0614 16.5156H18.3164C17.8426 16.5156 17.5064 16.8407 17.5064 17.3231V23.1944C17.5064 23.7931 17.9901 23.9806 18.3363 23.9806H20.1676C22.3351 23.9806 23.7663 22.5544 23.7663 20.3531C23.7652 18.0256 22.4177 16.5156 20.0614 16.5156ZM20.1452 22.5332H19.0814V17.9632H20.0402C21.4915 17.9632 22.1227 18.937 22.1227 20.2807C22.1227 21.5382 21.5026 22.5332 20.1452 22.5332ZM13.7527 16.5156H12.024C11.5352 16.5156 11.2627 16.8381 11.2627 17.3281V23.1893C11.2627 23.7119 11.5752 24.0018 11.9951 24.0018C12.4151 24.0018 12.7276 23.7119 12.7276 23.1893V21.4781H13.8113C15.1488 21.4781 16.2526 20.5305 16.2526 19.0068C16.2527 17.5157 15.1877 16.5156 13.7527 16.5156ZM13.724 20.1032H12.7277V17.8919H13.724C14.339 17.8919 14.7302 18.3719 14.7302 18.9981C14.729 19.6232 14.339 20.1032 13.724 20.1032Z" fill="white"/>
<g filter="url(#filter0_d)">
<path d="M25.3291 0.0302734L35.6541 10.8828H28.7808C26.8723 10.8828 25.3291 9.33985 25.3291 7.4314V0.0302734Z" fill="white"/>
</g>
</g>
<defs>
<filter id="filter0_d" x="15.3291" y="-9.96973" width="30.325" height="30.8525" filterUnits="userSpaceOnUse" color-interpolation-filters="sRGB">
<feFlood flood-opacity="0" result="BackgroundImageFix"/>
<feColorMatrix in="SourceAlpha" type="matrix" values="0 0 0 0 0 0 0 0 0 0 0 0 0 0 0 0 0 0 127 0"/>
<feOffset/>
<feGaussianBlur stdDeviation="5"/>
<feColorMatrix type="matrix" values="0 0 0 0 0.9375 0 0 0 0 0.9375 0 0 0 0 0.9375 0 0 0 1 0"/>
<feBlend mode="normal" in2="BackgroundImageFix" result="effect1_dropShadow"/>
<feBlend mode="normal" in="SourceGraphic" in2="effect1_dropShadow" result="shape"/>
</filter>
<clipPath id="clip0">
<rect width="40" height="40" fill="white"/>
</clipPath>
</defs>
</svg>
