<svg width="40" height="40" viewBox="0 0 40 40" fill="none"
    xmlns="http://www.w3.org/2000/svg">
    <g clip-path="url(#clip0)">
        <path d="M25.2786 0H8.88281C6.41577 0 4.375 2.03027 4.375 4.49731V35.5027C4.375 37.9697 6.41577 40 8.88281 40H31.1365C33.6035 40 35.6438 37.9697 35.6438 35.5027V10.873L25.2786 0Z" fill="#FDF0CD"/>
        <path d="M28.1227 17.9539C28.5415 17.9539 28.7465 17.5889 28.7465 17.2352C28.7465 16.8689 28.5327 16.5151 28.1227 16.5151H25.7377C25.2714 16.5151 25.0115 16.9013 25.0115 17.3276V23.1889C25.0115 23.7114 25.3089 24.0014 25.7114 24.0014C26.1115 24.0014 26.4102 23.7114 26.4102 23.1889V21.5801H27.8528C28.3003 21.5801 28.524 21.2139 28.524 20.8502C28.524 20.494 28.3003 20.1401 27.8528 20.1401H26.4102V17.9539H28.1227ZM20.0614 16.5151H18.3164C17.8426 16.5151 17.5064 16.8402 17.5064 17.3226V23.1939C17.5064 23.7926 17.9901 23.9801 18.3363 23.9801H20.1676C22.3351 23.9801 23.7663 22.5539 23.7663 20.3526C23.7652 18.0252 22.4177 16.5151 20.0614 16.5151ZM20.1452 22.5327H19.0814V17.9627H20.0402C21.4915 17.9627 22.1227 18.9365 22.1227 20.2802C22.1227 21.5377 21.5026 22.5327 20.1452 22.5327ZM13.7527 16.5151H12.024C11.5352 16.5151 11.2627 16.8376 11.2627 17.3276V23.1889C11.2627 23.7114 11.5752 24.0014 11.9951 24.0014C12.4151 24.0014 12.7276 23.7114 12.7276 23.1889V21.4776H13.8113C15.1488 21.4776 16.2526 20.5301 16.2526 19.0063C16.2527 17.5152 15.1877 16.5151 13.7527 16.5151ZM13.724 20.1027H12.7277V17.8914H13.724C14.339 17.8914 14.7302 18.3714 14.7302 18.9977C14.729 19.6227 14.339 20.1027 13.724 20.1027Z" fill="#F3B405"/>
        <g filter="url(#filter0_d)">
            <path d="M25.3291 0.0305786L35.6541 10.8831H28.7808C26.8723 10.8831 25.3291 9.34015 25.3291 7.4317V0.0305786Z" fill="#F3B405"/>
        </g>
    </g>
    <defs>
        <filter id="filter0_d" x="15.3291" y="-9.96942" width="30.325" height="30.8525" filterUnits="userSpaceOnUse" color-interpolation-filters="sRGB">
            <feFlood flood-opacity="0" result="BackgroundImageFix"/>
            <feColorMatrix in="SourceAlpha" type="matrix" values="0 0 0 0 0 0 0 0 0 0 0 0 0 0 0 0 0 0 127 0"/>
            <feOffset/>
            <feGaussianBlur stdDeviation="5"/>
            <feColorMatrix type="matrix" values="0 0 0 0 0.9375 0 0 0 0 0.9375 0 0 0 0 0.9375 0 0 0 1 0"/>
            <feBlend mode="normal" in2="BackgroundImageFix" result="effect1_dropShadow"/>
            <feBlend mode="normal" in="SourceGraphic" in2="effect1_dropShadow" result="shape"/>
        </filter>
        <clipPath id="clip0">
            <rect width="40" height="40" fill="white"/>
        </clipPath>
    </defs>
</svg>
