<svg width="14" height="14" viewBox="0 0 14 14" fill="none" xmlns="http://www.w3.org/2000/svg">
<path d="M0 7.08688C0 6.5346 0.447715 6.08688 1 6.08688H13C13.5523 6.08688 14 6.5346 14 7.08688V7.08688C14 7.63917 13.5523 8.08688 13 8.08688H1C0.447716 8.08688 0 7.63917 0 7.08688V7.08688Z" fill="#F3B405"/>
<path d="M6.0874 1C6.0874 0.447716 6.53512 0 7.0874 0V0C7.63969 0 8.0874 0.447715 8.0874 1V13C8.0874 13.5523 7.63969 14 7.0874 14V14C6.53512 14 6.0874 13.5523 6.0874 13V1Z" fill="#F3B405"/>
</svg>
