<svg width="20" height="20" viewBox="0 0 20 20" fill="none" xmlns="http://www.w3.org/2000/svg">
<g clip-path="url(#clip0)">
<path d="M10 20.0001C10.4602 20.0001 11 19.4604 11 19.0002C11 18.5399 10.4602 18.0002 10 18.0002C7.774 18.0002 5.57378 17.0742 4 15.5002C2.426 13.9261 2 12.2261 2 10.0001C2 7.77428 2.726 5.87406 4.3 4.30006L5.3 3.30006L6.27572 5.49544C6.32095 5.5972 6.4736 5.56 6.46693 5.44884L6.20564 1.09407C6.20247 1.04127 6.15872 1.00006 6.10582 1.00006L1.57729 1.00014C1.46507 1.00014 1.43798 1.15657 1.54366 1.19431L3.8 2.00015L2.92911 2.92916C1.04022 4.81783 0 7.32894 0 10.0001C0 12.6712 1.04022 15.1823 2.92889 17.0709C4.81756 18.9598 7.32889 20.0001 10 20.0001Z" fill="#121212"/>
<path d="M19.1667 9.17133C18.7067 9.17133 18.3334 9.54466 18.3334 10.0047C18.3334 10.4644 18.7067 10.838 19.1667 10.838C19.6267 10.838 20 10.4669 20 10.0047C20 9.54444 19.6267 9.17133 19.1667 9.17133Z" fill="#121212"/>
<path d="M19.3073 6.49666C19.3073 6.03666 18.934 5.66333 18.474 5.66333C18.014 5.66333 17.6406 6.03666 17.6406 6.49666C17.6406 6.95644 18.014 7.33 18.474 7.33C18.934 7.33 19.3073 6.95889 19.3073 6.49666Z" fill="#121212"/>
<path d="M16.4822 2.68445C16.0222 2.68445 15.6489 3.05778 15.6489 3.51778C15.6489 3.97756 16.0222 4.35112 16.4822 4.35112C16.9422 4.35112 17.3155 3.98 17.3155 3.51778C17.3155 3.05778 16.9422 2.68445 16.4822 2.68445Z" fill="#121212"/>
<path d="M18.4695 14.3456C18.9295 14.3456 19.3028 13.9745 19.3028 13.5122C19.3028 13.0522 18.9295 12.6789 18.4695 12.6789C18.0095 12.6789 17.6362 13.0522 17.6362 13.5122C17.6362 13.9722 18.0095 14.3456 18.4695 14.3456Z" fill="#121212"/>
<path d="M16.4822 15.6498C16.0222 15.6498 15.6489 16.0231 15.6489 16.4831C15.6489 16.9429 16.0222 17.3164 16.4822 17.3164C16.9422 17.3164 17.3155 16.9453 17.3155 16.4831C17.3155 16.0231 16.9422 15.6498 16.4822 15.6498Z" fill="#121212"/>
<path d="M13.5089 19.3045C13.9689 19.3045 14.3423 18.9334 14.3423 18.4712C14.3423 18.0112 13.9689 17.6378 13.5089 17.6378C13.0489 17.6378 12.6756 18.0112 12.6756 18.4712C12.6756 18.9309 13.0489 19.3045 13.5089 19.3045Z" fill="#121212"/>
<path d="M12.7311 1.2087C12.5578 1.63315 12.76 2.12004 13.1844 2.29759C13.2889 2.33981 13.3955 2.35981 13.5022 2.35981C13.8289 2.35981 14.14 2.16648 14.2733 1.84426C14.4489 1.41759 14.2467 0.930924 13.82 0.755369C13.3955 0.579813 12.9089 0.782258 12.7311 1.2087Z" fill="#121212"/>
<path d="M9.99532 1.66667C10.4553 1.66667 10.8287 1.29311 10.8287 0.833334C10.8287 0.373334 10.4553 0 9.99532 0C9.5331 0 9.16199 0.373334 9.16199 0.833334C9.16199 1.29311 9.53554 1.66667 9.99532 1.66667Z" fill="#121212"/>
</g>
<defs>
<clipPath id="clip0">
<rect width="20" height="20" fill="white"/>
</clipPath>
</defs>
</svg>
