<svg width="10" height="10" viewBox="0 0 10 10" fill="none" xmlns="http://www.w3.org/2000/svg">
<g clip-path="url(#clip0)">
<path d="M9.33922 3.15987C9.12524 2.94573 8.78506 2.93227 8.55502 3.11971C8.52176 3.14682 8.54752 3.12293 8.04102 3.62944L9.35579 4.94422L9.82831 4.4776C10.0568 4.24915 10.0568 3.87743 9.82831 3.64895L9.33922 3.15987Z" fill="#121212"/>
<path d="M5.34483 6.3506L4.57144 8.0079C4.51935 8.11956 4.54265 8.25184 4.62976 8.33895C4.71687 8.42608 4.84921 8.44936 4.96081 8.39727L6.61811 7.62386C6.68368 7.59325 6.48518 7.77903 8.93885 5.35601L7.62668 4.04382C5.19392 6.47661 5.37604 6.28374 5.34483 6.3506Z" fill="#121212"/>
<path d="M7.1118 7.9838C7.04004 8.05464 6.95734 8.11216 6.866 8.15479L5.20869 8.92821C4.88279 9.0803 4.48465 9.02239 4.21557 8.75325C3.9552 8.4929 3.88486 8.09378 4.04057 7.76007L4.81398 6.10273C4.85742 6.00966 4.91629 5.92564 4.98893 5.85298L7.48047 3.36144V0.878905C7.48047 0.394277 7.08619 0 6.60156 0H0.878906C0.394277 0 0 0.394277 0 0.878905V9.12108C0 9.60571 0.394277 9.99999 0.878906 9.99999H6.60156C7.08619 9.99999 7.48047 9.60571 7.48047 9.12108V7.6197L7.1118 7.9838ZM1.56252 1.89453H5.93752C6.09932 1.89453 6.23049 2.0257 6.23049 2.1875C6.23049 2.34929 6.09932 2.48047 5.93752 2.48047H1.56252C1.40072 2.48047 1.26955 2.34929 1.26955 2.1875C1.26955 2.0257 1.40072 1.89453 1.56252 1.89453ZM1.56252 3.45703H5.00002C5.16182 3.45703 5.29299 3.5882 5.29299 3.74999C5.29299 3.91179 5.16182 4.04296 5.00002 4.04296H1.56252C1.40072 4.04296 1.26955 3.91179 1.26955 3.74999C1.26955 3.5882 1.40072 3.45703 1.56252 3.45703ZM1.26955 5.31249C1.26955 5.1507 1.40072 5.01952 1.56252 5.01952H4.06252C4.22432 5.01952 4.35549 5.1507 4.35549 5.31249C4.35549 5.47429 4.22432 5.60546 4.06252 5.60546H1.56252C1.40072 5.60546 1.26955 5.47429 1.26955 5.31249Z" fill="#121212"/>
</g>
<defs>
<clipPath id="clip0">
<rect width="10" height="9.99999" fill="white"/>
</clipPath>
</defs>
</svg>
