<svg width="15" height="15" viewBox="0 0 15 15" fill="none" xmlns="http://www.w3.org/2000/svg">
<path d="M12.8033 2.19668C11.3868 0.780118 9.50333 0 7.50001 0C5.49669 0 3.61325 0.780118 2.19668 2.19668C0.780118 3.61325 0 5.49669 0 7.50001C0 9.50333 0.780148 11.3867 2.19668 12.8033C3.61322 14.2199 5.49669 15 7.50001 15C9.50333 15 11.3868 14.2199 12.8033 12.8033C14.2199 11.3868 15 9.50333 15 7.50001C15 5.49669 14.2199 3.61328 12.8033 2.19668ZM7.50001 7.03126C8.66313 7.03126 9.60939 7.97752 9.60939 9.14064C9.60939 10.1038 8.96026 10.9178 8.07663 11.1692C8.01315 11.1873 7.96876 11.2444 7.96876 11.3104V11.7055C7.96876 11.9579 7.77479 12.1751 7.52266 12.187C7.25345 12.1996 7.03126 11.9852 7.03126 11.7188V11.3103C7.03126 11.2445 6.98714 11.1874 6.92383 11.1694C6.04398 10.9192 5.39652 10.1114 5.39066 9.15373C5.38911 8.89812 5.59009 8.67942 5.84561 8.67209C6.11078 8.66447 6.32813 8.87717 6.32813 9.14064C6.32813 9.81453 6.89992 10.3574 7.58377 10.3096C8.16104 10.2692 8.62864 9.80161 8.66896 9.22434C8.71671 8.54046 8.17387 7.96876 7.50001 7.96876C6.33689 7.96876 5.39063 7.0225 5.39063 5.85938C5.39063 4.89619 6.03976 4.08226 6.92339 3.83078C6.98687 3.8127 7.03126 3.7556 7.03126 3.6896V3.2945C7.03126 3.04207 7.22523 2.8249 7.47736 2.81303C7.74657 2.80037 7.96876 3.01486 7.96876 3.28125V3.68968C7.96876 3.75551 8.01288 3.81264 8.07619 3.83066C8.95604 4.08086 9.6035 4.88866 9.60936 5.84629C9.61091 6.1019 9.40993 6.3206 9.15441 6.32793C8.88924 6.33555 8.67189 6.12285 8.67189 5.85938C8.67189 5.1855 8.1001 4.64262 7.41625 4.69044C6.83898 4.73078 6.37138 5.19842 6.33106 5.77568C6.28331 6.45956 6.82615 7.03126 7.50001 7.03126Z" fill="#121212"/>
</svg>
