<svg width="17" height="17" viewBox="0 0 17 17" fill="none" xmlns="http://www.w3.org/2000/svg">
<path fill-rule="evenodd" clip-rule="evenodd" d="M15.1764 14.6979L11.2475 10.8407C12.2496 9.89199 12.8705 8.58406 12.8705 7.1416C12.8705 4.25118 10.3797 1.8999 7.3178 1.8999C4.2559 1.8999 1.76514 4.25118 1.76514 7.1416C1.76514 10.032 4.2559 12.3833 7.3178 12.3833C8.66181 12.3833 9.8953 11.9298 10.8567 11.1772L14.7951 15.0438C14.847 15.095 14.9162 15.1205 14.9858 15.1205C15.0519 15.1205 15.1177 15.0972 15.169 15.0508C15.2742 14.9552 15.2774 14.7972 15.1764 14.6979ZM7.31718 11.8841C4.54693 11.8841 2.29334 9.75673 2.29334 7.14163C2.29334 4.52652 4.54693 2.39914 7.31718 2.39914C10.0874 2.39914 12.341 4.52652 12.341 7.14163C12.341 9.75673 10.0872 11.8841 7.31718 11.8841Z" fill="#121212"/>
<path d="M15.1764 14.6979L15.8776 13.9849L15.877 13.9843L15.1764 14.6979ZM11.2475 10.8407L10.56 10.1146L9.80676 10.8277L10.5469 11.5543L11.2475 10.8407ZM10.8567 11.1772L11.5573 10.4636L10.9312 9.84896L10.2403 10.3898L10.8567 11.1772ZM14.7951 15.0438L15.4977 14.3322L15.4957 14.3302L14.7951 15.0438ZM15.169 15.0508L15.84 15.7922L15.8414 15.791L15.169 15.0508ZM15.877 13.9843L11.9481 10.1271L10.5469 11.5543L14.4759 15.4115L15.877 13.9843ZM11.935 11.5669C13.1206 10.4445 13.8705 8.88005 13.8705 7.1416H11.8705C11.8705 8.28807 11.3786 9.33952 10.56 10.1146L11.935 11.5669ZM13.8705 7.1416C13.8705 3.64538 10.8769 0.899902 7.3178 0.899902V2.8999C9.8825 2.8999 11.8705 4.85698 11.8705 7.1416H13.8705ZM7.3178 0.899902C3.7587 0.899902 0.765137 3.64538 0.765137 7.1416H2.76514C2.76514 4.85698 4.75311 2.8999 7.3178 2.8999V0.899902ZM0.765137 7.1416C0.765137 10.6378 3.7587 13.3833 7.3178 13.3833V11.3833C4.75311 11.3833 2.76514 9.42622 2.76514 7.1416H0.765137ZM7.3178 13.3833C8.88891 13.3833 10.3386 12.8527 11.4731 11.9646L10.2403 10.3898C9.45196 11.0069 8.43472 11.3833 7.3178 11.3833V13.3833ZM10.1561 11.8908L14.0946 15.7574L15.4957 14.3302L11.5573 10.4636L10.1561 11.8908ZM14.0925 15.7554C14.3469 16.0065 14.6756 16.1205 14.9858 16.1205V14.1205C15.1569 14.1205 15.347 14.1835 15.4977 14.3322L14.0925 15.7554ZM14.9858 16.1205C15.284 16.1205 15.5934 16.0155 15.84 15.7922L14.498 14.3094C14.642 14.179 14.8198 14.1205 14.9858 14.1205V16.1205ZM15.8414 15.791C16.3705 15.3103 16.3893 14.4882 15.8776 13.9849L14.4752 15.4108C14.1655 15.1062 14.1779 14.6001 14.4966 14.3106L15.8414 15.791ZM7.31718 10.8841C5.04413 10.8841 3.29334 9.15093 3.29334 7.14163H1.29334C1.29334 10.3625 4.04973 12.8841 7.31718 12.8841V10.8841ZM3.29334 7.14163C3.29334 5.13232 5.04413 3.39914 7.31718 3.39914V1.39914C4.04973 1.39914 1.29334 3.92072 1.29334 7.14163H3.29334ZM7.31718 3.39914C9.59023 3.39914 11.341 5.13232 11.341 7.14163H13.341C13.341 3.92072 10.5846 1.39914 7.31718 1.39914V3.39914ZM11.341 7.14163C11.341 9.1509 9.59 10.8841 7.31718 10.8841V12.8841C10.5843 12.8841 13.341 10.3626 13.341 7.14163H11.341Z" fill="#121212"/>
</svg>
