<svg width="60" height="60" viewBox="0 0 60 60" fill="none" xmlns="http://www.w3.org/2000/svg">
<path d="M48.75 60H11.25C5.03632 60 0 54.9637 0 48.75V11.25C0 5.03632 5.03632 0 11.25 0H48.75C54.9637 0 60 5.03632 60 11.25V48.75C60 54.9637 54.9637 60 48.75 60Z" fill="#FDF0CD"/>
<path d="M32.1245 20.9381C32.1245 24.3896 29.3267 27.1875 25.8751 27.1875C22.4236 27.1875 19.6257 24.3896 19.6257 20.9381C19.6257 17.4866 22.4236 14.6887 25.8751 14.6887C29.3267 14.6887 32.1245 17.4866 32.1245 20.9381Z" fill="#F3B405"/>
<path d="M28.0285 40.7143C27.378 39.5854 27.0856 38.5714 27.0856 37.2857C27.0856 36.3205 27.1713 34.8238 27.7713 33.4286C28.0562 32.688 28.422 31.9811 28.8621 31.3209L28.8856 31.2857C29.1428 30.8571 29.5713 30.4286 29.9159 30.1089L30.4884 29.6851H20.5631C17.2892 29.6869 14.625 32.3511 14.625 35.625V39.9994C14.625 40.5167 15.0448 40.9369 15.5625 40.9369H28.1584L28.0285 40.7143Z" fill="#F3B405"/>
<path d="M36.7231 28.2857C32.0713 28.2857 28.2856 32.0713 28.2856 36.7232C28.2856 41.3751 32.0713 45.1607 36.7231 45.1607C41.375 45.1607 45.1606 41.3751 45.1606 36.7232C45.1606 32.0713 41.375 28.2857 36.7231 28.2857ZM40.16 37.9738H37.9719V40.162C37.9719 40.852 37.4113 41.4126 36.7213 41.4126C36.0313 41.4126 35.4706 40.852 35.4706 40.162V37.9738H33.2825C32.5963 37.9738 32.0356 37.4132 32.0356 36.7232C32.0356 36.0332 32.5963 35.4726 33.2863 35.4726H35.4744V33.2845C35.4744 32.5945 36.035 32.0338 36.725 32.0338C37.415 32.0338 37.9756 32.5945 37.9756 33.2845V35.4726H40.1638C40.8538 35.4726 41.4144 36.0332 41.4144 36.7232C41.4144 37.4132 40.85 37.9738 40.16 37.9738Z" fill="#F3B405"/>
</svg>
