<svg width="60" height="60" viewBox="0 0 60 60" fill="none" xmlns="http://www.w3.org/2000/svg">
<path d="M48.75 60H11.25C5.03632 60 0 54.9637 0 48.75V11.25C0 5.03632 5.03632 0 11.25 0H48.75C54.9637 0 60 5.03632 60 11.25V48.75C60 54.9637 54.9637 60 48.75 60Z" fill="#FDF0CD"/>
<path d="M32.4995 22.1869C32.4995 25.6384 29.7017 28.4363 26.2501 28.4363C22.7986 28.4363 20.0007 25.6384 20.0007 22.1869C20.0007 18.7354 22.7986 15.9375 26.2501 15.9375C29.7017 15.9375 32.4995 18.7354 32.4995 22.1869Z" fill="#F3B405"/>
<path d="M31.5619 30.9375H20.9363C17.6642 30.9375 15 33.6017 15 36.8756V41.25C15 41.7673 15.4202 42.1875 15.9375 42.1875H36.5625C37.0798 42.1875 37.5 41.7673 37.5 41.25V36.8756C37.5 33.6017 34.8358 30.9375 31.5619 30.9375Z" fill="#F3B405"/>
<path d="M44.7019 26.4995L40.3275 22.4364C40.1512 22.2711 39.9224 22.1869 39.6898 22.1869C39.0709 22.1869 38.7523 22.7138 38.7523 23.1226V25.9351H33.7499C33.06 25.9351 32.4993 26.4958 32.4993 27.1857C32.4993 27.8755 33.0582 28.4363 33.7499 28.4363H38.7505V31.2488C38.7505 31.7683 39.1725 32.1863 39.688 32.1863C39.9205 32.1863 40.1494 32.1002 40.3257 31.9368L44.7 27.8737C44.8909 27.6974 44.9999 27.448 44.9999 27.1875C44.9999 26.927 44.8909 26.6776 44.7019 26.4995Z" fill="#F3B405"/>
</svg>
