<svg width="10" height="10" viewBox="0 0 10 10" fill="none" xmlns="http://www.w3.org/2000/svg">
<g clip-path="url(#clip0)">
<path d="M2.65625 0C3.46393 0 4.12109 0.676698 4.12109 1.48437C4.12109 2.29205 3.46393 2.94921 2.65625 2.94921C1.84857 2.94921 1.19141 2.29205 1.19141 1.48437C1.19141 0.676698 1.84857 0 2.65625 0Z" fill="#121212"/>
<path d="M5 3.53516C5.80768 3.53516 6.46484 4.19232 6.46484 5C6.46484 5.80767 5.80768 6.46484 5 6.46484C4.19232 6.46484 3.53516 5.80767 3.53516 5C3.53516 4.19232 4.19232 3.53516 5 3.53516Z" fill="#121212"/>
<path d="M7.34375 0C8.15143 0 8.80859 0.676698 8.80859 1.48437C8.80859 2.29205 8.15143 2.94921 7.34375 2.94921C6.53607 2.94921 5.87891 2.29205 5.87891 1.48437C5.87891 0.676698 6.53607 0 7.34375 0Z" fill="#121212"/>
<path d="M1.13857 2.85095C1.51422 3.26781 2.05246 3.53517 2.65635 3.53517C3.25678 3.53517 3.79254 3.27109 4.16797 2.85839C4.2523 2.9182 4.33885 2.97492 4.41602 3.04429C3.57094 3.29771 2.94932 4.07361 2.94932 5.00001C2.94932 5.3153 3.02674 5.61069 3.15445 5.87784C2.9166 6.04478 2.70098 6.24134 2.51613 6.46485H0.293065C0.131131 6.46485 9.53674e-05 6.33382 9.53674e-05 6.17188V5.00001C9.53674e-05 4.11202 0.463905 3.329 1.13857 2.85095Z" fill="#121212"/>
<path d="M5.58408 3.04429C5.66125 2.97492 5.74781 2.9182 5.83213 2.85839C6.20756 3.27109 6.74332 3.53517 7.34375 3.53517C7.94764 3.53517 8.48588 3.26781 8.86152 2.85095C9.53619 3.329 10 4.11202 10 5.00001V6.17188C10 6.33382 9.86896 6.46485 9.70703 6.46485H7.48398C7.29912 6.24134 7.08352 6.04478 6.84566 5.87784C6.97336 5.61069 7.05078 5.3153 7.05078 5.00001C7.05078 4.07361 6.42916 3.29771 5.58408 3.04429Z" fill="#121212"/>
<path d="M3.48223 6.36658C3.71684 6.62693 4.01959 6.81847 4.35744 6.93349L4.66018 7.36822L4.15199 8.3846C4.09562 8.49732 4.11766 8.63351 4.20693 8.72276L4.79287 9.3087C4.8501 9.36593 4.92506 9.39454 5 9.39454C5.07494 9.39454 5.14992 9.36593 5.20713 9.3087L5.79307 8.72276C5.88232 8.63351 5.90436 8.49732 5.84801 8.3846L5.33982 7.36822L5.64256 6.93349C5.98041 6.81847 6.28318 6.62693 6.51777 6.36658C7.19244 6.84462 7.63672 7.62765 7.63672 8.51564V9.70704C7.63672 9.86897 7.50568 10 7.34375 10H2.65625C2.49432 10 2.36328 9.86897 2.36328 9.70704V8.51564C2.36328 7.62765 2.80756 6.84462 3.48223 6.36658Z" fill="#121212"/>
</g>
<defs>
<clipPath id="clip0">
<rect width="10" height="9.99999" fill="white" transform="matrix(-1 0 0 1 10 0)"/>
</clipPath>
</defs>
</svg>
