<svg width="20" height="20" viewBox="0 0 20 20" fill="none" xmlns="http://www.w3.org/2000/svg">
<path d="M1.09769 6.06638H12.1595V4.03979H1.09769C0.491482 4.03979 0 4.49348 0 5.05307C0 5.61266 0.491482 6.06638 1.09769 6.06638Z" fill="#121212"/>
<path d="M1.09769 10.6262H12.1595V8.59961H1.09769C0.491482 8.59961 0 9.05329 0 9.61292C0 10.1726 0.491482 10.6262 1.09769 10.6262Z" fill="#121212"/>
<path d="M1.11053 13.1594C0.49723 13.1594 0 13.6131 0 14.1727C0 14.7324 0.49723 15.186 1.11053 15.186H9.41547C8.81564 14.5206 8.81564 14.2196 8.81564 14.1727C8.81564 14.0929 8.81564 13.7206 9.03039 13.1594H1.11053Z" fill="#121212"/>
<path d="M19.7592 12.6529C19.1042 12.0106 18.2393 12.6529 17.7326 13.1595L16.7193 14.1728L16.1612 14.7566V2.39558C16.1612 1.62479 15.9406 1 15.1544 1C14.3682 1 14.097 1.62483 14.097 2.39558V14.7566L12.562 13.178C12.0061 12.633 11.1958 12.1078 10.6399 12.6529C10.1333 13.1496 10.591 14.1344 11.1469 14.6794L14.1866 18.226C14.7414 18.7701 15.6569 18.7719 16.2132 18.226L19.2531 14.6794C19.8089 14.1344 20.3151 13.1979 19.7592 12.6529Z" fill="#121212"/>
</svg>
