<svg width="10" height="10" viewBox="0 0 10 10" fill="none" xmlns="http://www.w3.org/2000/svg">
<g clip-path="url(#clip0)">
<path d="M4.99999 0C2.23857 0 0 2.23857 0 4.99998C0 7.7614 2.23857 9.99996 4.99999 9.99996C7.76141 9.99996 9.99998 7.7614 9.99998 4.99998C9.99705 2.2398 7.76019 0.00295061 4.99999 0ZM5.35714 4.99998C5.35714 5.19723 5.19724 5.35713 4.99999 5.35713H2.14286C1.9456 5.35713 1.78571 5.19723 1.78571 4.99998C1.78571 4.80273 1.9456 4.64283 2.14286 4.64283H4.64286V2.14285C4.64286 1.9456 4.80276 1.7857 5.00001 1.7857C5.19726 1.7857 5.35714 1.9456 5.35714 2.14285V4.99998Z" fill="#121212"/>
</g>
<defs>
<clipPath id="clip0">
<rect width="10" height="9.99999" fill="white"/>
</clipPath>
</defs>
</svg>
