<svg width="35" height="35" viewBox="0 0 35 35" fill="none" xmlns="http://www.w3.org/2000/svg">
<g clip-path="url(#clip0)">
<path d="M29.4631 29.5312C28.708 29.5312 28.0959 28.9192 28.0959 28.1641C28.0959 27.409 28.708 26.7969 29.4631 26.7969C30.2182 26.7969 30.8303 27.409 30.8303 28.1641C30.8303 28.9192 30.2182 29.5312 29.4631 29.5312ZM33.9536 23.5571C33.3684 22.248 32.0501 21.3998 30.5919 21.3965H26.3282C26.3252 21.3965 26.3223 21.3965 26.3191 21.3965C24.7811 21.3965 23.4392 22.3029 22.8992 23.7075C22.8273 23.8944 22.7395 24.1298 22.6478 24.4043H13.6964C13.3268 24.4043 12.973 24.5539 12.7155 24.8191L10.3669 27.2382C9.84965 27.771 9.85225 28.6193 10.3727 29.1488L12.7653 31.5833C13.0223 31.8448 13.3737 31.9921 13.7404 31.9921H18.1838C18.9389 31.9921 19.5509 31.38 19.5509 30.6249C19.5509 29.8698 18.9389 29.2577 18.1838 29.2577H14.3137L13.259 28.1846L14.2746 27.1387H23.6734C24.3033 27.1387 24.8516 26.7084 25.0014 26.0966C25.112 25.645 25.2507 25.2107 25.4515 24.6887C25.5838 24.3444 25.9162 24.1309 26.3224 24.1309C26.3233 24.1309 26.3242 24.1309 26.3251 24.1309H30.5887C30.9754 24.1317 31.3081 24.3396 31.4572 24.6731C31.8243 25.4942 32.2625 26.7654 32.2658 28.1585C32.2691 29.5618 31.8313 30.8621 31.4633 31.7059C31.315 32.0462 30.9794 32.2656 30.6047 32.2656C30.604 32.2656 30.6032 32.2656 30.6025 32.2656H26.2873C25.909 32.2647 25.5547 32.0214 25.4057 31.6601C25.2458 31.2724 25.1073 30.8298 24.9821 30.3068C24.8063 29.5725 24.0683 29.1197 23.3343 29.2953C22.5999 29.4711 22.1471 30.2089 22.3228 30.9432C22.4815 31.6062 22.6631 32.1817 22.878 32.7026C23.4521 34.0947 24.7879 34.9964 26.2841 34.9999H30.5993C30.6023 34.9999 30.605 34.9999 30.6079 34.9999C32.0675 34.9999 33.3865 34.1366 33.9699 32.7987C34.4424 31.7151 35.0046 30.0294 35.0002 28.152C34.9958 26.2797 34.4286 24.6198 33.9536 23.5571ZM10.3567 33.6328C10.3567 34.3879 9.74458 35 8.98949 35H4.14916C2.8962 35 1.72432 34.4427 0.934084 33.4709C0.139816 32.4943 -0.168211 31.2258 0.0889567 29.9908C0.909474 26.0494 3.0831 22.4627 6.20931 19.8912C7.91433 18.4888 9.86257 17.4259 11.9387 16.7424C9.67253 15.0454 8.20335 12.3395 8.20335 9.29688C8.20335 4.17061 12.3739 0 17.5002 0C22.6266 0 26.7971 4.17061 26.7971 9.29688C26.7971 12.3367 25.3305 15.0405 23.0677 16.7379C23.2967 16.8133 23.5246 16.8929 23.7509 16.9779C24.4578 17.2434 24.8157 18.0316 24.5503 18.7385C24.2848 19.4454 23.4966 19.8034 22.7897 19.5378C21.2102 18.9446 19.5507 18.6252 17.8517 18.5864C17.735 18.5908 17.6179 18.5938 17.5002 18.5938C17.3835 18.5938 17.2675 18.5909 17.1518 18.5866C10.204 18.7482 4.18567 23.7285 2.76591 30.5481C2.67725 30.9739 2.78286 31.4103 3.05548 31.7457C3.21339 31.9399 3.56551 32.2656 4.14916 32.2656H8.98949C9.74458 32.2656 10.3567 32.8777 10.3567 33.6328ZM17.1797 15.8514C17.2865 15.8495 17.3933 15.848 17.5002 15.848C17.6069 15.848 17.7133 15.8496 17.8197 15.8515C21.2905 15.6842 24.0627 12.8083 24.0627 9.29688C24.0627 5.67827 21.1188 2.73438 17.5002 2.73438C13.8816 2.73438 10.9377 5.67827 10.9377 9.29688C10.9377 12.8079 13.7094 15.6837 17.1797 15.8514Z" fill="#121212"/>
</g>
<defs>
<clipPath id="clip0">
<rect width="35" height="35" fill="white"/>
</clipPath>
</defs>
</svg>
