<svg width="20" height="20" viewBox="0 0 20 20" fill="none" xmlns="http://www.w3.org/2000/svg">
<g clip-path="url(#clip0)">
<path d="M8.59622 18.7979C8.58294 18.7161 8.57681 18.6332 8.57789 18.5504V4.44077L8.43479 4.74844C8.29245 5.04917 8.09873 5.32276 7.86239 5.55695L3.9057 9.51363C3.40826 10.0347 2.60802 10.1223 2.00964 9.72112C1.372 9.25422 1.23356 8.35882 1.70046 7.72114C1.7382 7.66962 1.77934 7.62066 1.82362 7.57464L8.97856 0.419694C9.5371 -0.139465 10.4431 -0.139957 11.0023 0.418576C11.0027 0.418934 11.0031 0.419336 11.0034 0.419694L18.1584 7.57464C18.7164 8.13425 18.7151 9.04029 18.1555 9.59837C18.1115 9.64229 18.0646 9.68329 18.0153 9.72112C17.4169 10.1223 16.6166 10.0347 16.1192 9.51363L12.1554 5.5641C11.9452 5.35415 11.7689 5.11276 11.633 4.84861L11.4399 4.41931L11.4399 18.4716C11.467 19.2026 10.9564 19.844 10.2378 19.9813C9.45772 20.1078 8.72277 19.578 8.59622 18.7979Z" fill="#121212"/>
</g>
<defs>
<clipPath id="clip0">
<rect width="20" height="20" fill="white" transform="matrix(0 1 1 0 0 0)"/>
</clipPath>
</defs>
</svg>
